<svg width="369" height="155" viewBox="0 0 369 155" fill="none" xmlns="http://www.w3.org/2000/svg">
<g clip-path="url(#clip0_201_1142)">
<rect width="369" height="155" rx="20" fill="#002B5B"/>
<rect x="184" y="14.6218" width="203" height="268" rx="20" transform="rotate(-12.12 184 14.6218)" fill="#2D2F34"/>
<rect x="200" y="42.4219" width="163.918" height="71.7507" rx="10" transform="rotate(-12.1225 200 42.4219)" fill="#2C2B2B"/>
<path d="M221.343 52.4542L220.919 50.4792L222.009 47.2667L221.18 47.4447L220.407 49.8376L220.384 49.8426L218.697 47.978L217.861 48.1575L220.171 50.64L220.595 52.615L221.343 52.4542ZM224.342 51.8801C225.348 51.664 225.861 50.8302 225.618 49.6973C225.375 48.5678 224.561 48.0189 223.559 48.2342C222.556 48.4496 222.04 49.2841 222.283 50.4136C222.526 51.5465 223.336 52.0961 224.342 51.8801ZM224.214 51.2852C223.649 51.4065 223.186 51.0377 223.018 50.2557C222.85 49.4771 223.122 48.9504 223.687 48.8291C224.251 48.7077 224.715 49.0766 224.882 49.8552C225.05 50.6372 224.782 51.1632 224.214 51.2852ZM228.812 47.1722L228.091 47.3273L228.531 49.3758C228.648 49.9238 228.412 50.3522 227.89 50.4642C227.392 50.5711 227.077 50.3383 226.962 49.8036L226.503 47.6682L225.781 47.8233L226.27 50.099C226.443 50.9044 227.018 51.3018 227.783 51.1374C228.321 51.0219 228.628 50.7078 228.731 50.2451L228.748 50.2415L228.876 50.8363L229.567 50.6878L228.812 47.1722ZM231.673 50.2356L232.395 50.0805L231.928 47.9084C231.831 47.4572 232.063 47.0577 232.491 46.9659C232.899 46.8783 233.211 47.0804 233.298 47.4847L233.791 49.7805L234.5 49.6283L234.028 47.4328C233.933 46.9883 234.162 46.607 234.59 46.5151C235.018 46.4232 235.317 46.6315 235.415 47.086L235.897 49.3283L236.622 49.1725L236.103 46.7564C235.953 46.058 235.399 45.6945 234.704 45.8438C234.203 45.9514 233.845 46.3011 233.756 46.7676L233.739 46.7712C233.505 46.3636 233.097 46.189 232.609 46.2938C232.135 46.3957 231.823 46.7354 231.75 47.1601L231.733 47.1637L231.606 46.5722L230.918 46.72L231.673 50.2356ZM238.44 48.2471C238.053 48.3303 237.756 48.1844 237.69 47.8769C237.625 47.5762 237.828 47.3333 238.253 47.2106L239.107 46.9713L239.166 47.2486C239.265 47.7065 238.945 48.1387 238.44 48.2471ZM238.363 48.8616C238.824 48.7625 239.215 48.4198 239.335 47.985L239.352 47.9814L239.476 48.5595L240.167 48.411L239.647 45.9882C239.496 45.2831 238.854 44.9489 238.002 45.132C237.133 45.3186 236.692 45.9027 236.788 46.5463L237.47 46.3998C237.466 46.0721 237.684 45.8156 238.101 45.7259C238.543 45.6311 238.857 45.8083 238.941 46.1993L238.999 46.47L238.049 46.7335C237.223 46.9598 236.833 47.4386 236.965 48.0535C237.101 48.6851 237.674 49.0094 238.363 48.8616ZM241.498 49.4955C242.23 49.3384 242.515 48.9904 242.633 48.0737L243.158 44.0908L242.397 44.2545L242.119 47.3066L242.109 47.3088L240.602 44.6399L239.82 44.8079L241.846 48.054C241.846 48.0573 241.828 48.2781 241.829 48.2848C241.796 48.6694 241.649 48.8478 241.312 48.9203C241.252 48.9332 241.131 48.9591 241.075 48.9572L241.201 49.542C241.256 49.5405 241.441 49.5077 241.498 49.4955ZM245.755 47.2108L246.477 47.0558L246.04 45.024C245.921 44.4693 246.17 44.0313 246.704 43.9165C247.212 43.8074 247.54 44.0622 247.651 44.5802L248.108 46.7055L248.833 46.5498L248.346 44.2841C248.175 43.4887 247.603 43.0731 246.832 43.2389C246.297 43.3538 245.964 43.6736 245.858 44.1263L245.841 44.1299L245.434 42.2351L244.719 42.3887L245.755 47.2108ZM250.651 45.6243C250.263 45.7076 249.966 45.5616 249.9 45.2542C249.836 44.9534 250.039 44.7105 250.463 44.5879L251.317 44.3485L251.377 44.6259C251.475 45.0837 251.156 45.5159 250.651 45.6243ZM250.573 46.2388C251.034 46.1398 251.426 45.797 251.546 45.3622L251.562 45.3587L251.687 45.9368L252.378 45.7882L251.858 43.3654C251.706 42.6603 251.065 42.3262 250.213 42.5092C249.344 42.6958 248.903 43.28 248.999 43.9235L249.681 43.7771C249.677 43.4493 249.895 43.1928 250.312 43.1031C250.753 43.0084 251.068 43.1856 251.152 43.5766L251.21 43.8472L250.26 44.1108C249.434 44.337 249.044 44.8158 249.176 45.4307C249.312 46.0623 249.885 46.3867 250.573 46.2388ZM255.326 41.4774L254.571 41.6396L254.292 44.6395L254.279 44.6424L252.793 42.0214L252.024 42.1865L254.046 45.43L254.821 45.2635L255.326 41.4774ZM257.222 41.612C257.726 41.5037 258.148 41.8081 258.28 42.3425L256.523 42.7201C256.445 42.1808 256.717 41.7204 257.222 41.612ZM258.502 43.3925C258.472 43.7208 258.212 43.9933 257.801 44.0816C257.223 44.2058 256.768 43.8804 256.637 43.2688L256.628 43.2254L259.111 42.6921L259.057 42.4448C258.829 41.3788 258.072 40.821 257.097 41.0306C256.104 41.2438 255.627 42.1153 255.864 43.2181C256.102 44.3276 256.877 44.8918 257.91 44.67C258.715 44.497 259.225 43.9085 259.188 43.2454L258.502 43.3925ZM260.796 41.3441C260.902 41.8354 261.294 42.0973 261.962 42.1147L262.623 42.1334C263.011 42.148 263.171 42.243 263.219 42.4669C263.28 42.7509 263.051 42.9888 262.617 43.0821C262.176 43.1769 261.875 43.0457 261.746 42.7204L261.03 42.874C261.226 43.5068 261.87 43.8194 262.702 43.6407C263.564 43.4555 264.068 42.8859 263.93 42.2443C263.818 41.7263 263.494 41.5164 262.749 41.4981L262.128 41.4882C261.744 41.4762 261.539 41.3665 261.492 41.1493C261.432 40.8719 261.652 40.6254 262.043 40.5414C262.448 40.4546 262.747 40.5965 262.849 40.9068L263.527 40.7611C263.37 40.1412 262.728 39.8211 261.946 39.9891C261.123 40.1657 260.661 40.7159 260.796 41.3441ZM266.234 42.882C267.24 42.6659 267.753 41.8321 267.51 40.6992C267.267 39.5697 266.454 39.0208 265.451 39.2361C264.449 39.4515 263.932 40.2861 264.175 41.4156C264.418 42.5484 265.228 43.098 266.234 42.882ZM266.106 42.2872C265.542 42.4085 265.078 42.0396 264.91 41.2577C264.743 40.479 265.014 39.9523 265.579 39.831C266.144 39.7097 266.607 40.0785 266.775 40.8571C266.943 41.6391 266.674 42.1651 266.106 42.2872ZM268.445 42.3371L269.167 42.1821L268.727 40.1336C268.61 39.5889 268.86 39.1576 269.368 39.0485C269.869 38.9408 270.179 39.1785 270.293 39.7065L270.751 41.8418L271.476 41.6861L270.988 39.4104C270.815 38.605 270.264 38.2059 269.489 38.3724C268.947 38.4887 268.626 38.8164 268.522 39.2583L268.505 39.2619L268.379 38.6737L267.69 38.8216L268.445 42.3371ZM273.546 40.6297C272.992 40.7488 272.534 40.3786 272.377 39.6434C272.219 38.9115 272.48 38.3695 273.035 38.2504C273.6 38.1291 274.073 38.5239 274.228 39.2457C274.384 39.9709 274.111 40.5084 273.546 40.6297ZM273.963 42.5364C274.965 42.3211 275.496 41.6338 275.316 40.795L274.574 37.343L273.873 37.4937L274.002 38.0952L273.988 38.0981C273.687 37.7363 273.225 37.5733 272.727 37.6802C271.825 37.874 271.4 38.6926 271.637 39.7987C271.873 40.8948 272.599 41.459 273.481 41.2695C273.982 41.1618 274.343 40.8222 274.458 40.3989L274.471 40.396L274.596 40.9741C274.699 41.4554 274.434 41.8479 273.869 41.9692C273.458 42.0575 273.095 41.9326 272.929 41.6608L272.204 41.8166C272.424 42.4054 273.134 42.7144 273.963 42.5364ZM275.44 38.1988C275.545 38.6901 275.937 38.952 276.605 38.9693L277.266 38.9881C277.654 39.0027 277.814 39.0977 277.862 39.3216C277.923 39.6056 277.695 39.8435 277.26 39.9368C276.819 40.0315 276.518 39.9004 276.389 39.5751L275.674 39.7287C275.869 40.3614 276.513 40.6741 277.345 40.4954C278.208 40.3102 278.711 39.7406 278.573 39.099C278.462 38.581 278.137 38.3711 277.392 38.3528L276.771 38.3429C276.388 38.3309 276.182 38.2212 276.136 38.0039C276.076 37.7266 276.296 37.4801 276.687 37.3961C277.091 37.3093 277.391 37.4512 277.492 37.7615L278.171 37.6158C278.013 36.9959 277.371 36.6758 276.589 36.8438C275.767 37.0203 275.305 37.5706 275.44 38.1988ZM280.02 35.3028L280.198 36.1349L279.687 36.2448L279.81 36.8162L280.321 36.7064L280.755 38.7248C280.9 39.4032 281.236 39.6143 281.948 39.4614C282.108 39.4269 282.266 39.3791 282.342 39.3418L282.219 38.7704C282.174 38.7905 282.059 38.8223 281.985 38.8381C281.691 38.9012 281.528 38.7929 281.463 38.4888L281.046 36.5506L281.715 36.4071L281.592 35.8356L280.924 35.9792L280.745 35.1471L280.02 35.3028ZM282.969 39.2176L283.69 39.0626L283.254 37.0308C283.135 36.4761 283.383 36.0381 283.918 35.9233C284.426 35.8142 284.753 36.069 284.865 36.587L285.321 38.7123L286.046 38.5566L285.56 36.2909C285.389 35.4955 284.817 35.0799 284.045 35.2458C283.511 35.3606 283.177 35.6804 283.072 36.1331L283.055 36.1367L282.648 34.2419L281.933 34.3955L282.969 39.2176ZM287.865 37.6311C287.477 37.7144 287.18 37.5684 287.114 37.261C287.049 36.9602 287.252 36.7173 287.677 36.5947L288.531 36.3553L288.591 36.6327C288.689 37.0905 288.369 37.5227 287.865 37.6311ZM287.787 38.2456C288.248 38.1466 288.64 37.8038 288.759 37.369L288.776 37.3655L288.9 37.9436L289.592 37.795L289.072 35.3722C288.92 34.6671 288.279 34.333 287.426 34.516C286.558 34.7026 286.117 35.2868 286.213 35.9303L286.895 35.7839C286.891 35.4561 287.108 35.1996 287.526 35.1099C287.967 35.0152 288.281 35.1924 288.365 35.5834L288.423 35.854L287.473 36.1176C286.648 36.3438 286.258 36.8226 286.39 37.4375C286.526 38.0691 287.099 38.3935 287.787 38.2456ZM289.57 33.2514L289.749 34.0835L289.238 34.1933L289.361 34.7648L289.872 34.655L290.305 36.6734C290.451 37.3518 290.787 37.5629 291.498 37.41C291.659 37.3755 291.816 37.3277 291.892 37.2904L291.77 36.719C291.725 36.7391 291.609 36.7709 291.536 36.7867C291.242 36.8498 291.079 36.7415 291.013 36.4374L290.597 34.4992L291.265 34.3556L291.143 33.7842L290.474 33.9278L290.296 33.0957L289.57 33.2514ZM296.405 33.9194C296.193 33.2413 295.517 32.7783 294.611 32.9728C293.612 33.1874 293.108 34.0332 293.348 35.1493C293.592 36.2855 294.395 36.8333 295.401 36.6172C296.246 36.4356 296.735 35.7992 296.652 35.0341L295.956 35.1834C295.961 35.6091 295.722 35.9154 295.278 36.0109C294.716 36.1315 294.249 35.7634 294.083 34.9914C293.921 34.2362 294.189 33.6927 294.747 33.5729C295.218 33.4717 295.563 33.7088 295.717 34.0673L296.405 33.9194ZM298.538 35.3385C298.151 35.4218 297.854 35.2758 297.788 34.9684C297.723 34.6676 297.926 34.4248 298.351 34.3021L299.205 34.0627L299.264 34.3401C299.363 34.7979 299.043 35.2301 298.538 35.3385ZM298.461 35.953C298.922 35.854 299.313 35.5112 299.433 35.0765L299.45 35.0729L299.574 35.651L300.266 35.5024L299.745 33.0796C299.594 32.3745 298.952 32.0404 298.1 32.2234C297.231 32.4101 296.79 32.9942 296.887 33.6377L297.568 33.4913C297.564 33.1635 297.782 32.907 298.2 32.8173C298.641 32.7226 298.955 32.8998 299.039 33.2908L299.097 33.5615L298.147 33.825C297.321 34.0512 296.931 34.53 297.063 35.1449C297.199 35.7765 297.772 36.1009 298.461 35.953ZM300.967 35.3517L301.689 35.1966L301.249 33.1481C301.132 32.6034 301.382 32.1722 301.89 32.0631C302.391 31.9554 302.701 32.193 302.814 32.721L303.273 34.8564L303.998 34.7007L303.509 32.4249C303.337 31.6196 302.786 31.2204 302.011 31.387C301.469 31.5032 301.148 31.8309 301.044 32.2729L301.027 32.2764L300.901 31.6883L300.212 31.8362L300.967 35.3517ZM307.612 33.9944C308.618 33.7784 309.131 32.9445 308.887 31.8117C308.645 30.6822 307.831 30.1333 306.829 30.3486C305.826 30.5639 305.31 31.3985 305.552 32.528C305.796 33.6609 306.606 34.2105 307.612 33.9944ZM307.484 33.3996C306.919 33.5209 306.455 33.1521 306.287 32.3701C306.12 31.5915 306.392 31.0647 306.956 30.9434C307.521 30.8221 307.985 31.191 308.152 31.9696C308.32 32.7516 308.052 33.2776 307.484 33.3996ZM309.823 33.4496L310.545 33.2945L310.105 31.246C309.988 30.7013 310.238 30.2701 310.746 30.161C311.247 30.0533 311.557 30.2909 311.67 30.8189L312.129 32.9543L312.854 32.7985L312.365 30.5228C312.192 29.7174 311.641 29.3183 310.866 29.4849C310.325 29.6011 310.004 29.9288 309.899 30.3707L309.883 30.3743L309.756 29.7862L309.068 29.934L309.823 33.4496ZM313.579 32.6428L314.301 32.4877L313.265 27.6656L312.543 27.8206L313.579 32.6428ZM315.672 33.5637C316.404 33.4065 316.689 33.0586 316.807 32.1418L317.332 28.159L316.57 28.3226L316.292 31.3748L316.282 31.377L314.776 28.7081L313.994 28.876L316.019 32.1221C316.02 32.1255 316.001 32.3463 316.002 32.353C315.97 32.7376 315.823 32.916 315.485 32.9885C315.425 33.0014 315.305 33.0272 315.248 33.0254L315.374 33.6102C315.43 33.6087 315.615 33.5759 315.672 33.5637ZM321.786 30.9429C322.678 30.7513 323.102 29.9261 322.863 28.8099C322.624 27.6971 321.895 27.1195 321.009 27.3097C320.511 27.4167 320.163 27.7501 320.04 28.203L320.024 28.2066L319.614 26.3018L318.893 26.4568L319.928 31.279L320.63 31.1283L320.502 30.5301L320.515 30.5272C320.82 30.8883 321.271 31.0535 321.786 30.9429ZM320.943 27.9603C321.511 27.8383 321.962 28.2307 322.121 28.9693C322.281 29.7145 322.029 30.251 321.461 30.373C320.913 30.4907 320.427 30.0988 320.269 29.3669C320.114 28.6418 320.395 28.078 320.943 27.9603ZM324.631 27.133C325.136 27.0246 325.558 27.329 325.69 27.8634L323.932 28.241C323.855 27.7018 324.127 27.2414 324.631 27.133ZM325.912 28.9135C325.881 29.2417 325.622 29.5142 325.211 29.6025C324.633 29.7267 324.178 29.4013 324.047 28.7898L324.038 28.7463L326.52 28.213L326.467 27.9657C326.238 26.8997 325.482 26.3419 324.506 26.5515C323.514 26.7647 323.037 27.6363 323.274 28.7391C323.512 29.8485 324.287 30.4127 325.32 30.1909C326.125 30.0179 326.635 29.4295 326.597 28.7663L325.912 28.9135ZM329.875 25.4055C329.367 25.5146 329.018 25.8587 328.897 26.3076L328.884 26.3105L328.754 25.7056L328.056 25.8556L329.061 30.5341L329.782 30.379L329.408 28.638L329.425 28.6344C329.71 28.9823 330.164 29.1435 330.668 29.0351C331.551 28.8456 331.984 28.0149 331.745 26.9021C331.506 25.7893 330.767 25.2138 329.875 25.4055ZM330.333 28.4673C329.778 28.5865 329.309 28.1909 329.152 27.4591C328.996 26.7339 329.264 26.173 329.815 26.0546C330.386 25.9318 330.845 26.3262 331.003 27.0614C331.162 27.7999 330.905 28.3446 330.333 28.4673ZM332.707 28.5342L333.429 28.3792L332.393 23.557L331.672 23.7121L332.707 28.5342ZM335.291 27.4444C334.903 27.5277 334.606 27.3817 334.54 27.0743C334.476 26.7735 334.679 26.5306 335.103 26.408L335.957 26.1686L336.017 26.4459C336.115 26.9038 335.796 27.336 335.291 27.4444ZM335.213 28.0589C335.674 27.9598 336.066 27.6171 336.186 27.1823L336.202 27.1787L336.326 27.7569L337.018 27.6083L336.498 25.1855C336.346 24.4804 335.705 24.1463 334.853 24.3293C333.984 24.5159 333.543 25.1 333.639 25.7436L334.321 25.5972C334.317 25.2694 334.534 25.0129 334.952 24.9232C335.393 24.8284 335.707 25.0056 335.791 25.3966L335.85 25.6673L334.899 25.9308C334.074 26.1571 333.684 26.6359 333.816 27.2508C333.952 27.8824 334.525 28.2068 335.213 28.0589ZM338.349 28.6929C339.081 28.5357 339.366 28.1877 339.484 27.271L340.009 23.2881L339.247 23.4518L338.969 26.504L338.959 26.5061L337.453 23.8372L336.671 24.0052L338.696 27.2513C338.697 27.2546 338.678 27.4755 338.68 27.4821C338.647 27.8667 338.5 28.0451 338.162 28.1176C338.102 28.1305 337.982 28.1564 337.926 28.1545L338.051 28.7393C338.107 28.7379 338.292 28.7051 338.349 28.6929ZM341.915 23.4206C342.42 23.3123 342.841 23.6167 342.974 24.1511L341.216 24.5286C341.139 23.9894 341.41 23.529 341.915 23.4206ZM343.196 25.2011C343.165 25.5294 342.905 25.8019 342.494 25.8902C341.916 26.0143 341.462 25.689 341.33 25.0774L341.321 25.034L343.804 24.5007L343.751 24.2534C343.522 23.1873 342.766 22.6296 341.79 22.8392C340.798 23.0524 340.321 23.9239 340.557 25.0267C340.796 26.1362 341.571 26.7004 342.603 26.4786C343.409 26.3056 343.918 25.7171 343.881 25.054L343.196 25.2011ZM346.037 25.734C346.548 25.6242 346.894 25.2807 347.015 24.8352L347.029 24.8324L347.157 25.4305L347.859 25.2798L346.823 20.4576L346.098 20.6134L346.504 22.5048L346.491 22.5077C346.21 22.1624 345.755 21.9946 345.25 22.103C344.368 22.2925 343.931 23.1239 344.17 24.2334C344.408 25.3428 345.148 25.9249 346.037 25.734ZM345.578 22.6688C346.133 22.5497 346.606 22.9479 346.763 23.6764C346.921 24.4115 346.651 24.9624 346.096 25.0816C345.525 25.2043 345.067 24.8166 344.908 24.0747C344.749 23.3362 345.007 22.7915 345.578 22.6688ZM230.589 54.973L229.874 55.1266L229.827 58.0314L229.81 58.035L228.481 55.4259L227.786 55.5752L227.648 58.4994L227.635 58.5023L226.399 55.8731L225.677 56.0282L227.398 59.3362L228.143 59.1762L228.309 56.3857L228.326 56.3821L229.63 58.8568L230.382 58.6953L230.589 54.973ZM231.809 58.3888L232.531 58.2337L231.776 54.7182L231.054 54.8733L231.809 58.3888ZM231.304 54.2811C231.538 54.2309 231.686 54.0069 231.637 53.7796C231.587 53.5491 231.361 53.4055 231.127 53.4557C230.896 53.5052 230.749 53.7292 230.798 53.9598C230.847 54.187 231.074 54.3306 231.304 54.2811ZM232.546 53.6823L232.725 54.5144L232.213 54.6242L232.336 55.1956L232.847 55.0858L233.281 57.1042C233.427 57.7826 233.762 57.9937 234.474 57.8408C234.634 57.8064 234.792 57.7585 234.868 57.7213L234.745 57.1498C234.7 57.1699 234.585 57.2017 234.511 57.2175C234.217 57.2807 234.054 57.1724 233.989 56.8683L233.573 54.93L234.241 54.7865L234.118 54.2151L233.45 54.3586L233.271 53.5265L232.546 53.6823ZM235.495 57.5971L236.217 57.442L235.78 55.4102C235.661 54.8555 235.91 54.4176 236.444 54.3027C236.952 54.1936 237.28 54.4484 237.391 54.9664L237.847 57.0918L238.573 56.936L238.086 54.6703C237.915 53.875 237.343 53.4594 236.571 53.6252C236.037 53.74 235.703 54.0598 235.598 54.5125L235.581 54.5161L235.174 52.6213L234.459 52.7749L235.495 57.5971ZM240.685 56.4824L241.406 56.3273L240.651 52.8118L239.929 52.9668L240.685 56.4824ZM240.18 52.3747C240.414 52.3244 240.561 52.1004 240.513 51.8732C240.463 51.6426 240.236 51.499 240.003 51.5493C239.772 51.5988 239.624 51.8228 239.674 52.0534C239.723 52.2806 239.949 52.4242 240.18 52.3747ZM242.145 56.1687L242.867 56.0136L242.427 53.9652C242.31 53.4204 242.56 52.9892 243.068 52.8801C243.569 52.7724 243.879 53.01 243.992 53.538L244.451 55.6734L245.176 55.5177L244.687 53.2419C244.514 52.4366 243.963 52.0375 243.188 52.204C242.647 52.3203 242.326 52.6479 242.221 53.0899L242.205 53.0935L242.078 52.5053L241.39 52.6532L242.145 56.1687ZM245.151 50.9748L245.33 51.8069L244.818 51.9167L244.941 52.4882L245.452 52.3783L245.886 54.3968C246.032 55.0751 246.367 55.2862 247.079 55.1334C247.239 55.0989 247.397 55.0511 247.473 55.0138L247.35 54.4424C247.305 54.4624 247.19 54.4942 247.116 54.51C246.822 54.5732 246.659 54.4649 246.594 54.1608L246.178 52.2226L246.846 52.079L246.723 51.5076L246.055 51.6511L245.876 50.819L245.151 50.9748ZM248.813 51.6006C249.317 51.4923 249.739 51.7967 249.872 52.3311L248.114 52.7086C248.037 52.1694 248.308 51.709 248.813 51.6006ZM250.094 53.3811C250.063 53.7094 249.803 53.9819 249.392 54.0702C248.814 54.1943 248.36 53.8689 248.228 53.2574L248.219 53.214L250.702 52.6807L250.649 52.4334C250.42 51.3673 249.664 50.8096 248.688 51.0192C247.695 51.2324 247.218 52.1039 247.455 53.2067C247.694 54.3162 248.469 54.8804 249.501 54.6586C250.306 54.4856 250.816 53.8971 250.779 53.234L250.094 53.3811ZM251.602 54.1374L252.324 53.9823L251.872 51.877C251.765 51.3791 251.985 51.0066 252.45 50.9068C252.59 50.8767 252.721 50.8661 252.783 50.8773L252.638 50.2056C252.583 50.2071 252.489 50.2097 252.385 50.232C251.971 50.321 251.709 50.6324 251.681 51.0686L251.664 51.0722L251.535 50.474L250.847 50.6218L251.602 54.1374ZM253.848 53.655L254.57 53.5L254.13 51.4515C254.013 50.9068 254.263 50.4755 254.77 50.3664C255.272 50.2588 255.581 50.4964 255.695 51.0244L256.154 53.1598L256.879 53.004L256.39 50.7283C256.217 49.9229 255.666 49.5238 254.891 49.6903C254.35 49.8066 254.028 50.1343 253.924 50.5762L253.907 50.5798L253.781 49.9916L253.093 50.1395L253.848 53.655ZM258.404 49.5406C258.908 49.4322 259.33 49.7366 259.463 50.2711L257.705 50.6486C257.627 50.1094 257.899 49.649 258.404 49.5406ZM259.685 51.3211C259.654 51.6493 259.394 51.9219 258.983 52.0101C258.405 52.1343 257.95 51.8089 257.819 51.1974L257.81 51.1539L260.293 50.6206L260.24 50.3733C260.011 49.3073 259.255 48.7496 258.279 48.9591C257.286 49.1723 256.809 50.0439 257.046 51.1467C257.284 52.2561 258.059 52.8203 259.092 52.5985C259.897 52.4255 260.407 51.8371 260.37 51.1739L259.685 51.3211ZM260.47 47.6845L260.648 48.5166L260.137 48.6264L260.26 49.1979L260.771 49.088L261.205 51.1065C261.35 51.7848 261.686 51.9959 262.398 51.8431C262.558 51.8086 262.716 51.7608 262.791 51.7235L262.669 51.1521C262.624 51.1721 262.509 51.2039 262.435 51.2197C262.141 51.2829 261.978 51.1746 261.913 50.8705L261.496 48.9323L262.165 48.7887L262.042 48.2173L261.373 48.3608L261.195 47.5287L260.47 47.6845ZM267.304 48.3525C267.092 47.6744 266.416 47.2113 265.51 47.4059C264.511 47.6205 264.008 48.4663 264.247 49.5824C264.491 50.7186 265.294 51.2663 266.3 51.0503C267.146 50.8687 267.635 50.2323 267.551 49.4672L266.856 49.6165C266.86 50.0421 266.621 50.3485 266.177 50.444C265.615 50.5646 265.148 50.1965 264.983 49.4245C264.82 48.6693 265.088 48.1258 265.646 48.0059C266.117 47.9047 266.462 48.1419 266.616 48.5003L267.304 48.3525ZM269.842 50.2894C270.848 50.0734 271.361 49.2395 271.118 48.1067C270.875 46.9772 270.062 46.4283 269.059 46.6436C268.057 46.8589 267.54 47.6935 267.783 48.823C268.026 49.9559 268.836 50.5055 269.842 50.2894ZM269.715 49.6946C269.15 49.8159 268.686 49.4471 268.518 48.6651C268.351 47.8865 268.622 47.3597 269.187 47.2384C269.752 47.1171 270.216 47.486 270.383 48.2646C270.551 49.0465 270.283 49.5726 269.715 49.6946ZM272.054 49.7446L272.775 49.5895L272.335 47.541C272.218 46.9963 272.468 46.5651 272.976 46.456C273.478 46.3483 273.787 46.5859 273.901 47.1139L274.359 49.2493L275.085 49.0935L274.596 46.8178C274.423 46.0124 273.872 45.6133 273.097 45.7798C272.555 45.8961 272.234 46.2238 272.13 46.6657L272.113 46.6693L271.987 46.0812L271.299 46.229L272.054 49.7446ZM275.783 48.9435L276.505 48.7885L276.065 46.74C275.948 46.1953 276.198 45.764 276.706 45.6549C277.207 45.5473 277.517 45.7849 277.63 46.3129L278.089 48.4482L278.814 48.2925L278.325 46.0168C278.152 45.2114 277.601 44.8123 276.826 44.9788C276.285 45.0951 275.964 45.4228 275.859 45.8647L275.843 45.8683L275.716 45.2801L275.028 45.428L275.783 48.9435ZM280.339 44.8291C280.844 44.7207 281.265 45.0251 281.398 45.5596L279.64 45.9371C279.563 45.3979 279.834 44.9375 280.339 44.8291ZM281.62 46.6096C281.589 46.9378 281.329 47.2103 280.918 47.2986C280.34 47.4228 279.886 47.0974 279.754 46.4859L279.745 46.4424L282.228 45.9091L282.175 45.6618C281.946 44.5958 281.19 44.038 280.214 44.2476C279.222 44.4608 278.745 45.3324 278.981 46.4352C279.22 47.5446 279.995 48.1088 281.027 47.887C281.833 47.714 282.342 47.1256 282.305 46.4624L281.62 46.6096ZM285.651 44.4119C285.438 43.7338 284.762 43.2707 283.857 43.4653C282.857 43.6799 282.354 44.5257 282.594 45.6418C282.838 46.778 283.64 47.3257 284.646 47.1097C285.492 46.9281 285.981 46.2916 285.897 45.5266L285.202 45.6759C285.206 46.1015 284.968 46.4079 284.523 46.5034C283.962 46.624 283.495 46.2558 283.329 45.4839C283.167 44.7287 283.434 44.1852 283.992 44.0653C284.464 43.9641 284.808 44.2013 284.962 44.5597L285.651 44.4119ZM285.94 42.2136L286.119 43.0457L285.608 43.1555L285.731 43.7269L286.242 43.6171L286.675 45.6355C286.821 46.3139 287.157 46.525 287.868 46.3721C288.029 46.3377 288.186 46.2899 288.262 46.2526L288.14 45.6811C288.095 45.7012 287.979 45.733 287.906 45.7488C287.612 45.812 287.449 45.7037 287.383 45.3996L286.967 43.4614L287.635 43.3178L287.513 42.7464L286.844 42.8899L286.666 42.0578L285.94 42.2136ZM288.886 46.1291L289.608 45.9741L288.853 42.4585L288.131 42.6136L288.886 46.1291ZM288.381 42.0214C288.615 41.9712 288.763 41.7472 288.714 41.52C288.665 41.2894 288.438 41.1458 288.204 41.196C287.973 41.2455 287.826 41.4695 287.875 41.7001C287.924 41.9274 288.151 42.071 288.381 42.0214ZM291.871 45.5578C292.877 45.3418 293.39 44.5079 293.147 43.3751C292.904 42.2456 292.091 41.6966 291.088 41.912C290.086 42.1273 289.569 42.9619 289.812 44.0914C290.055 45.2243 290.865 45.7739 291.871 45.5578ZM291.743 44.963C291.179 45.0843 290.715 44.7155 290.547 43.9335C290.38 43.1549 290.651 42.6281 291.216 42.5068C291.781 42.3855 292.244 42.7543 292.412 43.533C292.58 44.3149 292.312 44.841 291.743 44.963ZM294.082 45.013L294.804 44.8579L294.364 42.8094C294.247 42.2647 294.497 41.8335 295.005 41.7244C295.506 41.6167 295.816 41.8543 295.93 42.3823L296.388 44.5177L297.113 44.3619L296.625 42.0862C296.452 41.2808 295.901 40.8817 295.126 41.0482C294.584 41.1645 294.263 41.4922 294.159 41.9341L294.142 41.9377L294.016 41.3496L293.327 41.4974L294.082 45.013ZM298.361 44.1324C298.605 44.08 298.757 43.8445 298.705 43.6006C298.652 43.3566 298.417 43.2045 298.173 43.2569C297.929 43.3093 297.777 43.5447 297.829 43.7887C297.882 44.0326 298.117 44.1848 298.361 44.1324ZM299.69 38.7639L300.726 43.586L302.427 43.2207C303.864 42.912 304.517 41.8348 304.19 40.311C303.863 38.7905 302.825 38.0906 301.391 38.3985L299.69 38.7639ZM300.577 39.248L301.459 39.0585C302.479 38.8396 303.182 39.3458 303.426 40.482C303.67 41.6216 303.24 42.3678 302.217 42.5874L301.335 42.7769L300.577 39.248ZM306.862 42.3379C307.868 42.1218 308.381 41.288 308.138 40.1551C307.895 39.0256 307.082 38.4767 306.079 38.692C305.077 38.9074 304.56 39.7419 304.803 40.8714C305.046 42.0043 305.856 42.5539 306.862 42.3379ZM306.735 41.743C306.17 41.8643 305.706 41.4955 305.538 40.7135C305.371 39.9349 305.642 39.4082 306.207 39.2869C306.772 39.1655 307.235 39.5344 307.403 40.313C307.571 41.095 307.303 41.621 306.735 41.743ZM311.093 42.7297C311.824 42.5725 312.11 42.2246 312.228 41.3078L312.753 37.325L311.991 37.4886L311.713 40.5408L311.703 40.543L310.196 37.8741L309.415 38.042L311.44 41.2881C311.441 41.2915 311.422 41.5123 311.423 41.519C311.391 41.9036 311.244 42.082 310.906 42.1545C310.846 42.1674 310.726 42.1932 310.669 42.1914L310.795 42.7762C310.851 42.7747 311.036 42.7419 311.093 42.7297ZM315.357 40.5133C316.363 40.2972 316.876 39.4634 316.633 38.3305C316.39 37.201 315.576 36.6521 314.574 36.8674C313.571 37.0828 313.055 37.9173 313.298 39.0469C313.541 40.1797 314.351 40.7293 315.357 40.5133ZM315.229 39.9184C314.664 40.0397 314.201 39.6709 314.033 38.8889C313.866 38.1103 314.137 37.5836 314.702 37.4623C315.266 37.341 315.73 37.7098 315.897 38.4884C316.065 39.2704 315.797 39.7964 315.229 39.9184ZM319.827 35.8054L319.106 35.9605L319.546 38.009C319.663 38.557 319.427 38.9854 318.905 39.0974C318.407 39.2043 318.092 38.9715 317.977 38.4368L317.518 36.3014L316.796 36.4565L317.285 38.7322C317.458 39.5376 318.033 39.935 318.798 39.7706C319.336 39.6551 319.643 39.341 319.746 38.8783L319.763 38.8747L319.891 39.4695L320.583 39.321L319.827 35.8054ZM326.571 34.357L325.856 34.5106L325.809 37.4153L325.792 37.4189L324.462 34.8099L323.767 34.9592L323.63 37.8833L323.616 37.8862L322.381 35.2571L321.659 35.4121L323.38 38.7202L324.125 38.5601L324.291 35.7696L324.308 35.766L325.612 38.2407L326.364 38.0792L326.571 34.357ZM328.827 37.0152C328.439 37.0985 328.142 36.9525 328.076 36.6451C328.012 36.3443 328.215 36.1015 328.639 35.9788L329.493 35.7394L329.553 36.0168C329.651 36.4746 329.332 36.9068 328.827 37.0152ZM328.749 37.6297C329.21 37.5307 329.602 37.1879 329.722 36.7532L329.738 36.7496L329.863 37.3277L330.554 37.1791L330.034 34.7563C329.882 34.0512 329.241 33.7171 328.389 33.9001C327.52 34.0867 327.079 34.6709 327.175 35.3144L327.857 35.168C327.853 34.8402 328.071 34.5837 328.488 34.494C328.929 34.3993 329.244 34.5765 329.328 34.9675L329.386 35.2382L328.436 35.5017C327.61 35.7279 327.22 36.2067 327.352 36.8216C327.488 37.4532 328.061 37.7776 328.749 37.6297ZM331.256 37.0284L331.978 36.8733L331.538 34.8248C331.421 34.2801 331.671 33.8489 332.179 33.7398C332.68 33.6321 332.99 33.8697 333.103 34.3977L333.562 36.5331L334.287 36.3773L333.798 34.1016C333.625 33.2963 333.075 32.8971 332.299 33.0637C331.758 33.1799 331.437 33.5076 331.332 33.9495L331.316 33.9531L331.189 33.365L330.501 33.5129L331.256 37.0284ZM334.262 31.8345L334.441 32.6666L333.93 32.7764L334.052 33.3478L334.564 33.238L334.997 35.2564C335.143 35.9348 335.478 36.1459 336.19 35.993C336.351 35.9586 336.508 35.9108 336.584 35.8735L336.461 35.3021C336.417 35.3221 336.301 35.3539 336.228 35.3697C335.934 35.4329 335.77 35.3246 335.705 35.0205L335.289 33.0823L335.957 32.9387L335.834 32.3673L335.166 32.5108L334.987 31.6787L334.262 31.8345ZM337.851 31.0636L338.03 31.8957L337.519 32.0055L337.641 32.577L338.153 32.4671L338.586 34.4856C338.732 35.1639 339.067 35.375 339.779 35.2221C339.94 35.1877 340.097 35.1399 340.173 35.1026L340.05 34.5312C340.006 34.5512 339.89 34.583 339.817 34.5988C339.523 34.662 339.359 34.5537 339.294 34.2496L338.878 32.3114L339.546 32.1678L339.423 31.5964L338.755 31.7399L338.576 30.9078L337.851 31.0636ZM342.211 34.7452C343.217 34.5291 343.73 33.6953 343.487 32.5624C343.244 31.4329 342.431 30.884 341.428 31.0993C340.426 31.3147 339.909 32.1493 340.152 33.2788C340.395 34.4116 341.205 34.9612 342.211 34.7452ZM342.084 34.1504C341.519 34.2717 341.055 33.9028 340.887 33.1209C340.72 32.3422 340.991 31.8155 341.556 31.6942C342.121 31.5729 342.585 31.9417 342.752 32.7203C342.92 33.5023 342.652 34.0283 342.084 34.1504ZM232.132 66.5648C232.643 66.455 232.989 66.1116 233.11 65.666L233.123 65.6632L233.252 66.2614L233.953 66.1106L232.918 61.2885L232.192 61.4442L232.599 63.3357L232.585 63.3385C232.305 62.9932 231.849 62.8254 231.345 62.9338C230.463 63.1233 230.026 63.9547 230.264 65.0642C230.502 66.1736 231.243 66.7558 232.132 66.5648ZM231.673 63.4996C232.227 63.3805 232.701 63.7787 232.857 64.5072C233.015 65.2424 232.746 65.7932 232.191 65.9124C231.619 66.0351 231.162 65.6474 231.003 64.9055C230.844 64.167 231.101 63.6224 231.673 63.4996ZM236.22 65.6937C237.226 65.4776 237.739 64.6438 237.496 63.5109C237.253 62.3814 236.44 61.8325 235.437 62.0478C234.434 62.2632 233.918 63.0977 234.161 64.2272C234.404 65.3601 235.214 65.9097 236.22 65.6937ZM236.092 65.0988C235.528 65.2201 235.064 64.8513 234.896 64.0693C234.729 63.2907 235 62.764 235.565 62.6426C236.13 62.5213 236.593 62.8902 236.761 63.6688C236.929 64.4508 236.66 64.9768 236.092 65.0988ZM242.301 60.6399L241.586 60.7935L241.539 63.6983L241.522 63.7018L240.193 61.0928L239.498 61.2421L239.36 64.1662L239.347 64.1691L238.111 61.54L237.389 61.695L239.11 65.0031L239.855 64.843L240.021 62.0525L240.038 62.0489L241.342 64.5236L242.094 64.3621L242.301 60.6399ZM243.497 64.0606L244.219 63.9056L243.779 61.8571C243.662 61.3124 243.912 60.8811 244.42 60.772C244.921 60.6644 245.231 60.902 245.345 61.43L245.803 63.5654L246.528 63.4096L246.04 61.1339C245.867 60.3285 245.316 59.9294 244.541 60.0959C243.999 60.2122 243.678 60.5399 243.574 60.9818L243.557 60.9854L243.431 60.3973L242.742 60.5451L243.497 64.0606ZM247.254 63.2539L247.975 63.0988L246.94 58.2767L246.218 58.4317L247.254 63.2539ZM250.242 62.6819C251.248 62.4658 251.761 61.632 251.518 60.4991C251.275 59.3696 250.462 58.8207 249.459 59.036C248.456 59.2513 247.94 60.0859 248.183 61.2154C248.426 62.3483 249.236 62.8979 250.242 62.6819ZM250.114 62.087C249.55 62.2083 249.086 61.8395 248.918 61.0575C248.751 60.2789 249.022 59.7522 249.587 59.6308C250.152 59.5095 250.615 59.8784 250.783 60.657C250.95 61.439 250.682 61.965 250.114 62.087ZM253.573 61.3616C253.186 61.4448 252.889 61.2989 252.823 60.9914C252.758 60.6907 252.961 60.4478 253.386 60.3251L254.24 60.0857L254.299 60.3631C254.398 60.8209 254.078 61.2532 253.573 61.3616ZM253.496 61.9761C253.957 61.877 254.348 61.5343 254.468 61.0995L254.485 61.0959L254.609 61.674L255.301 61.5254L254.78 59.1027C254.629 58.3976 253.987 58.0634 253.135 58.2465C252.266 58.4331 251.825 59.0172 251.921 59.6608L252.603 59.5143C252.599 59.1866 252.817 58.9301 253.235 58.8403C253.676 58.7456 253.99 58.9228 254.074 59.3138L254.132 59.5845L253.182 59.848C252.356 60.0742 251.966 60.5531 252.098 61.168C252.234 61.7995 252.807 62.1239 253.496 61.9761ZM257.335 61.1513C257.846 61.0415 258.192 60.6981 258.313 60.2526L258.327 60.2497L258.455 60.8479L259.157 60.6971L258.121 55.875L257.396 56.0307L257.802 57.9222L257.789 57.925C257.508 57.5797 257.053 57.4119 256.548 57.5203C255.666 57.7098 255.229 58.5412 255.468 59.6507C255.706 60.7601 256.446 61.3423 257.335 61.1513ZM256.876 58.0861C257.431 57.967 257.904 58.3652 258.061 59.0937C258.219 59.8289 257.949 60.3797 257.394 60.4989C256.823 60.6216 256.366 60.2339 256.206 59.4921C256.048 58.7535 256.305 58.2089 256.876 58.0861ZM260.566 55.8463L260.744 56.6784L260.233 56.7883L260.356 57.3597L260.867 57.2499L261.301 59.2683C261.446 59.9467 261.782 60.1578 262.494 60.0049C262.654 59.9704 262.812 59.9226 262.887 59.8853L262.765 59.3139C262.72 59.334 262.605 59.3658 262.531 59.3816C262.237 59.4447 262.074 59.3364 262.009 59.0323L261.592 57.0941L262.261 56.9506L262.138 56.3791L261.47 56.5227L261.291 55.6906L260.566 55.8463ZM263.515 59.7611L264.236 59.6061L263.8 57.5743C263.681 57.0196 263.929 56.5816 264.464 56.4668C264.972 56.3577 265.299 56.6125 265.411 57.1305L265.867 59.2558L266.592 59.1001L266.106 56.8344C265.935 56.039 265.363 55.6234 264.591 55.7892C264.056 55.9041 263.723 56.2239 263.618 56.6766L263.601 56.6802L263.194 54.7854L262.479 54.939L263.515 59.7611ZM268.117 55.6367C268.622 55.5283 269.044 55.8327 269.176 56.3671L267.418 56.7447C267.341 56.2054 267.613 55.7451 268.117 55.6367ZM269.398 57.4172C269.367 57.7454 269.108 58.0179 268.697 58.1062C268.118 58.2304 267.664 57.905 267.533 57.2934L267.523 57.25L270.006 56.7167L269.953 56.4694C269.724 55.4034 268.968 54.8456 267.992 55.0552C267 55.2684 266.523 56.14 266.76 57.2427C266.998 58.3522 267.773 58.9164 268.806 58.6946C269.611 58.5216 270.121 57.9332 270.083 57.27L269.398 57.4172ZM270.302 55.6674C270.407 56.1586 270.799 56.4205 271.467 56.4379L272.128 56.4567C272.516 56.4713 272.676 56.5662 272.724 56.7901C272.785 57.0741 272.557 57.312 272.122 57.4053C271.681 57.5001 271.38 57.3689 271.251 57.0436L270.536 57.1972C270.731 57.83 271.375 58.1426 272.207 57.9639C273.07 57.7787 273.573 57.2091 273.435 56.5675C273.324 56.0495 272.999 55.8396 272.254 55.8214L271.633 55.8114C271.25 55.7994 271.044 55.6897 270.998 55.4725C270.938 55.1951 271.158 54.9486 271.549 54.8647C271.953 54.7778 272.253 54.9197 272.354 55.23L273.033 55.0843C272.875 54.4644 272.233 54.1443 271.451 54.3123C270.629 54.4889 270.167 55.0391 270.302 55.6674ZM275.041 54.1494C275.546 54.041 275.968 54.3455 276.1 54.8799L274.342 55.2574C274.265 54.7182 274.537 54.2578 275.041 54.1494ZM276.322 55.9299C276.291 56.2582 276.032 56.5307 275.621 56.619C275.043 56.7431 274.588 56.4177 274.457 55.8062L274.447 55.7628L276.93 55.2294L276.877 54.9822C276.648 53.9161 275.892 53.3584 274.916 53.568C273.924 53.7811 273.447 54.6527 273.684 55.7555C273.922 56.865 274.697 57.4292 275.73 57.2074C276.535 57.0344 277.045 56.4459 277.007 55.7828L276.322 55.9299ZM278.616 53.8815C278.722 54.3728 279.113 54.6347 279.781 54.652L280.443 54.6708C280.83 54.6854 280.991 54.7804 281.039 55.0043C281.1 55.2883 280.871 55.5262 280.437 55.6195C279.996 55.7142 279.695 55.5831 279.565 55.2578L278.85 55.4114C279.046 56.0441 279.69 56.3568 280.522 56.1781C281.384 55.9929 281.887 55.4233 281.749 54.7817C281.638 54.2637 281.313 54.0538 280.568 54.0355L279.947 54.0256C279.564 54.0136 279.359 53.9038 279.312 53.6866C279.252 53.4093 279.472 53.1628 279.863 53.0788C280.267 52.992 280.567 53.1339 280.669 53.4442L281.347 53.2984C281.189 52.6786 280.547 52.3585 279.765 52.5265C278.943 52.703 278.481 53.2533 278.616 53.8815ZM284.054 55.4194C285.06 55.2033 285.573 54.3695 285.33 53.2366C285.087 52.1071 284.273 51.5582 283.271 51.7735C282.268 51.9889 281.752 52.8234 281.994 53.9529C282.238 55.0858 283.048 55.6354 284.054 55.4194ZM283.926 54.8245C283.361 54.9458 282.898 54.577 282.73 53.795C282.562 53.0164 282.834 52.4897 283.399 52.3684C283.963 52.247 284.427 52.6159 284.594 53.3945C284.762 54.1765 284.494 54.7025 283.926 54.8245ZM286.265 54.8745L286.987 54.7195L286.547 52.671C286.43 52.1263 286.68 51.695 287.188 51.5859C287.689 51.4782 287.999 51.7158 288.112 52.2438L288.571 54.3792L289.296 54.2235L288.807 51.9477C288.634 51.1424 288.084 50.7433 287.308 50.9098C286.767 51.0261 286.446 51.3537 286.342 51.7957L286.325 51.7993L286.198 51.2111L285.51 51.359L286.265 54.8745ZM291.366 53.1671C290.811 53.2862 290.354 52.916 290.196 52.1808C290.039 51.4489 290.3 50.9069 290.855 50.7878C291.42 50.6664 291.893 51.0613 292.048 51.7831C292.203 52.5083 291.931 53.0458 291.366 53.1671ZM291.783 55.0738C292.785 54.8585 293.316 54.1712 293.136 53.3324L292.394 49.8803L291.692 50.0311L291.822 50.6326L291.808 50.6355C291.507 50.2737 291.045 50.1106 290.547 50.2176C289.645 50.4114 289.22 51.2299 289.457 52.3361C289.693 53.4322 290.419 53.9964 291.301 53.8069C291.802 53.6992 292.163 53.3596 292.278 52.9363L292.291 52.9334L292.415 53.5115C292.519 53.9927 292.254 54.3853 291.689 54.5066C291.278 54.5949 290.915 54.47 290.749 54.1982L290.023 54.3539C290.244 54.9428 290.954 55.2518 291.783 55.0738ZM293.26 50.7362C293.365 51.2275 293.757 51.4894 294.425 51.5067L295.086 51.5255C295.474 51.5401 295.634 51.6351 295.682 51.8589C295.743 52.143 295.515 52.3809 295.08 52.4742C294.639 52.5689 294.338 52.4378 294.209 52.1125L293.494 52.2661C293.689 52.8988 294.333 53.2115 295.165 53.0328C296.027 52.8476 296.531 52.278 296.393 51.6364C296.282 51.1184 295.957 50.9085 295.212 50.8902L294.591 50.8802C294.207 50.8683 294.002 50.7585 293.955 50.5413C293.896 50.264 294.116 50.0175 294.507 49.9335C294.911 49.8467 295.211 49.9886 295.312 50.2988L295.991 50.1531C295.833 49.5333 295.191 49.2132 294.409 49.3812C293.587 49.5577 293.125 50.108 293.26 50.7362ZM298.773 52.1878L299.499 52.0321L298.866 49.088L299.568 48.9373L299.447 48.3725L298.735 48.5254L298.664 48.1946C298.597 47.8838 298.71 47.6951 299.024 47.6277C299.121 47.6069 299.22 47.5927 299.293 47.591L299.178 47.0563C299.081 47.0597 298.913 47.0782 298.766 47.1098C298.051 47.2634 297.799 47.6531 297.946 48.3348L298.02 48.679L297.535 48.7831L297.656 49.3478L298.141 49.2438L298.773 52.1878ZM302.146 51.5333C303.152 51.3173 303.665 50.4834 303.422 49.3505C303.179 48.221 302.366 47.6721 301.363 47.8875C300.361 48.1028 299.844 48.9374 300.087 50.0669C300.33 51.1997 301.14 51.7494 302.146 51.5333ZM302.018 50.9385C301.454 51.0598 300.99 50.6909 300.822 49.909C300.655 49.1303 300.926 48.6036 301.491 48.4823C302.056 48.361 302.519 48.7298 302.687 49.5085C302.855 50.2904 302.587 50.8165 302.018 50.9385ZM304.357 50.9884L305.079 50.8334L304.627 48.7281C304.52 48.2302 304.741 47.8577 305.205 47.7579C305.346 47.7277 305.476 47.7172 305.538 47.7284L305.394 47.0567C305.338 47.0581 305.244 47.0608 305.141 47.0831C304.726 47.1721 304.465 47.4835 304.436 47.9196L304.419 47.9232L304.291 47.325L303.602 47.4729L304.357 50.9884ZM309.518 49.9499C310.524 49.7338 311.037 48.9 310.794 47.7671C310.551 46.6376 309.738 46.0887 308.735 46.304C307.732 46.5194 307.216 47.354 307.459 48.4835C307.702 49.6163 308.512 50.1659 309.518 49.9499ZM309.39 49.3551C308.826 49.4764 308.362 49.1075 308.194 48.3256C308.027 47.5469 308.298 47.0202 308.863 46.8989C309.428 46.7776 309.891 47.1464 310.059 47.925C310.226 48.707 309.958 49.233 309.39 49.3551ZM311.94 49.3598L312.665 49.204L312.033 46.26L312.734 46.1092L312.613 45.5445L311.901 45.6973L311.83 45.3665C311.764 45.0557 311.877 44.8671 312.191 44.7996C312.288 44.7788 312.386 44.7647 312.459 44.763L312.344 44.2283C312.247 44.2317 312.08 44.2501 311.933 44.2817C311.218 44.4353 310.966 44.825 311.112 45.5068L311.186 45.851L310.702 45.955L310.823 46.5198L311.308 46.4157L311.94 49.3598ZM314.145 48.8861L314.871 48.7303L314.238 45.7862L314.94 45.6355L314.819 45.0707L314.107 45.2236L314.036 44.8928C313.969 44.582 314.082 44.3934 314.396 44.3259C314.493 44.3051 314.592 44.2909 314.665 44.2892L314.55 43.7545C314.453 43.7579 314.285 43.7764 314.138 43.808C313.423 43.9616 313.171 44.3513 313.318 45.033L313.392 45.3772L312.907 45.4813L313.029 46.0461L313.513 45.942L314.145 48.8861ZM316.167 48.4518L316.889 48.2968L315.853 43.4746L315.131 43.6297L316.167 48.4518ZM317.654 48.1324L318.376 47.9773L317.621 44.4618L316.899 44.6169L317.654 48.1324ZM317.15 44.0247C317.383 43.9745 317.531 43.7505 317.482 43.5232C317.433 43.2927 317.206 43.1491 316.972 43.1993C316.742 43.2488 316.594 43.4728 316.644 43.7034C316.692 43.9306 316.919 44.0742 317.15 44.0247ZM319.115 47.8187L319.836 47.6637L319.396 45.6152C319.279 45.0705 319.529 44.6392 320.037 44.5301C320.539 44.4225 320.848 44.6601 320.962 45.1881L321.42 47.3235L322.146 47.1677L321.657 44.892C321.484 44.0866 320.933 43.6875 320.158 43.854C319.616 43.9703 319.295 44.298 319.191 44.7399L319.174 44.7435L319.048 44.1553L318.36 44.3032L319.115 47.8187ZM323.671 43.7043C324.175 43.5959 324.597 43.9003 324.729 44.4348L322.972 44.8123C322.894 44.2731 323.166 43.8127 323.671 43.7043ZM324.951 45.4848C324.921 45.813 324.661 46.0855 324.25 46.1738C323.672 46.298 323.217 45.9726 323.086 45.3611L323.077 45.3176L325.56 44.7843L325.506 44.537C325.277 43.471 324.521 42.9132 323.546 43.1228C322.553 43.336 322.076 44.2076 322.313 45.3104C322.551 46.4198 323.326 46.984 324.359 46.7622C325.164 46.5892 325.674 46.0008 325.636 45.3376L324.951 45.4848ZM328.914 41.9768C328.406 42.0859 328.057 42.43 327.937 42.8789L327.923 42.8818L327.793 42.2769L327.095 42.4269L328.1 47.1054L328.822 46.9503L328.448 45.2093L328.464 45.2057C328.749 45.5536 329.203 45.7148 329.708 45.6064C330.59 45.4169 331.023 44.5862 330.784 43.4734C330.545 42.3606 329.806 41.7851 328.914 41.9768ZM329.372 45.0386C328.818 45.1578 328.348 44.7622 328.191 44.0304C328.035 43.3052 328.303 42.7443 328.854 42.6259C329.426 42.5031 329.884 42.8975 330.042 43.6327C330.201 44.3712 329.944 44.9159 329.372 45.0386ZM331.746 45.1055L332.468 44.9505L331.432 40.1283L330.711 40.2834L331.746 45.1055ZM334.33 44.0157C333.942 44.099 333.645 43.953 333.579 43.6456C333.515 43.3448 333.718 43.1019 334.142 42.9793L334.996 42.7399L335.056 43.0172C335.154 43.4751 334.835 43.9073 334.33 44.0157ZM334.252 44.6302C334.713 44.5311 335.105 44.1884 335.225 43.7536L335.241 43.75L335.366 44.3282L336.057 44.1796L335.537 41.7568C335.385 41.0517 334.744 40.7176 333.892 40.9006C333.023 41.0872 332.582 41.6713 332.678 42.3149L333.36 42.1685C333.356 41.8407 333.574 41.5842 333.991 41.4945C334.432 41.3997 334.747 41.577 334.831 41.9679L334.889 42.2386L333.939 42.5022C333.113 42.7284 332.723 43.2072 332.855 43.8221C332.991 44.4537 333.564 44.7781 334.252 44.6302ZM337.388 45.2642C338.12 45.107 338.405 44.759 338.523 43.8423L339.048 39.8594L338.286 40.0231L338.009 43.0753L337.999 43.0774L336.492 40.4085L335.71 40.5765L337.736 43.8226C337.736 43.8259 337.717 44.0468 337.719 44.0534C337.686 44.438 337.539 44.6164 337.201 44.6889C337.141 44.7019 337.021 44.7277 336.965 44.7258L337.09 45.3106C337.146 45.3092 337.331 45.2764 337.388 45.2642ZM339.296 39.7922L339.988 39.6436C339.923 39.1961 340.161 38.8548 340.622 38.7558C341.08 38.6574 341.437 38.8709 341.518 39.2485C341.592 39.5927 341.49 39.8174 341.138 40.1482C340.739 40.5206 340.6 40.8651 340.718 41.3327L340.778 41.5993L341.47 41.4508L341.426 41.2469C341.352 40.9027 341.438 40.699 341.815 40.3525C342.199 39.9937 342.381 39.5735 342.27 39.0555C342.117 38.3404 341.409 37.9435 340.527 38.133C339.558 38.3411 339.163 39.0272 339.296 39.7922ZM341.462 43.0712C341.712 43.0174 341.863 42.7893 341.81 42.5454C341.758 42.3014 341.527 42.1552 341.276 42.209C341.033 42.2614 340.879 42.4902 340.931 42.7341C340.984 42.9781 341.218 43.1236 341.462 43.0712Z" fill="#C4C4C4"/>
<rect x="215.771" y="115.841" width="163.918" height="28.5037" rx="10" transform="rotate(-12.1225 215.771 115.841)" fill="#2C2B2B"/>
<path d="M246.648 85.4585L248.423 93.725L251.58 93.047C254.06 92.5142 255.19 90.6594 254.627 88.0357C254.063 85.4119 252.285 84.2477 249.804 84.7805L246.648 85.4585ZM248.684 86.5133L249.904 86.2512C251.428 85.9239 252.492 86.6903 252.863 88.4204C253.247 90.2078 252.613 91.3269 251.066 91.6591L249.846 91.9212L248.684 86.5133ZM259.342 91.5176C261.198 91.119 262.129 89.6784 261.695 87.6562C261.266 85.6626 259.805 84.7179 257.966 85.1129C256.127 85.5079 255.184 86.9751 255.611 88.9629C256.044 90.9794 257.486 91.9163 259.342 91.5176ZM259.067 90.2401C258.242 90.4173 257.572 89.8361 257.308 88.6044C257.046 87.3842 257.427 86.5652 258.241 86.3904C259.054 86.2157 259.732 86.8071 259.994 88.0274C260.259 89.259 259.887 90.0642 259.067 90.2401ZM270.46 82.5672L268.81 82.9215L268.855 87.6764L268.82 87.6838L266.748 83.3645L265.144 83.7091L265.034 88.4972L264.999 88.5046L263.093 84.1496L261.409 84.5113L264.361 90.3018L266.119 89.9241L266.292 85.3442L266.327 85.3368L268.371 89.4405L270.152 89.0578L270.46 82.5672ZM272.432 88.5681L274.105 88.2088L273.348 84.6856C273.177 83.8893 273.535 83.2372 274.285 83.076C275.036 82.9149 275.512 83.2919 275.684 84.094L276.46 87.7031L278.132 87.3438L277.282 83.3852C276.973 81.9473 276.021 81.2529 274.658 81.5457C273.712 81.7488 273.161 82.3346 272.998 83.1667L272.964 83.1741L272.729 82.0799L271.113 82.4269L272.432 88.5681ZM279.232 87.1075L280.905 86.7482L279.129 78.4817L277.457 78.841L279.232 87.1075ZM284.88 86.0322C286.737 85.6335 287.668 84.1929 287.233 82.1707C286.805 80.1771 285.344 79.2325 283.505 79.6275C281.666 80.0224 280.722 81.4896 281.149 83.4775C281.583 85.494 283.024 86.4308 284.88 86.0322ZM284.606 84.7547C283.781 84.9318 283.111 84.3506 282.846 83.119C282.584 81.8988 282.966 81.0797 283.779 80.905C284.593 80.7302 285.271 81.3217 285.533 82.5419C285.798 83.7735 285.425 84.5787 284.606 84.7547ZM290.892 83.4404C290.325 83.5622 289.885 83.357 289.787 82.8987C289.693 82.4633 289.988 82.1063 290.603 81.9264L291.88 81.5681L291.976 82.0149C292.119 82.6795 291.62 83.2842 290.892 83.4404ZM290.602 84.7673C291.369 84.6024 292.049 84.0549 292.252 83.328L292.287 83.3207L292.489 84.2602L294.104 83.9132L293.197 79.6911C292.931 78.4537 291.731 77.8605 290.156 78.1989C288.529 78.5483 287.691 79.5853 287.884 80.7904L289.413 80.4619C289.396 79.9921 289.725 79.5978 290.35 79.4637C290.98 79.3284 291.452 79.5745 291.575 80.1474L291.663 80.5541L290.135 80.978C288.626 81.3982 287.905 82.2301 288.145 83.3472C288.383 84.4529 289.433 85.0183 290.602 84.7673ZM297.488 83.2883C298.393 83.0939 299.001 82.4658 299.154 81.7258L299.182 81.7197L299.409 82.7738L301.059 82.4194L299.283 74.1528L297.61 74.5121L298.293 77.6916L298.259 77.699C297.815 77.0812 297.026 76.7591 296.138 76.9499C294.597 77.2808 293.883 78.6988 294.301 80.6466C294.723 82.6115 295.952 83.618 297.488 83.2883ZM296.982 78.171C297.813 77.9926 298.498 78.5885 298.738 79.7056C298.979 80.8284 298.596 81.6418 297.766 81.8202C296.924 82.0011 296.259 81.4187 296.017 80.2901C295.775 79.1673 296.14 78.3519 296.982 78.171ZM303.83 79.361C304.215 80.9024 305.684 81.5757 307.672 81.1488C309.723 80.7083 310.805 79.415 310.461 77.8109C310.19 76.5506 309.316 75.9953 307.584 75.9957L306.536 75.9991C305.538 75.9856 305.075 75.7853 304.966 75.2755C304.834 74.6625 305.32 74.1327 306.173 73.9494C307.038 73.7636 307.742 74.0558 307.95 74.7424L309.571 74.3942C309.221 72.9052 307.8 72.1737 305.875 72.5872C304.03 72.9834 302.929 74.2747 303.256 75.7985C303.516 77.0073 304.433 77.6194 306.027 77.6187L307.154 77.6222C308.199 77.6315 308.658 77.8445 308.774 78.383C308.904 78.9903 308.369 79.5667 307.446 79.7648C306.53 79.9617 305.723 79.6675 305.497 79.003L303.83 79.361ZM314.761 79.614C316.618 79.2153 317.549 77.7747 317.114 75.7525C316.686 73.7589 315.225 72.8143 313.386 73.2093C311.547 73.6043 310.603 75.0714 311.03 77.0593C311.464 79.0758 312.905 80.0127 314.761 79.614ZM314.487 78.3365C313.662 78.5137 312.992 77.9325 312.727 76.7008C312.465 75.4806 312.847 74.6615 313.66 74.4868C314.474 74.312 315.152 74.9035 315.414 76.1237C315.679 77.3554 315.306 78.1605 314.487 78.3365ZM318.64 78.643L320.313 78.2837L319.556 74.7606C319.385 73.9643 319.742 73.3122 320.493 73.151C321.243 72.9898 321.72 73.3669 321.892 74.1689L322.667 77.778L324.34 77.4187L323.49 73.4602C323.181 72.0223 322.229 71.3278 320.865 71.6207C319.92 71.8237 319.369 72.4096 319.206 73.2417L319.172 73.249L318.937 72.1549L317.321 72.5018L318.64 78.643ZM327.955 75.2758C327.124 75.4542 326.469 74.9119 326.227 73.7891C325.988 72.672 326.359 71.8611 327.184 71.6839C328.02 71.5043 328.705 72.1002 328.943 73.2058C329.182 74.3172 328.792 75.0962 327.955 75.2758ZM328.704 78.9025C330.543 78.5075 331.568 77.3104 331.253 75.8439L329.953 69.7886L328.303 70.143L328.533 71.2143L328.504 71.2204C328.032 70.5847 327.239 70.2696 326.357 70.4591C324.799 70.7938 324.094 72.1978 324.512 74.1455C324.924 76.0647 326.164 77.009 327.665 76.6866C328.553 76.4959 329.179 75.894 329.325 75.1794L329.359 75.172L329.591 76.249C329.743 76.9594 329.365 77.544 328.5 77.7298C327.864 77.8663 327.32 77.6775 327.098 77.2819L325.459 77.6338C325.826 78.6997 327.089 79.2495 328.704 78.9025ZM331.332 71.3803C331.526 72.2854 332.252 72.7647 333.472 72.7785L334.66 72.7869C335.238 72.8005 335.482 72.9281 335.548 73.2374C335.634 73.6384 335.304 73.973 334.669 74.1095C334.004 74.2523 333.533 74.0417 333.342 73.5434L331.71 73.8941C332.058 75.0717 333.237 75.6457 334.875 75.2938C336.496 74.9455 337.437 73.9105 337.177 72.7018C336.98 71.7852 336.377 71.4053 335.086 71.3949L333.858 71.3951C333.292 71.3847 332.984 71.2351 332.919 70.9314C332.834 70.5361 333.156 70.1914 333.734 70.0671C334.353 69.9342 334.814 70.153 334.954 70.6383L336.495 70.3073C336.216 69.1206 335.046 68.5568 333.505 68.8878C331.93 69.2262 331.081 70.2117 331.332 71.3803Z" fill="#F23048"/>
<path d="M285.353 119.137C287.381 118.701 288.545 117.229 288.344 115.342L286.66 115.704C286.687 116.723 286.077 117.483 285.051 117.703C283.728 117.988 282.664 117.077 282.285 115.313C281.911 113.571 282.518 112.296 283.824 112.016C284.832 111.799 285.754 112.297 286.132 113.276L287.816 112.914C287.287 111.092 285.504 110.157 283.516 110.584C281.122 111.098 279.949 113.034 280.521 115.698C281.095 118.367 282.947 119.653 285.353 119.137ZM291.987 116.399C291.42 116.521 290.98 116.316 290.882 115.858C290.788 115.422 291.083 115.065 291.698 114.885L292.975 114.527L293.071 114.974C293.214 115.638 292.714 116.243 291.987 116.399ZM291.697 117.726C292.464 117.561 293.144 117.014 293.347 116.287L293.382 116.28L293.583 117.219L295.199 116.872L294.292 112.65C294.026 111.413 292.826 110.819 291.251 111.158C289.624 111.507 288.786 112.544 288.979 113.749L290.508 113.421C290.491 112.951 290.82 112.557 291.444 112.423C292.075 112.287 292.547 112.533 292.67 113.106L292.757 113.513L291.23 113.937C289.72 114.357 289 115.189 289.24 116.306C289.478 117.412 290.528 117.977 291.697 117.726ZM296.282 116.64L297.954 116.28L297.198 112.757C297.027 111.961 297.384 111.309 298.134 111.148C298.885 110.986 299.361 111.363 299.534 112.165L300.309 115.775L301.982 115.415L301.131 111.457C300.823 110.019 299.87 109.324 298.507 109.617C297.562 109.82 297.01 110.406 296.847 111.238L296.813 111.246L296.578 110.151L294.962 110.498L296.282 116.64ZM307.793 110.134C307.42 108.758 306.145 107.959 304.484 108.315C302.645 108.71 301.734 110.189 302.157 112.159C302.588 114.164 304.021 115.115 305.871 114.718C307.487 114.371 308.369 113.204 308.143 111.736L306.585 112.071C306.626 112.764 306.277 113.258 305.606 113.402C304.776 113.58 304.113 113.004 303.853 111.795C303.598 110.609 303.964 109.8 304.789 109.622C305.476 109.475 306.004 109.841 306.241 110.467L307.793 110.134ZM311.109 108.187C311.853 108.027 312.479 108.456 312.682 109.233L310.075 109.793C309.968 109.013 310.375 108.344 311.109 108.187ZM313.098 111.062C313.045 111.565 312.64 111.969 312.027 112.101C311.174 112.284 310.489 111.802 310.3 110.926L310.278 110.822L314.512 109.913L314.402 109.403C314.001 107.536 312.613 106.569 310.826 106.953C309.01 107.343 308.137 108.861 308.558 110.82C308.98 112.785 310.374 113.75 312.264 113.344C313.782 113.018 314.709 111.974 314.634 110.732L313.098 111.062ZM315.994 112.405L317.667 112.046L315.891 103.78L314.218 104.139L315.994 112.405Z" fill="#F23048"/>
<path d="M208.837 83.5499L369.1 49.1268" stroke="#757575"/>
<path d="M33.834 44.354L32.976 47.474L32.69 46.304C33.0627 46.304 33.366 46.4123 33.6 46.629C33.834 46.8457 33.951 47.1447 33.951 47.526C33.951 47.8987 33.8297 48.202 33.587 48.436C33.353 48.6613 33.0583 48.774 32.703 48.774C32.339 48.774 32.0357 48.6613 31.793 48.436C31.559 48.202 31.442 47.8987 31.442 47.526C31.442 47.4133 31.4507 47.305 31.468 47.201C31.4853 47.0883 31.52 46.9583 31.572 46.811C31.624 46.6637 31.6977 46.4687 31.793 46.226L32.547 44.354H33.834ZM35.4813 54V44.9H39.6153C40.6033 44.9 41.4743 45.0907 42.2283 45.472C42.9823 45.8447 43.5717 46.369 43.9963 47.045C44.421 47.721 44.6333 48.5227 44.6333 49.45C44.6333 50.3687 44.421 51.1703 43.9963 51.855C43.5717 52.531 42.9823 53.0597 42.2283 53.441C41.4743 53.8137 40.6033 54 39.6153 54H35.4813ZM37.5873 52.271H39.5113C40.118 52.271 40.6423 52.1583 41.0843 51.933C41.535 51.699 41.8817 51.3697 42.1243 50.945C42.3757 50.5203 42.5013 50.022 42.5013 49.45C42.5013 48.8693 42.3757 48.371 42.1243 47.955C41.8817 47.5303 41.535 47.2053 41.0843 46.98C40.6423 46.746 40.118 46.629 39.5113 46.629H37.5873V52.271ZM49.4066 54.104C48.6612 54.104 47.9982 53.948 47.4176 53.636C46.8456 53.324 46.3906 52.8993 46.0526 52.362C45.7232 51.816 45.5586 51.1963 45.5586 50.503C45.5586 49.801 45.7232 49.1813 46.0526 48.644C46.3906 48.098 46.8456 47.6733 47.4176 47.37C47.9982 47.058 48.6612 46.902 49.4066 46.902C50.1432 46.902 50.8019 47.058 51.3826 47.37C51.9632 47.6733 52.4182 48.0937 52.7476 48.631C53.0769 49.1683 53.2416 49.7923 53.2416 50.503C53.2416 51.1963 53.0769 51.816 52.7476 52.362C52.4182 52.8993 51.9632 53.324 51.3826 53.636C50.8019 53.948 50.1432 54.104 49.4066 54.104ZM49.4066 52.44C49.7446 52.44 50.0479 52.362 50.3166 52.206C50.5852 52.05 50.7976 51.829 50.9536 51.543C51.1096 51.2483 51.1876 50.9017 51.1876 50.503C51.1876 50.0957 51.1096 49.749 50.9536 49.463C50.7976 49.177 50.5852 48.956 50.3166 48.8C50.0479 48.644 49.7446 48.566 49.4066 48.566C49.0686 48.566 48.7652 48.644 48.4966 48.8C48.2279 48.956 48.0112 49.177 47.8466 49.463C47.6906 49.749 47.6126 50.0957 47.6126 50.503C47.6126 50.9017 47.6906 51.2483 47.8466 51.543C48.0112 51.829 48.2279 52.05 48.4966 52.206C48.7652 52.362 49.0686 52.44 49.4066 52.44ZM56.0057 54L53.4837 47.006H55.3947L57.4877 53.025H56.5777L58.7617 47.006H60.4777L62.5967 53.025H61.6867L63.8447 47.006H65.6387L63.1037 54H61.1407L59.2817 48.839H59.8797L57.9557 54H56.0057ZM70.8325 46.902C71.3872 46.902 71.8812 47.0147 72.3145 47.24C72.7565 47.4567 73.1032 47.7947 73.3545 48.254C73.6058 48.7047 73.7315 49.2853 73.7315 49.996V54H71.7035V50.308C71.7035 49.7447 71.5778 49.3287 71.3265 49.06C71.0838 48.7913 70.7372 48.657 70.2865 48.657C69.9658 48.657 69.6755 48.7263 69.4155 48.865C69.1642 48.995 68.9648 49.1987 68.8175 49.476C68.6788 49.7533 68.6095 50.1087 68.6095 50.542V54H66.5815V47.006H68.5185V48.943L68.1545 48.358C68.4058 47.89 68.7655 47.5303 69.2335 47.279C69.7015 47.0277 70.2345 46.902 70.8325 46.902ZM75.5698 54V44.354H77.5978V54H75.5698ZM82.8079 54.104C82.0626 54.104 81.3996 53.948 80.8189 53.636C80.2469 53.324 79.7919 52.8993 79.4539 52.362C79.1246 51.816 78.9599 51.1963 78.9599 50.503C78.9599 49.801 79.1246 49.1813 79.4539 48.644C79.7919 48.098 80.2469 47.6733 80.8189 47.37C81.3996 47.058 82.0626 46.902 82.8079 46.902C83.5446 46.902 84.2033 47.058 84.7839 47.37C85.3646 47.6733 85.8196 48.0937 86.1489 48.631C86.4783 49.1683 86.6429 49.7923 86.6429 50.503C86.6429 51.1963 86.4783 51.816 86.1489 52.362C85.8196 52.8993 85.3646 53.324 84.7839 53.636C84.2033 53.948 83.5446 54.104 82.8079 54.104ZM82.8079 52.44C83.1459 52.44 83.4493 52.362 83.7179 52.206C83.9866 52.05 84.1989 51.829 84.3549 51.543C84.5109 51.2483 84.5889 50.9017 84.5889 50.503C84.5889 50.0957 84.5109 49.749 84.3549 49.463C84.1989 49.177 83.9866 48.956 83.7179 48.8C83.4493 48.644 83.1459 48.566 82.8079 48.566C82.4699 48.566 82.1666 48.644 81.8979 48.8C81.6293 48.956 81.4126 49.177 81.2479 49.463C81.0919 49.749 81.0139 50.0957 81.0139 50.503C81.0139 50.9017 81.0919 51.2483 81.2479 51.543C81.4126 51.829 81.6293 52.05 81.8979 52.206C82.1666 52.362 82.4699 52.44 82.8079 52.44ZM92.1742 54V52.635L92.0442 52.336V49.892C92.0442 49.4587 91.9099 49.1207 91.6412 48.878C91.3812 48.6353 90.9782 48.514 90.4322 48.514C90.0596 48.514 89.6912 48.5747 89.3272 48.696C88.9719 48.8087 88.6686 48.9647 88.4172 49.164L87.6892 47.747C88.0706 47.4783 88.5299 47.2703 89.0672 47.123C89.6046 46.9757 90.1506 46.902 90.7052 46.902C91.7712 46.902 92.5989 47.1533 93.1882 47.656C93.7776 48.1587 94.0722 48.943 94.0722 50.009V54H92.1742ZM90.0422 54.104C89.4962 54.104 89.0282 54.013 88.6382 53.831C88.2482 53.6403 87.9492 53.3847 87.7412 53.064C87.5332 52.7433 87.4292 52.3837 87.4292 51.985C87.4292 51.569 87.5289 51.205 87.7282 50.893C87.9362 50.581 88.2612 50.3383 88.7032 50.165C89.1452 49.983 89.7216 49.892 90.4322 49.892H92.2912V51.075H90.6532C90.1766 51.075 89.8472 51.153 89.6652 51.309C89.4919 51.465 89.4052 51.66 89.4052 51.894C89.4052 52.154 89.5049 52.362 89.7042 52.518C89.9122 52.6653 90.1939 52.739 90.5492 52.739C90.8872 52.739 91.1906 52.661 91.4592 52.505C91.7279 52.3403 91.9229 52.102 92.0442 51.79L92.3562 52.726C92.2089 53.1767 91.9402 53.519 91.5502 53.753C91.1602 53.987 90.6576 54.104 90.0422 54.104ZM98.9615 54.104C98.3028 54.104 97.7091 53.9567 97.1805 53.662C96.6518 53.3587 96.2315 52.9383 95.9195 52.401C95.6161 51.8637 95.4645 51.231 95.4645 50.503C95.4645 49.7663 95.6161 49.1293 95.9195 48.592C96.2315 48.0547 96.6518 47.6387 97.1805 47.344C97.7091 47.0493 98.3028 46.902 98.9615 46.902C99.5508 46.902 100.066 47.032 100.508 47.292C100.95 47.552 101.293 47.9463 101.535 48.475C101.778 49.0037 101.899 49.6797 101.899 50.503C101.899 51.3177 101.782 51.9937 101.548 52.531C101.314 53.0597 100.976 53.454 100.534 53.714C100.101 53.974 99.5768 54.104 98.9615 54.104ZM99.3125 52.44C99.6418 52.44 99.9408 52.362 100.209 52.206C100.478 52.05 100.69 51.829 100.846 51.543C101.011 51.2483 101.093 50.9017 101.093 50.503C101.093 50.0957 101.011 49.749 100.846 49.463C100.69 49.177 100.478 48.956 100.209 48.8C99.9408 48.644 99.6418 48.566 99.3125 48.566C98.9745 48.566 98.6711 48.644 98.4025 48.8C98.1338 48.956 97.9171 49.177 97.7525 49.463C97.5965 49.749 97.5185 50.0957 97.5185 50.503C97.5185 50.9017 97.5965 51.2483 97.7525 51.543C97.9171 51.829 98.1338 52.05 98.4025 52.206C98.6711 52.362 98.9745 52.44 99.3125 52.44ZM101.145 54V52.57L101.184 50.49L101.054 48.423V44.354H103.082V54H101.145ZM104.608 48.67L105.466 45.55L105.752 46.733C105.38 46.733 105.072 46.6247 104.829 46.408C104.595 46.1827 104.478 45.8793 104.478 45.498C104.478 45.1253 104.6 44.8263 104.842 44.601C105.085 44.367 105.384 44.25 105.739 44.25C106.103 44.25 106.402 44.367 106.636 44.601C106.87 44.8263 106.987 45.1253 106.987 45.498C106.987 45.6107 106.979 45.7233 106.961 45.836C106.953 45.94 106.922 46.0657 106.87 46.213C106.827 46.3603 106.753 46.5553 106.649 46.798L105.895 48.67H104.608ZM107.676 48.67L108.534 45.55L108.82 46.733C108.448 46.733 108.14 46.6247 107.897 46.408C107.663 46.1827 107.546 45.8793 107.546 45.498C107.546 45.1253 107.668 44.8263 107.91 44.601C108.153 44.367 108.452 44.25 108.807 44.25C109.171 44.25 109.47 44.367 109.704 44.601C109.938 44.8263 110.055 45.1253 110.055 45.498C110.055 45.6107 110.047 45.7233 110.029 45.836C110.021 45.94 109.99 46.0657 109.938 46.213C109.895 46.3603 109.821 46.5553 109.717 46.798L108.963 48.67H107.676ZM119.25 54.104C118.634 54.104 118.106 53.974 117.664 53.714C117.222 53.454 116.884 53.0597 116.65 52.531C116.416 51.9937 116.299 51.3177 116.299 50.503C116.299 49.6797 116.42 49.0037 116.663 48.475C116.914 47.9463 117.261 47.552 117.703 47.292C118.145 47.032 118.66 46.902 119.25 46.902C119.908 46.902 120.498 47.0493 121.018 47.344C121.546 47.6387 121.962 48.0547 122.266 48.592C122.578 49.1293 122.734 49.7663 122.734 50.503C122.734 51.231 122.578 51.8637 122.266 52.401C121.962 52.9383 121.546 53.3587 121.018 53.662C120.498 53.9567 119.908 54.104 119.25 54.104ZM115.116 54V44.354H117.144V48.423L117.014 50.49L117.053 52.57V54H115.116ZM118.899 52.44C119.237 52.44 119.536 52.362 119.796 52.206C120.064 52.05 120.277 51.829 120.433 51.543C120.597 51.2483 120.68 50.9017 120.68 50.503C120.68 50.0957 120.597 49.749 120.433 49.463C120.277 49.177 120.064 48.956 119.796 48.8C119.536 48.644 119.237 48.566 118.899 48.566C118.561 48.566 118.257 48.644 117.989 48.8C117.72 48.956 117.508 49.177 117.352 49.463C117.196 49.749 117.118 50.0957 117.118 50.503C117.118 50.9017 117.196 51.2483 117.352 51.543C117.508 51.829 117.72 52.05 117.989 52.206C118.257 52.362 118.561 52.44 118.899 52.44ZM127.042 54.104C126.462 54.104 125.942 53.9913 125.482 53.766C125.032 53.5407 124.681 53.1983 124.429 52.739C124.178 52.271 124.052 51.6773 124.052 50.958V47.006H126.08V50.659C126.08 51.2397 126.202 51.6687 126.444 51.946C126.696 52.2147 127.047 52.349 127.497 52.349C127.809 52.349 128.087 52.284 128.329 52.154C128.572 52.0153 128.763 51.8073 128.901 51.53C129.04 51.244 129.109 50.8887 129.109 50.464V47.006H131.137V54H129.213V52.076L129.564 52.635C129.33 53.1203 128.984 53.4887 128.524 53.74C128.074 53.9827 127.58 54.104 127.042 54.104ZM135.876 54.104C135.053 54.104 134.411 53.896 133.952 53.48C133.493 53.0553 133.263 52.427 133.263 51.595V45.459H135.291V51.569C135.291 51.8637 135.369 52.0933 135.525 52.258C135.681 52.414 135.893 52.492 136.162 52.492C136.483 52.492 136.756 52.4053 136.981 52.232L137.527 53.662C137.319 53.8093 137.068 53.922 136.773 54C136.487 54.0693 136.188 54.104 135.876 54.104ZM132.184 48.722V47.162H137.033V48.722H132.184ZM141.373 54.104C140.55 54.104 139.908 53.896 139.449 53.48C138.99 53.0553 138.76 52.427 138.76 51.595V45.459H140.788V51.569C140.788 51.8637 140.866 52.0933 141.022 52.258C141.178 52.414 141.39 52.492 141.659 52.492C141.98 52.492 142.253 52.4053 142.478 52.232L143.024 53.662C142.816 53.8093 142.565 53.922 142.27 54C141.984 54.0693 141.685 54.104 141.373 54.104ZM137.681 48.722V47.162H142.53V48.722H137.681ZM147.275 54.104C146.529 54.104 145.866 53.948 145.286 53.636C144.714 53.324 144.259 52.8993 143.921 52.362C143.591 51.816 143.427 51.1963 143.427 50.503C143.427 49.801 143.591 49.1813 143.921 48.644C144.259 48.098 144.714 47.6733 145.286 47.37C145.866 47.058 146.529 46.902 147.275 46.902C148.011 46.902 148.67 47.058 149.251 47.37C149.831 47.6733 150.286 48.0937 150.616 48.631C150.945 49.1683 151.11 49.7923 151.11 50.503C151.11 51.1963 150.945 51.816 150.616 52.362C150.286 52.8993 149.831 53.324 149.251 53.636C148.67 53.948 148.011 54.104 147.275 54.104ZM147.275 52.44C147.613 52.44 147.916 52.362 148.185 52.206C148.453 52.05 148.666 51.829 148.822 51.543C148.978 51.2483 149.056 50.9017 149.056 50.503C149.056 50.0957 148.978 49.749 148.822 49.463C148.666 49.177 148.453 48.956 148.185 48.8C147.916 48.644 147.613 48.566 147.275 48.566C146.937 48.566 146.633 48.644 146.365 48.8C146.096 48.956 145.879 49.177 145.715 49.463C145.559 49.749 145.481 50.0957 145.481 50.503C145.481 50.9017 145.559 51.2483 145.715 51.543C145.879 51.829 146.096 52.05 146.365 52.206C146.633 52.362 146.937 52.44 147.275 52.44ZM156.716 46.902C157.271 46.902 157.765 47.0147 158.198 47.24C158.64 47.4567 158.987 47.7947 159.238 48.254C159.49 48.7047 159.615 49.2853 159.615 49.996V54H157.587V50.308C157.587 49.7447 157.462 49.3287 157.21 49.06C156.968 48.7913 156.621 48.657 156.17 48.657C155.85 48.657 155.559 48.7263 155.299 48.865C155.048 48.995 154.849 49.1987 154.701 49.476C154.563 49.7533 154.493 50.1087 154.493 50.542V54H152.465V47.006H154.402V48.943L154.038 48.358C154.29 47.89 154.649 47.5303 155.117 47.279C155.585 47.0277 156.118 46.902 156.716 46.902ZM35.264 73.104C34.5187 73.104 33.8557 72.948 33.275 72.636C32.703 72.324 32.248 71.8993 31.91 71.362C31.5807 70.816 31.416 70.1963 31.416 69.503C31.416 68.801 31.5807 68.1813 31.91 67.644C32.248 67.098 32.703 66.6733 33.275 66.37C33.8557 66.058 34.5187 65.902 35.264 65.902C36.0007 65.902 36.6593 66.058 37.24 66.37C37.8207 66.6733 38.2757 67.0937 38.605 67.631C38.9343 68.1683 39.099 68.7923 39.099 69.503C39.099 70.1963 38.9343 70.816 38.605 71.362C38.2757 71.8993 37.8207 72.324 37.24 72.636C36.6593 72.948 36.0007 73.104 35.264 73.104ZM35.264 71.44C35.602 71.44 35.9053 71.362 36.174 71.206C36.4427 71.05 36.655 70.829 36.811 70.543C36.967 70.2483 37.045 69.9017 37.045 69.503C37.045 69.0957 36.967 68.749 36.811 68.463C36.655 68.177 36.4427 67.956 36.174 67.8C35.9053 67.644 35.602 67.566 35.264 67.566C34.926 67.566 34.6227 67.644 34.354 67.8C34.0853 67.956 33.8687 68.177 33.704 68.463C33.548 68.749 33.47 69.0957 33.47 69.503C33.47 69.9017 33.548 70.2483 33.704 70.543C33.8687 70.829 34.0853 71.05 34.354 71.206C34.6227 71.362 34.926 71.44 35.264 71.44ZM44.7056 65.902C45.2602 65.902 45.7542 66.0147 46.1876 66.24C46.6296 66.4567 46.9762 66.7947 47.2276 67.254C47.4789 67.7047 47.6046 68.2853 47.6046 68.996V73H45.5766V69.308C45.5766 68.7447 45.4509 68.3287 45.1996 68.06C44.9569 67.7913 44.6102 67.657 44.1596 67.657C43.8389 67.657 43.5486 67.7263 43.2886 67.865C43.0372 67.995 42.8379 68.1987 42.6906 68.476C42.5519 68.7533 42.4826 69.1087 42.4826 69.542V73H40.4546V66.006H42.3916V67.943L42.0276 67.358C42.2789 66.89 42.6386 66.5303 43.1066 66.279C43.5746 66.0277 44.1076 65.902 44.7056 65.902ZM52.0715 73L56.1275 63.9H58.2075L62.2765 73H60.0665L56.7385 64.966H57.5705L54.2295 73H52.0715ZM54.0995 71.05L54.6585 69.451H59.3385L59.9105 71.05H54.0995ZM67.2116 73.104C66.6223 73.104 66.1066 72.974 65.6646 72.714C65.2226 72.454 64.8759 72.0597 64.6246 71.531C64.3819 70.9937 64.2606 70.3177 64.2606 69.503C64.2606 68.6797 64.3776 68.0037 64.6116 67.475C64.8456 66.9463 65.1836 66.552 65.6256 66.292C66.0676 66.032 66.5963 65.902 67.2116 65.902C67.8703 65.902 68.4596 66.0537 68.9796 66.357C69.5083 66.6517 69.9243 67.0677 70.2276 67.605C70.5396 68.1423 70.6956 68.775 70.6956 69.503C70.6956 70.2397 70.5396 70.8767 70.2276 71.414C69.9243 71.9513 69.5083 72.3673 68.9796 72.662C68.4596 72.9567 67.8703 73.104 67.2116 73.104ZM63.0776 75.522V66.006H65.0146V67.436L64.9756 69.516L65.1056 71.583V75.522H63.0776ZM66.8606 71.44C67.1986 71.44 67.4976 71.362 67.7576 71.206C68.0263 71.05 68.2386 70.829 68.3946 70.543C68.5593 70.2483 68.6416 69.9017 68.6416 69.503C68.6416 69.0957 68.5593 68.749 68.3946 68.463C68.2386 68.177 68.0263 67.956 67.7576 67.8C67.4976 67.644 67.1986 67.566 66.8606 67.566C66.5226 67.566 66.2193 67.644 65.9506 67.8C65.6819 67.956 65.4696 68.177 65.3136 68.463C65.1576 68.749 65.0796 69.0957 65.0796 69.503C65.0796 69.9017 65.1576 70.2483 65.3136 70.543C65.4696 70.829 65.6819 71.05 65.9506 71.206C66.2193 71.362 66.5226 71.44 66.8606 71.44ZM76.1872 73.104C75.5979 73.104 75.0822 72.974 74.6402 72.714C74.1982 72.454 73.8515 72.0597 73.6002 71.531C73.3575 70.9937 73.2362 70.3177 73.2362 69.503C73.2362 68.6797 73.3532 68.0037 73.5872 67.475C73.8212 66.9463 74.1592 66.552 74.6012 66.292C75.0432 66.032 75.5719 65.902 76.1872 65.902C76.8459 65.902 77.4352 66.0537 77.9552 66.357C78.4839 66.6517 78.8999 67.0677 79.2032 67.605C79.5152 68.1423 79.6712 68.775 79.6712 69.503C79.6712 70.2397 79.5152 70.8767 79.2032 71.414C78.8999 71.9513 78.4839 72.3673 77.9552 72.662C77.4352 72.9567 76.8459 73.104 76.1872 73.104ZM72.0532 75.522V66.006H73.9902V67.436L73.9512 69.516L74.0812 71.583V75.522H72.0532ZM75.8362 71.44C76.1742 71.44 76.4732 71.362 76.7332 71.206C77.0019 71.05 77.2142 70.829 77.3702 70.543C77.5349 70.2483 77.6172 69.9017 77.6172 69.503C77.6172 69.0957 77.5349 68.749 77.3702 68.463C77.2142 68.177 77.0019 67.956 76.7332 67.8C76.4732 67.644 76.1742 67.566 75.8362 67.566C75.4982 67.566 75.1949 67.644 74.9262 67.8C74.6575 67.956 74.4452 68.177 74.2892 68.463C74.1332 68.749 74.0552 69.0957 74.0552 69.503C74.0552 69.9017 74.1332 70.2483 74.2892 70.543C74.4452 70.829 74.6575 71.05 74.9262 71.206C75.1949 71.362 75.4982 71.44 75.8362 71.44ZM81.0288 73V63.354H83.0568V73H81.0288ZM88.4099 73.104C87.6126 73.104 86.9106 72.948 86.3039 72.636C85.7059 72.324 85.2423 71.8993 84.9129 71.362C84.5836 70.816 84.4189 70.1963 84.4189 69.503C84.4189 68.801 84.5793 68.1813 84.8999 67.644C85.2293 67.098 85.6756 66.6733 86.2389 66.37C86.8023 66.058 87.4393 65.902 88.1499 65.902C88.8346 65.902 89.4499 66.0493 89.9959 66.344C90.5506 66.63 90.9883 67.046 91.3089 67.592C91.6296 68.1293 91.7899 68.775 91.7899 69.529C91.7899 69.607 91.7856 69.698 91.7769 69.802C91.7683 69.8973 91.7596 69.9883 91.7509 70.075H86.0699V68.892H90.6849L89.9049 69.243C89.9049 68.879 89.8313 68.5627 89.6839 68.294C89.5366 68.0253 89.3329 67.8173 89.0729 67.67C88.8129 67.514 88.5096 67.436 88.1629 67.436C87.8163 67.436 87.5086 67.514 87.2399 67.67C86.9799 67.8173 86.7763 68.0297 86.6289 68.307C86.4816 68.5757 86.4079 68.8963 86.4079 69.269V69.581C86.4079 69.9623 86.4903 70.3003 86.6549 70.595C86.8283 70.881 87.0666 71.102 87.3699 71.258C87.6819 71.4053 88.0459 71.479 88.4619 71.479C88.8346 71.479 89.1596 71.4227 89.4369 71.31C89.7229 71.1973 89.9829 71.0283 90.2169 70.803L91.2959 71.973C90.9753 72.337 90.5723 72.6187 90.0869 72.818C89.6016 73.0087 89.0426 73.104 88.4099 73.104ZM96.9647 73V63.9H98.7067L102.581 70.322H101.658L105.467 63.9H107.196L107.222 73H105.246L105.233 66.929H105.597L102.555 72.038H101.606L98.4987 66.929H98.9407V73H96.9647ZM112.189 73.104C111.608 73.104 111.088 72.9913 110.629 72.766C110.178 72.5407 109.827 72.1983 109.576 71.739C109.324 71.271 109.199 70.6773 109.199 69.958V66.006H111.227V69.659C111.227 70.2397 111.348 70.6687 111.591 70.946C111.842 71.2147 112.193 71.349 112.644 71.349C112.956 71.349 113.233 71.284 113.476 71.154C113.718 71.0153 113.909 70.8073 114.048 70.53C114.186 70.244 114.256 69.8887 114.256 69.464V66.006H116.284V73H114.36V71.076L114.711 71.635C114.477 72.1203 114.13 72.4887 113.671 72.74C113.22 72.9827 112.726 73.104 112.189 73.104ZM120.516 73.104C119.918 73.104 119.341 73.0347 118.787 72.896C118.241 72.7487 117.807 72.5667 117.487 72.35L118.163 70.894C118.483 71.0933 118.86 71.258 119.294 71.388C119.736 71.5093 120.169 71.57 120.594 71.57C121.062 71.57 121.391 71.5137 121.582 71.401C121.781 71.2883 121.881 71.1323 121.881 70.933C121.881 70.7683 121.803 70.647 121.647 70.569C121.499 70.4823 121.3 70.4173 121.049 70.374C120.797 70.3307 120.52 70.2873 120.217 70.244C119.922 70.2007 119.623 70.1443 119.32 70.075C119.016 69.997 118.739 69.8843 118.488 69.737C118.236 69.5897 118.033 69.3903 117.877 69.139C117.729 68.8877 117.656 68.5627 117.656 68.164C117.656 67.722 117.781 67.332 118.033 66.994C118.293 66.656 118.665 66.3917 119.151 66.201C119.636 66.0017 120.217 65.902 120.893 65.902C121.369 65.902 121.855 65.954 122.349 66.058C122.843 66.162 123.254 66.3137 123.584 66.513L122.908 67.956C122.57 67.7567 122.227 67.6223 121.881 67.553C121.543 67.475 121.213 67.436 120.893 67.436C120.442 67.436 120.113 67.4967 119.905 67.618C119.697 67.7393 119.593 67.8953 119.593 68.086C119.593 68.2593 119.666 68.3893 119.814 68.476C119.97 68.5627 120.173 68.632 120.425 68.684C120.676 68.736 120.949 68.7837 121.244 68.827C121.547 68.8617 121.85 68.918 122.154 68.996C122.457 69.074 122.73 69.1867 122.973 69.334C123.224 69.4727 123.428 69.6677 123.584 69.919C123.74 70.1617 123.818 70.4823 123.818 70.881C123.818 71.3143 123.688 71.7 123.428 72.038C123.168 72.3673 122.791 72.6273 122.297 72.818C121.811 73.0087 121.218 73.104 120.516 73.104ZM125.069 73V66.006H127.097V73H125.069ZM126.083 65.031C125.71 65.031 125.407 64.9227 125.173 64.706C124.939 64.4893 124.822 64.2207 124.822 63.9C124.822 63.5793 124.939 63.3107 125.173 63.094C125.407 62.8773 125.71 62.769 126.083 62.769C126.455 62.769 126.759 62.873 126.993 63.081C127.227 63.2803 127.344 63.5403 127.344 63.861C127.344 64.199 127.227 64.4807 126.993 64.706C126.767 64.9227 126.464 65.031 126.083 65.031ZM132.359 73.104C131.605 73.104 130.933 72.9523 130.344 72.649C129.755 72.337 129.291 71.908 128.953 71.362C128.624 70.816 128.459 70.1963 128.459 69.503C128.459 68.801 128.624 68.1813 128.953 67.644C129.291 67.098 129.755 66.6733 130.344 66.37C130.933 66.058 131.605 65.902 132.359 65.902C133.096 65.902 133.737 66.058 134.283 66.37C134.829 66.6733 135.232 67.111 135.492 67.683L133.919 68.528C133.737 68.1987 133.507 67.956 133.23 67.8C132.961 67.644 132.667 67.566 132.346 67.566C131.999 67.566 131.687 67.644 131.41 67.8C131.133 67.956 130.912 68.177 130.747 68.463C130.591 68.749 130.513 69.0957 130.513 69.503C130.513 69.9103 130.591 70.257 130.747 70.543C130.912 70.829 131.133 71.05 131.41 71.206C131.687 71.362 131.999 71.44 132.346 71.44C132.667 71.44 132.961 71.3663 133.23 71.219C133.507 71.063 133.737 70.816 133.919 70.478L135.492 71.336C135.232 71.8993 134.829 72.337 134.283 72.649C133.737 72.9523 133.096 73.104 132.359 73.104ZM136.309 75.002L137.167 71.882L137.453 73.052C137.08 73.052 136.772 72.9437 136.53 72.727C136.296 72.5103 136.179 72.2113 136.179 71.83C136.179 71.4487 136.3 71.1453 136.543 70.92C136.785 70.6947 137.084 70.582 137.44 70.582C137.804 70.582 138.103 70.699 138.337 70.933C138.571 71.1583 138.688 71.4573 138.688 71.83C138.688 71.9427 138.679 72.0553 138.662 72.168C138.644 72.272 138.61 72.402 138.558 72.558C138.514 72.7053 138.441 72.896 138.337 73.13L137.596 75.002H136.309ZM148.034 73V71.635L147.904 71.336V68.892C147.904 68.4587 147.769 68.1207 147.501 67.878C147.241 67.6353 146.838 67.514 146.292 67.514C145.919 67.514 145.551 67.5747 145.187 67.696C144.831 67.8087 144.528 67.9647 144.277 68.164L143.549 66.747C143.93 66.4783 144.389 66.2703 144.927 66.123C145.464 65.9757 146.01 65.902 146.565 65.902C147.631 65.902 148.458 66.1533 149.048 66.656C149.637 67.1587 149.932 67.943 149.932 69.009V73H148.034ZM145.902 73.104C145.356 73.104 144.888 73.013 144.498 72.831C144.108 72.6403 143.809 72.3847 143.601 72.064C143.393 71.7433 143.289 71.3837 143.289 70.985C143.289 70.569 143.388 70.205 143.588 69.893C143.796 69.581 144.121 69.3383 144.563 69.165C145.005 68.983 145.581 68.892 146.292 68.892H148.151V70.075H146.513C146.036 70.075 145.707 70.153 145.525 70.309C145.351 70.465 145.265 70.66 145.265 70.894C145.265 71.154 145.364 71.362 145.564 71.518C145.772 71.6653 146.053 71.739 146.409 71.739C146.747 71.739 147.05 71.661 147.319 71.505C147.587 71.3403 147.782 71.102 147.904 70.79L148.216 71.726C148.068 72.1767 147.8 72.519 147.41 72.753C147.02 72.987 146.517 73.104 145.902 73.104ZM36.07 92.104C35.4547 92.104 34.926 91.974 34.484 91.714C34.042 91.454 33.704 91.0597 33.47 90.531C33.236 89.9937 33.119 89.3177 33.119 88.503C33.119 87.6797 33.2403 87.0037 33.483 86.475C33.7343 85.9463 34.081 85.552 34.523 85.292C34.965 85.032 35.4807 84.902 36.07 84.902C36.7287 84.902 37.318 85.0493 37.838 85.344C38.3667 85.6387 38.7827 86.0547 39.086 86.592C39.398 87.1293 39.554 87.7663 39.554 88.503C39.554 89.231 39.398 89.8637 39.086 90.401C38.7827 90.9383 38.3667 91.3587 37.838 91.662C37.318 91.9567 36.7287 92.104 36.07 92.104ZM31.936 92V82.354H33.964V86.423L33.834 88.49L33.873 90.57V92H31.936ZM35.719 90.44C36.057 90.44 36.356 90.362 36.616 90.206C36.8847 90.05 37.097 89.829 37.253 89.543C37.4177 89.2483 37.5 88.9017 37.5 88.503C37.5 88.0957 37.4177 87.749 37.253 87.463C37.097 87.177 36.8847 86.956 36.616 86.8C36.356 86.644 36.057 86.566 35.719 86.566C35.381 86.566 35.0777 86.644 34.809 86.8C34.5403 86.956 34.328 87.177 34.172 87.463C34.016 87.749 33.938 88.0957 33.938 88.503C33.938 88.9017 34.016 89.2483 34.172 89.543C34.328 89.829 34.5403 90.05 34.809 90.206C35.0777 90.362 35.381 90.44 35.719 90.44ZM43.8626 92.104C43.2819 92.104 42.7619 91.9913 42.3026 91.766C41.8519 91.5407 41.5009 91.1983 41.2496 90.739C40.9983 90.271 40.8726 89.6773 40.8726 88.958V85.006H42.9006V88.659C42.9006 89.2397 43.0219 89.6687 43.2646 89.946C43.5159 90.2147 43.8669 90.349 44.3176 90.349C44.6296 90.349 44.9069 90.284 45.1496 90.154C45.3923 90.0153 45.5829 89.8073 45.7216 89.53C45.8603 89.244 45.9296 88.8887 45.9296 88.464V85.006H47.9576V92H46.0336V90.076L46.3846 90.635C46.1506 91.1203 45.8039 91.4887 45.3446 91.74C44.8939 91.9827 44.3999 92.104 43.8626 92.104ZM52.6964 92.104C51.8731 92.104 51.2317 91.896 50.7724 91.48C50.3131 91.0553 50.0834 90.427 50.0834 89.595V83.459H52.1114V89.569C52.1114 89.8637 52.1894 90.0933 52.3454 90.258C52.5014 90.414 52.7137 90.492 52.9824 90.492C53.3031 90.492 53.5761 90.4053 53.8014 90.232L54.3474 91.662C54.1394 91.8093 53.8881 91.922 53.5934 92C53.3074 92.0693 53.0084 92.104 52.6964 92.104ZM49.0044 86.722V85.162H53.8534V86.722H49.0044ZM58.1935 92.104C57.3701 92.104 56.7288 91.896 56.2695 91.48C55.8101 91.0553 55.5805 90.427 55.5805 89.595V83.459H57.6085V89.569C57.6085 89.8637 57.6865 90.0933 57.8425 90.258C57.9985 90.414 58.2108 90.492 58.4795 90.492C58.8001 90.492 59.0731 90.4053 59.2985 90.232L59.8445 91.662C59.6365 91.8093 59.3851 91.922 59.0905 92C58.8045 92.0693 58.5055 92.104 58.1935 92.104ZM54.5015 86.722V85.162H59.3505V86.722H54.5015ZM64.0951 92.104C63.3497 92.104 62.6867 91.948 62.1061 91.636C61.5341 91.324 61.0791 90.8993 60.7411 90.362C60.4117 89.816 60.2471 89.1963 60.2471 88.503C60.2471 87.801 60.4117 87.1813 60.7411 86.644C61.0791 86.098 61.5341 85.6733 62.1061 85.37C62.6867 85.058 63.3497 84.902 64.0951 84.902C64.8317 84.902 65.4904 85.058 66.0711 85.37C66.6517 85.6733 67.1067 86.0937 67.4361 86.631C67.7654 87.1683 67.9301 87.7923 67.9301 88.503C67.9301 89.1963 67.7654 89.816 67.4361 90.362C67.1067 90.8993 66.6517 91.324 66.0711 91.636C65.4904 91.948 64.8317 92.104 64.0951 92.104ZM64.0951 90.44C64.4331 90.44 64.7364 90.362 65.0051 90.206C65.2737 90.05 65.4861 89.829 65.6421 89.543C65.7981 89.2483 65.8761 88.9017 65.8761 88.503C65.8761 88.0957 65.7981 87.749 65.6421 87.463C65.4861 87.177 65.2737 86.956 65.0051 86.8C64.7364 86.644 64.4331 86.566 64.0951 86.566C63.7571 86.566 63.4537 86.644 63.1851 86.8C62.9164 86.956 62.6997 87.177 62.5351 87.463C62.3791 87.749 62.3011 88.0957 62.3011 88.503C62.3011 88.9017 62.3791 89.2483 62.5351 89.543C62.6997 89.829 62.9164 90.05 63.1851 90.206C63.4537 90.362 63.7571 90.44 64.0951 90.44ZM73.5366 84.902C74.0913 84.902 74.5853 85.0147 75.0186 85.24C75.4606 85.4567 75.8073 85.7947 76.0586 86.254C76.3099 86.7047 76.4356 87.2853 76.4356 87.996V92H74.4076V88.308C74.4076 87.7447 74.2819 87.3287 74.0306 87.06C73.7879 86.7913 73.4413 86.657 72.9906 86.657C72.6699 86.657 72.3796 86.7263 72.1196 86.865C71.8683 86.995 71.6689 87.1987 71.5216 87.476C71.3829 87.7533 71.3136 88.1087 71.3136 88.542V92H69.2856V85.006H71.2226V86.943L70.8586 86.358C71.1099 85.89 71.4696 85.5303 71.9376 85.279C72.4056 85.0277 72.9386 84.902 73.5366 84.902ZM84.8155 92.104C83.9922 92.104 83.3509 91.896 82.8915 91.48C82.4322 91.0553 82.2025 90.427 82.2025 89.595V83.459H84.2305V89.569C84.2305 89.8637 84.3085 90.0933 84.4645 90.258C84.6205 90.414 84.8329 90.492 85.1015 90.492C85.4222 90.492 85.6952 90.4053 85.9205 90.232L86.4665 91.662C86.2585 91.8093 86.0072 91.922 85.7125 92C85.4265 92.0693 85.1275 92.104 84.8155 92.104ZM81.1235 86.722V85.162H85.9725V86.722H81.1235ZM91.8559 84.902C92.4106 84.902 92.9046 85.0147 93.3379 85.24C93.7799 85.4567 94.1266 85.7947 94.3779 86.254C94.6293 86.7047 94.7549 87.2853 94.7549 87.996V92H92.7269V88.308C92.7269 87.7447 92.6013 87.3287 92.3499 87.06C92.1073 86.7913 91.7606 86.657 91.3099 86.657C90.9893 86.657 90.6989 86.7263 90.4389 86.865C90.1876 86.995 89.9883 87.1987 89.8409 87.476C89.7023 87.7533 89.6329 88.1087 89.6329 88.542V92H87.6049V82.354H89.6329V86.943L89.1779 86.358C89.4293 85.89 89.7889 85.5303 90.2569 85.279C90.7249 85.0277 91.2579 84.902 91.8559 84.902ZM100.883 92V90.635L100.753 90.336V87.892C100.753 87.4587 100.619 87.1207 100.35 86.878C100.09 86.6353 99.6872 86.514 99.1412 86.514C98.7686 86.514 98.4002 86.5747 98.0362 86.696C97.6809 86.8087 97.3776 86.9647 97.1262 87.164L96.3982 85.747C96.7796 85.4783 97.2389 85.2703 97.7762 85.123C98.3136 84.9757 98.8596 84.902 99.4142 84.902C100.48 84.902 101.308 85.1533 101.897 85.656C102.487 86.1587 102.781 86.943 102.781 88.009V92H100.883ZM98.7512 92.104C98.2052 92.104 97.7372 92.013 97.3472 91.831C96.9572 91.6403 96.6582 91.3847 96.4502 91.064C96.2422 90.7433 96.1382 90.3837 96.1382 89.985C96.1382 89.569 96.2379 89.205 96.4372 88.893C96.6452 88.581 96.9702 88.3383 97.4122 88.165C97.8542 87.983 98.4306 87.892 99.1412 87.892H101V89.075H99.3622C98.8856 89.075 98.5562 89.153 98.3742 89.309C98.2009 89.465 98.1142 89.66 98.1142 89.894C98.1142 90.154 98.2139 90.362 98.4132 90.518C98.6212 90.6653 98.9029 90.739 99.2582 90.739C99.5962 90.739 99.8996 90.661 100.168 90.505C100.437 90.3403 100.632 90.102 100.753 89.79L101.065 90.726C100.918 91.1767 100.649 91.519 100.259 91.753C99.8692 91.987 99.3666 92.104 98.7512 92.104ZM107.477 92.104C106.653 92.104 106.012 91.896 105.553 91.48C105.093 91.0553 104.864 90.427 104.864 89.595V83.459H106.892V89.569C106.892 89.8637 106.97 90.0933 107.126 90.258C107.282 90.414 107.494 90.492 107.763 90.492C108.083 90.492 108.356 90.4053 108.582 90.232L109.128 91.662C108.92 91.8093 108.668 91.922 108.374 92C108.088 92.0693 107.789 92.104 107.477 92.104ZM103.785 86.722V85.162H108.634V86.722H103.785ZM117.419 92.104C116.621 92.104 115.919 91.948 115.313 91.636C114.715 91.324 114.251 90.8993 113.922 90.362C113.592 89.816 113.428 89.1963 113.428 88.503C113.428 87.801 113.588 87.1813 113.909 86.644C114.238 86.098 114.684 85.6733 115.248 85.37C115.811 85.058 116.448 84.902 117.159 84.902C117.843 84.902 118.459 85.0493 119.005 85.344C119.559 85.63 119.997 86.046 120.318 86.592C120.638 87.1293 120.799 87.775 120.799 88.529C120.799 88.607 120.794 88.698 120.786 88.802C120.777 88.8973 120.768 88.9883 120.76 89.075H115.079V87.892H119.694L118.914 88.243C118.914 87.879 118.84 87.5627 118.693 87.294C118.545 87.0253 118.342 86.8173 118.082 86.67C117.822 86.514 117.518 86.436 117.172 86.436C116.825 86.436 116.517 86.514 116.249 86.67C115.989 86.8173 115.785 87.0297 115.638 87.307C115.49 87.5757 115.417 87.8963 115.417 88.269V88.581C115.417 88.9623 115.499 89.3003 115.664 89.595C115.837 89.881 116.075 90.102 116.379 90.258C116.691 90.4053 117.055 90.479 117.471 90.479C117.843 90.479 118.168 90.4227 118.446 90.31C118.732 90.1973 118.992 90.0283 119.226 89.803L120.305 90.973C119.984 91.337 119.581 91.6187 119.096 91.818C118.61 92.0087 118.051 92.104 117.419 92.104ZM126.248 92V90.635L126.118 90.336V87.892C126.118 87.4587 125.984 87.1207 125.715 86.878C125.455 86.6353 125.052 86.514 124.506 86.514C124.134 86.514 123.765 86.5747 123.401 86.696C123.046 86.8087 122.743 86.9647 122.491 87.164L121.763 85.747C122.145 85.4783 122.604 85.2703 123.141 85.123C123.679 84.9757 124.225 84.902 124.779 84.902C125.845 84.902 126.673 85.1533 127.262 85.656C127.852 86.1587 128.146 86.943 128.146 88.009V92H126.248ZM124.116 92.104C123.57 92.104 123.102 92.013 122.712 91.831C122.322 91.6403 122.023 91.3847 121.815 91.064C121.607 90.7433 121.503 90.3837 121.503 89.985C121.503 89.569 121.603 89.205 121.802 88.893C122.01 88.581 122.335 88.3383 122.777 88.165C123.219 87.983 123.796 87.892 124.506 87.892H126.365V89.075H124.727C124.251 89.075 123.921 89.153 123.739 89.309C123.566 89.465 123.479 89.66 123.479 89.894C123.479 90.154 123.579 90.362 123.778 90.518C123.986 90.6653 124.268 90.739 124.623 90.739C124.961 90.739 125.265 90.661 125.533 90.505C125.802 90.3403 125.997 90.102 126.118 89.79L126.43 90.726C126.283 91.1767 126.014 91.519 125.624 91.753C125.234 91.987 124.732 92.104 124.116 92.104ZM132.335 92.104C131.737 92.104 131.161 92.0347 130.606 91.896C130.06 91.7487 129.627 91.5667 129.306 91.35L129.982 89.894C130.303 90.0933 130.68 90.258 131.113 90.388C131.555 90.5093 131.988 90.57 132.413 90.57C132.881 90.57 133.21 90.5137 133.401 90.401C133.6 90.2883 133.7 90.1323 133.7 89.933C133.7 89.7683 133.622 89.647 133.466 89.569C133.319 89.4823 133.119 89.4173 132.868 89.374C132.617 89.3307 132.339 89.2873 132.036 89.244C131.741 89.2007 131.442 89.1443 131.139 89.075C130.836 88.997 130.558 88.8843 130.307 88.737C130.056 88.5897 129.852 88.3903 129.696 88.139C129.549 87.8877 129.475 87.5627 129.475 87.164C129.475 86.722 129.601 86.332 129.852 85.994C130.112 85.656 130.485 85.3917 130.97 85.201C131.455 85.0017 132.036 84.902 132.712 84.902C133.189 84.902 133.674 84.954 134.168 85.058C134.662 85.162 135.074 85.3137 135.403 85.513L134.727 86.956C134.389 86.7567 134.047 86.6223 133.7 86.553C133.362 86.475 133.033 86.436 132.712 86.436C132.261 86.436 131.932 86.4967 131.724 86.618C131.516 86.7393 131.412 86.8953 131.412 87.086C131.412 87.2593 131.486 87.3893 131.633 87.476C131.789 87.5627 131.993 87.632 132.244 87.684C132.495 87.736 132.768 87.7837 133.063 87.827C133.366 87.8617 133.67 87.918 133.973 87.996C134.276 88.074 134.549 88.1867 134.792 88.334C135.043 88.4727 135.247 88.6677 135.403 88.919C135.559 89.1617 135.637 89.4823 135.637 89.881C135.637 90.3143 135.507 90.7 135.247 91.038C134.987 91.3673 134.61 91.6273 134.116 91.818C133.631 92.0087 133.037 92.104 132.335 92.104ZM140.359 92.104C139.562 92.104 138.86 91.948 138.253 91.636C137.655 91.324 137.191 90.8993 136.862 90.362C136.533 89.816 136.368 89.1963 136.368 88.503C136.368 87.801 136.528 87.1813 136.849 86.644C137.178 86.098 137.625 85.6733 138.188 85.37C138.751 85.058 139.388 84.902 140.099 84.902C140.784 84.902 141.399 85.0493 141.945 85.344C142.5 85.63 142.937 86.046 143.258 86.592C143.579 87.1293 143.739 87.775 143.739 88.529C143.739 88.607 143.735 88.698 143.726 88.802C143.717 88.8973 143.709 88.9883 143.7 89.075H138.019V87.892H142.634L141.854 88.243C141.854 87.879 141.78 87.5627 141.633 87.294C141.486 87.0253 141.282 86.8173 141.022 86.67C140.762 86.514 140.459 86.436 140.112 86.436C139.765 86.436 139.458 86.514 139.189 86.67C138.929 86.8173 138.725 87.0297 138.578 87.307C138.431 87.5757 138.357 87.8963 138.357 88.269V88.581C138.357 88.9623 138.439 89.3003 138.604 89.595C138.777 89.881 139.016 90.102 139.319 90.258C139.631 90.4053 139.995 90.479 140.411 90.479C140.784 90.479 141.109 90.4227 141.386 90.31C141.672 90.1973 141.932 90.0283 142.166 89.803L143.245 90.973C142.924 91.337 142.521 91.6187 142.036 91.818C141.551 92.0087 140.992 92.104 140.359 92.104ZM147.442 92.104C146.844 92.104 146.268 92.0347 145.713 91.896C145.167 91.7487 144.734 91.5667 144.413 91.35L145.089 89.894C145.41 90.0933 145.787 90.258 146.22 90.388C146.662 90.5093 147.096 90.57 147.52 90.57C147.988 90.57 148.318 90.5137 148.508 90.401C148.708 90.2883 148.807 90.1323 148.807 89.933C148.807 89.7683 148.729 89.647 148.573 89.569C148.426 89.4823 148.227 89.4173 147.975 89.374C147.724 89.3307 147.447 89.2873 147.143 89.244C146.849 89.2007 146.55 89.1443 146.246 89.075C145.943 88.997 145.666 88.8843 145.414 88.737C145.163 88.5897 144.959 88.3903 144.803 88.139C144.656 87.8877 144.582 87.5627 144.582 87.164C144.582 86.722 144.708 86.332 144.959 85.994C145.219 85.656 145.592 85.3917 146.077 85.201C146.563 85.0017 147.143 84.902 147.819 84.902C148.296 84.902 148.781 84.954 149.275 85.058C149.769 85.162 150.181 85.3137 150.51 85.513L149.834 86.956C149.496 86.7567 149.154 86.6223 148.807 86.553C148.469 86.475 148.14 86.436 147.819 86.436C147.369 86.436 147.039 86.4967 146.831 86.618C146.623 86.7393 146.519 86.8953 146.519 87.086C146.519 87.2593 146.593 87.3893 146.74 87.476C146.896 87.5627 147.1 87.632 147.351 87.684C147.603 87.736 147.876 87.7837 148.17 87.827C148.474 87.8617 148.777 87.918 149.08 87.996C149.384 88.074 149.657 88.1867 149.899 88.334C150.151 88.4727 150.354 88.6677 150.51 88.919C150.666 89.1617 150.744 89.4823 150.744 89.881C150.744 90.3143 150.614 90.7 150.354 91.038C150.094 91.3673 149.717 91.6273 149.223 91.818C148.738 92.0087 148.144 92.104 147.442 92.104ZM34.796 111.104C33.9727 111.104 33.3313 110.896 32.872 110.48C32.4127 110.055 32.183 109.427 32.183 108.595V102.459H34.211V108.569C34.211 108.864 34.289 109.093 34.445 109.258C34.601 109.414 34.8133 109.492 35.082 109.492C35.4027 109.492 35.6757 109.405 35.901 109.232L36.447 110.662C36.239 110.809 35.9877 110.922 35.693 111C35.407 111.069 35.108 111.104 34.796 111.104ZM31.104 105.722V104.162H35.953V105.722H31.104ZM41.8364 103.902C42.3911 103.902 42.8851 104.015 43.3184 104.24C43.7604 104.457 44.1071 104.795 44.3584 105.254C44.6097 105.705 44.7354 106.285 44.7354 106.996V111H42.7074V107.308C42.7074 106.745 42.5817 106.329 42.3304 106.06C42.0877 105.791 41.7411 105.657 41.2904 105.657C40.9697 105.657 40.6794 105.726 40.4194 105.865C40.1681 105.995 39.9687 106.199 39.8214 106.476C39.6827 106.753 39.6134 107.109 39.6134 107.542V111H37.5854V101.354H39.6134V105.943L39.1584 105.358C39.4097 104.89 39.7694 104.53 40.2374 104.279C40.7054 104.028 41.2384 103.902 41.8364 103.902ZM50.0955 111.104C49.2981 111.104 48.5961 110.948 47.9895 110.636C47.3915 110.324 46.9278 109.899 46.5985 109.362C46.2691 108.816 46.1045 108.196 46.1045 107.503C46.1045 106.801 46.2648 106.181 46.5855 105.644C46.9148 105.098 47.3611 104.673 47.9245 104.37C48.4878 104.058 49.1248 103.902 49.8355 103.902C50.5201 103.902 51.1355 104.049 51.6815 104.344C52.2361 104.63 52.6738 105.046 52.9945 105.592C53.3151 106.129 53.4755 106.775 53.4755 107.529C53.4755 107.607 53.4711 107.698 53.4625 107.802C53.4538 107.897 53.4451 107.988 53.4365 108.075H47.7555V106.892H52.3705L51.5905 107.243C51.5905 106.879 51.5168 106.563 51.3695 106.294C51.2221 106.025 51.0185 105.817 50.7585 105.67C50.4985 105.514 50.1951 105.436 49.8485 105.436C49.5018 105.436 49.1941 105.514 48.9255 105.67C48.6655 105.817 48.4618 106.03 48.3145 106.307C48.1671 106.576 48.0935 106.896 48.0935 107.269V107.581C48.0935 107.962 48.1758 108.3 48.3405 108.595C48.5138 108.881 48.7521 109.102 49.0555 109.258C49.3675 109.405 49.7315 109.479 50.1475 109.479C50.5201 109.479 50.8451 109.423 51.1225 109.31C51.4085 109.197 51.6685 109.028 51.9025 108.803L52.9815 109.973C52.6608 110.337 52.2578 110.619 51.7725 110.818C51.2871 111.009 50.7281 111.104 50.0955 111.104ZM61.4583 111.104C60.8776 111.104 60.3576 110.991 59.8983 110.766C59.4476 110.541 59.0966 110.198 58.8453 109.739C58.594 109.271 58.4683 108.677 58.4683 107.958V104.006H60.4963V107.659C60.4963 108.24 60.6176 108.669 60.8603 108.946C61.1116 109.215 61.4626 109.349 61.9133 109.349C62.2253 109.349 62.5026 109.284 62.7453 109.154C62.988 109.015 63.1786 108.807 63.3173 108.53C63.456 108.244 63.5253 107.889 63.5253 107.464V104.006H65.5533V111H63.6293V109.076L63.9803 109.635C63.7463 110.12 63.3996 110.489 62.9403 110.74C62.4896 110.983 61.9956 111.104 61.4583 111.104ZM69.7851 111.104C69.1871 111.104 68.6108 111.035 68.0561 110.896C67.5101 110.749 67.0768 110.567 66.7561 110.35L67.4321 108.894C67.7528 109.093 68.1298 109.258 68.5631 109.388C69.0051 109.509 69.4384 109.57 69.8631 109.57C70.3311 109.57 70.6604 109.514 70.8511 109.401C71.0504 109.288 71.1501 109.132 71.1501 108.933C71.1501 108.768 71.0721 108.647 70.9161 108.569C70.7688 108.482 70.5694 108.417 70.3181 108.374C70.0668 108.331 69.7894 108.287 69.4861 108.244C69.1914 108.201 68.8924 108.144 68.5891 108.075C68.2858 107.997 68.0084 107.884 67.7571 107.737C67.5058 107.59 67.3021 107.39 67.1461 107.139C66.9988 106.888 66.9251 106.563 66.9251 106.164C66.9251 105.722 67.0508 105.332 67.3021 104.994C67.5621 104.656 67.9348 104.392 68.4201 104.201C68.9054 104.002 69.4861 103.902 70.1621 103.902C70.6388 103.902 71.1241 103.954 71.6181 104.058C72.1121 104.162 72.5238 104.314 72.8531 104.513L72.1771 105.956C71.8391 105.757 71.4968 105.622 71.1501 105.553C70.8121 105.475 70.4828 105.436 70.1621 105.436C69.7114 105.436 69.3821 105.497 69.1741 105.618C68.9661 105.739 68.8621 105.895 68.8621 106.086C68.8621 106.259 68.9358 106.389 69.0831 106.476C69.2391 106.563 69.4428 106.632 69.6941 106.684C69.9454 106.736 70.2184 106.784 70.5131 106.827C70.8164 106.862 71.1198 106.918 71.4231 106.996C71.7264 107.074 71.9994 107.187 72.2421 107.334C72.4934 107.473 72.6971 107.668 72.8531 107.919C73.0091 108.162 73.0871 108.482 73.0871 108.881C73.0871 109.314 72.9571 109.7 72.6971 110.038C72.4371 110.367 72.0601 110.627 71.5661 110.818C71.0808 111.009 70.4871 111.104 69.7851 111.104ZM77.8093 111.104C77.012 111.104 76.31 110.948 75.7033 110.636C75.1053 110.324 74.6417 109.899 74.3123 109.362C73.983 108.816 73.8183 108.196 73.8183 107.503C73.8183 106.801 73.9787 106.181 74.2993 105.644C74.6287 105.098 75.075 104.673 75.6383 104.37C76.2017 104.058 76.8387 103.902 77.5493 103.902C78.234 103.902 78.8493 104.049 79.3953 104.344C79.95 104.63 80.3877 105.046 80.7083 105.592C81.029 106.129 81.1893 106.775 81.1893 107.529C81.1893 107.607 81.185 107.698 81.1763 107.802C81.1677 107.897 81.159 107.988 81.1503 108.075H75.4693V106.892H80.0843L79.3043 107.243C79.3043 106.879 79.2307 106.563 79.0833 106.294C78.936 106.025 78.7323 105.817 78.4723 105.67C78.2123 105.514 77.909 105.436 77.5623 105.436C77.2157 105.436 76.908 105.514 76.6393 105.67C76.3793 105.817 76.1757 106.03 76.0283 106.307C75.881 106.576 75.8073 106.896 75.8073 107.269V107.581C75.8073 107.962 75.8897 108.3 76.0543 108.595C76.2277 108.881 76.466 109.102 76.7693 109.258C77.0813 109.405 77.4453 109.479 77.8613 109.479C78.234 109.479 78.559 109.423 78.8363 109.31C79.1223 109.197 79.3823 109.028 79.6163 108.803L80.6953 109.973C80.3747 110.337 79.9717 110.619 79.4863 110.818C79.001 111.009 78.442 111.104 77.8093 111.104ZM82.5395 111V104.006H84.4765V105.982L84.2035 105.41C84.4115 104.916 84.7452 104.543 85.2045 104.292C85.6638 104.032 86.2228 103.902 86.8815 103.902V105.774C86.7948 105.765 86.7168 105.761 86.6475 105.761C86.5782 105.752 86.5045 105.748 86.4265 105.748C85.8718 105.748 85.4212 105.908 85.0745 106.229C84.7365 106.541 84.5675 107.031 84.5675 107.698V111H82.5395ZM91.2998 113.626C90.9878 113.626 90.6888 113.591 90.4028 113.522C90.1168 113.461 89.8741 113.366 89.6748 113.236L90.2208 111.767C90.4548 111.932 90.7408 112.014 91.0788 112.014C91.3301 112.014 91.5295 111.927 91.6768 111.754C91.8328 111.589 91.9108 111.338 91.9108 111V104.006H93.9388V110.987C93.9388 111.793 93.7091 112.434 93.2498 112.911C92.7905 113.388 92.1405 113.626 91.2998 113.626ZM92.9248 103.031C92.5521 103.031 92.2488 102.923 92.0148 102.706C91.7808 102.489 91.6638 102.221 91.6638 101.9C91.6638 101.579 91.7808 101.311 92.0148 101.094C92.2488 100.877 92.5521 100.769 92.9248 100.769C93.2975 100.769 93.6008 100.873 93.8348 101.081C94.0688 101.28 94.1858 101.54 94.1858 101.861C94.1858 102.199 94.0688 102.481 93.8348 102.706C93.6095 102.923 93.3061 103.031 92.9248 103.031ZM99.1341 111.104C98.3888 111.104 97.7258 110.948 97.1451 110.636C96.5731 110.324 96.1181 109.899 95.7801 109.362C95.4508 108.816 95.2861 108.196 95.2861 107.503C95.2861 106.801 95.4508 106.181 95.7801 105.644C96.1181 105.098 96.5731 104.673 97.1451 104.37C97.7258 104.058 98.3888 103.902 99.1341 103.902C99.8708 103.902 100.529 104.058 101.11 104.37C101.691 104.673 102.146 105.094 102.475 105.631C102.804 106.168 102.969 106.792 102.969 107.503C102.969 108.196 102.804 108.816 102.475 109.362C102.146 109.899 101.691 110.324 101.11 110.636C100.529 110.948 99.8708 111.104 99.1341 111.104ZM99.1341 109.44C99.4721 109.44 99.7755 109.362 100.044 109.206C100.313 109.05 100.525 108.829 100.681 108.543C100.837 108.248 100.915 107.902 100.915 107.503C100.915 107.096 100.837 106.749 100.681 106.463C100.525 106.177 100.313 105.956 100.044 105.8C99.7755 105.644 99.4721 105.566 99.1341 105.566C98.7961 105.566 98.4928 105.644 98.2241 105.8C97.9555 105.956 97.7388 106.177 97.5741 106.463C97.4181 106.749 97.3401 107.096 97.3401 107.503C97.3401 107.902 97.4181 108.248 97.5741 108.543C97.7388 108.829 97.9555 109.05 98.2241 109.206C98.4928 109.362 98.7961 109.44 99.1341 109.44ZM107.276 111.104C106.695 111.104 106.175 110.991 105.716 110.766C105.265 110.541 104.914 110.198 104.663 109.739C104.411 109.271 104.286 108.677 104.286 107.958V104.006H106.314V107.659C106.314 108.24 106.435 108.669 106.678 108.946C106.929 109.215 107.28 109.349 107.731 109.349C108.043 109.349 108.32 109.284 108.563 109.154C108.805 109.015 108.996 108.807 109.135 108.53C109.273 108.244 109.343 107.889 109.343 107.464V104.006H111.371V111H109.447V109.076L109.798 109.635C109.564 110.12 109.217 110.489 108.758 110.74C108.307 110.983 107.813 111.104 107.276 111.104ZM113.249 111V104.006H115.186V105.982L114.913 105.41C115.121 104.916 115.455 104.543 115.914 104.292C116.374 104.032 116.933 103.902 117.591 103.902V105.774C117.505 105.765 117.427 105.761 117.357 105.761C117.288 105.752 117.214 105.748 117.136 105.748C116.582 105.748 116.131 105.908 115.784 106.229C115.446 106.541 115.277 107.031 115.277 107.698V111H113.249ZM123.061 103.902C123.616 103.902 124.11 104.015 124.543 104.24C124.985 104.457 125.332 104.795 125.583 105.254C125.834 105.705 125.96 106.285 125.96 106.996V111H123.932V107.308C123.932 106.745 123.806 106.329 123.555 106.06C123.312 105.791 122.966 105.657 122.515 105.657C122.194 105.657 121.904 105.726 121.644 105.865C121.393 105.995 121.193 106.199 121.046 106.476C120.907 106.753 120.838 107.109 120.838 107.542V111H118.81V104.006H120.747V105.943L120.383 105.358C120.634 104.89 120.994 104.53 121.462 104.279C121.93 104.028 122.463 103.902 123.061 103.902ZM131.32 111.104C130.523 111.104 129.821 110.948 129.214 110.636C128.616 110.324 128.152 109.899 127.823 109.362C127.494 108.816 127.329 108.196 127.329 107.503C127.329 106.801 127.489 106.181 127.81 105.644C128.139 105.098 128.586 104.673 129.149 104.37C129.712 104.058 130.349 103.902 131.06 103.902C131.745 103.902 132.36 104.049 132.906 104.344C133.461 104.63 133.898 105.046 134.219 105.592C134.54 106.129 134.7 106.775 134.7 107.529C134.7 107.607 134.696 107.698 134.687 107.802C134.678 107.897 134.67 107.988 134.661 108.075H128.98V106.892H133.595L132.815 107.243C132.815 106.879 132.741 106.563 132.594 106.294C132.447 106.025 132.243 105.817 131.983 105.67C131.723 105.514 131.42 105.436 131.073 105.436C130.726 105.436 130.419 105.514 130.15 105.67C129.89 105.817 129.686 106.03 129.539 106.307C129.392 106.576 129.318 106.896 129.318 107.269V107.581C129.318 107.962 129.4 108.3 129.565 108.595C129.738 108.881 129.977 109.102 130.28 109.258C130.592 109.405 130.956 109.479 131.372 109.479C131.745 109.479 132.07 109.423 132.347 109.31C132.633 109.197 132.893 109.028 133.127 108.803L134.206 109.973C133.885 110.337 133.482 110.619 132.997 110.818C132.512 111.009 131.953 111.104 131.32 111.104ZM136.807 113.626C136.443 113.626 136.084 113.57 135.728 113.457C135.373 113.344 135.083 113.188 134.857 112.989L135.598 111.546C135.754 111.685 135.932 111.793 136.131 111.871C136.339 111.949 136.543 111.988 136.742 111.988C137.028 111.988 137.254 111.919 137.418 111.78C137.592 111.65 137.748 111.429 137.886 111.117L138.25 110.259L138.406 110.038L140.915 104.006H142.865L139.706 111.429C139.481 111.992 139.221 112.434 138.926 112.755C138.64 113.076 138.32 113.301 137.964 113.431C137.618 113.561 137.232 113.626 136.807 113.626ZM138.003 111.273L134.883 104.006H136.976L139.394 109.856L138.003 111.273Z" fill="white"/>
</g>
<defs>
<clipPath id="clip0_201_1142">
<rect width="369" height="155" rx="20" fill="white"/>
</clipPath>
</defs>
</svg>
