<svg width="369" height="155" viewBox="0 0 369 155" fill="none" xmlns="http://www.w3.org/2000/svg">
<g clip-path="url(#clip0_218_72)">
<rect width="369" height="155" rx="15" fill="#E47B52"/>
<path d="M32.079 63V53.9H36.525C37.669 53.9 38.527 54.1167 39.099 54.55C39.6797 54.9833 39.97 55.5553 39.97 56.266C39.97 56.7427 39.853 57.1587 39.619 57.514C39.385 57.8607 39.0643 58.1293 38.657 58.32C38.2497 58.5107 37.7817 58.606 37.253 58.606L37.5 58.073C38.072 58.073 38.579 58.1683 39.021 58.359C39.463 58.541 39.8053 58.814 40.048 59.178C40.2993 59.542 40.425 59.9883 40.425 60.517C40.425 61.297 40.1173 61.908 39.502 62.35C38.8867 62.7833 37.981 63 36.785 63H32.079ZM34.172 61.414H36.629C37.175 61.414 37.5867 61.3273 37.864 61.154C38.15 60.972 38.293 60.686 38.293 60.296C38.293 59.9147 38.15 59.633 37.864 59.451C37.5867 59.2603 37.175 59.165 36.629 59.165H34.016V57.631H36.265C36.7763 57.631 37.1663 57.5443 37.435 57.371C37.7123 57.189 37.851 56.916 37.851 56.552C37.851 56.1967 37.7123 55.9323 37.435 55.759C37.1663 55.577 36.7763 55.486 36.265 55.486H34.172V61.414ZM46.1664 63V61.635L46.0364 61.336V58.892C46.0364 58.4587 45.9021 58.1207 45.6334 57.878C45.3734 57.6353 44.9704 57.514 44.4244 57.514C44.0518 57.514 43.6834 57.5747 43.3194 57.696C42.9641 57.8087 42.6608 57.9647 42.4094 58.164L41.6814 56.747C42.0628 56.4783 42.5221 56.2703 43.0594 56.123C43.5968 55.9757 44.1428 55.902 44.6974 55.902C45.7634 55.902 46.5911 56.1533 47.1804 56.656C47.7698 57.1587 48.0644 57.943 48.0644 59.009V63H46.1664ZM44.0344 63.104C43.4884 63.104 43.0204 63.013 42.6304 62.831C42.2404 62.6403 41.9414 62.3847 41.7334 62.064C41.5254 61.7433 41.4214 61.3837 41.4214 60.985C41.4214 60.569 41.5211 60.205 41.7204 59.893C41.9284 59.581 42.2534 59.3383 42.6954 59.165C43.1374 58.983 43.7138 58.892 44.4244 58.892H46.2834V60.075H44.6454C44.1688 60.075 43.8394 60.153 43.6574 60.309C43.4841 60.465 43.3974 60.66 43.3974 60.894C43.3974 61.154 43.4971 61.362 43.6964 61.518C43.9044 61.6653 44.1861 61.739 44.5414 61.739C44.8794 61.739 45.1828 61.661 45.4514 61.505C45.7201 61.3403 45.9151 61.102 46.0364 60.79L46.3484 61.726C46.2011 62.1767 45.9324 62.519 45.5424 62.753C45.1524 62.987 44.6498 63.104 44.0344 63.104ZM52.7599 63.104C51.9365 63.104 51.2952 62.896 50.8359 62.48C50.3765 62.0553 50.1469 61.427 50.1469 60.595V54.459H52.1749V60.569C52.1749 60.8637 52.2529 61.0933 52.4089 61.258C52.5649 61.414 52.7772 61.492 53.0459 61.492C53.3665 61.492 53.6395 61.4053 53.8649 61.232L54.4109 62.662C54.2029 62.8093 53.9515 62.922 53.6569 63C53.3709 63.0693 53.0719 63.104 52.7599 63.104ZM49.0679 57.722V56.162H53.9169V57.722H49.0679ZM58.7135 63.104C57.9595 63.104 57.2878 62.9523 56.6985 62.649C56.1091 62.337 55.6455 61.908 55.3075 61.362C54.9781 60.816 54.8135 60.1963 54.8135 59.503C54.8135 58.801 54.9781 58.1813 55.3075 57.644C55.6455 57.098 56.1091 56.6733 56.6985 56.37C57.2878 56.058 57.9595 55.902 58.7135 55.902C59.4501 55.902 60.0915 56.058 60.6375 56.37C61.1835 56.6733 61.5865 57.111 61.8465 57.683L60.2735 58.528C60.0915 58.1987 59.8618 57.956 59.5845 57.8C59.3158 57.644 59.0211 57.566 58.7005 57.566C58.3538 57.566 58.0418 57.644 57.7645 57.8C57.4871 57.956 57.2661 58.177 57.1015 58.463C56.9455 58.749 56.8675 59.0957 56.8675 59.503C56.8675 59.9103 56.9455 60.257 57.1015 60.543C57.2661 60.829 57.4871 61.05 57.7645 61.206C58.0418 61.362 58.3538 61.44 58.7005 61.44C59.0211 61.44 59.3158 61.3663 59.5845 61.219C59.8618 61.063 60.0915 60.816 60.2735 60.478L61.8465 61.336C61.5865 61.8993 61.1835 62.337 60.6375 62.649C60.0915 62.9523 59.4501 63.104 58.7135 63.104ZM67.227 55.902C67.7817 55.902 68.2757 56.0147 68.709 56.24C69.151 56.4567 69.4977 56.7947 69.749 57.254C70.0004 57.7047 70.126 58.2853 70.126 58.996V63H68.098V59.308C68.098 58.7447 67.9724 58.3287 67.721 58.06C67.4784 57.7913 67.1317 57.657 66.681 57.657C66.3604 57.657 66.07 57.7263 65.81 57.865C65.5587 57.995 65.3594 58.1987 65.212 58.476C65.0734 58.7533 65.004 59.1087 65.004 59.542V63H62.976V53.354H65.004V57.943L64.549 57.358C64.8004 56.89 65.16 56.5303 65.628 56.279C66.096 56.0277 66.629 55.902 67.227 55.902ZM75.789 63V53.9H77.531L81.405 60.322H80.482L84.291 53.9H86.02L86.046 63H84.07L84.057 56.929H84.421L81.379 62.038H80.43L77.323 56.929H77.765V63H75.789ZM91.39 63.104C90.6446 63.104 89.9816 62.948 89.401 62.636C88.829 62.324 88.374 61.8993 88.036 61.362C87.7066 60.816 87.542 60.1963 87.542 59.503C87.542 58.801 87.7066 58.1813 88.036 57.644C88.374 57.098 88.829 56.6733 89.401 56.37C89.9816 56.058 90.6446 55.902 91.39 55.902C92.1266 55.902 92.7853 56.058 93.366 56.37C93.9466 56.6733 94.4016 57.0937 94.731 57.631C95.0603 58.1683 95.225 58.7923 95.225 59.503C95.225 60.1963 95.0603 60.816 94.731 61.362C94.4016 61.8993 93.9466 62.324 93.366 62.636C92.7853 62.948 92.1266 63.104 91.39 63.104ZM91.39 61.44C91.728 61.44 92.0313 61.362 92.3 61.206C92.5686 61.05 92.781 60.829 92.937 60.543C93.093 60.2483 93.171 59.9017 93.171 59.503C93.171 59.0957 93.093 58.749 92.937 58.463C92.781 58.177 92.5686 57.956 92.3 57.8C92.0313 57.644 91.728 57.566 91.39 57.566C91.052 57.566 90.7486 57.644 90.48 57.8C90.2113 57.956 89.9946 58.177 89.83 58.463C89.674 58.749 89.596 59.0957 89.596 59.503C89.596 59.9017 89.674 60.2483 89.83 60.543C89.9946 60.829 90.2113 61.05 90.48 61.206C90.7486 61.362 91.052 61.44 91.39 61.44ZM99.4405 63.104C98.6172 63.104 97.9759 62.896 97.5165 62.48C97.0572 62.0553 96.8275 61.427 96.8275 60.595V54.459H98.8555V60.569C98.8555 60.8637 98.9335 61.0933 99.0895 61.258C99.2455 61.414 99.4579 61.492 99.7265 61.492C100.047 61.492 100.32 61.4053 100.546 61.232L101.092 62.662C100.884 62.8093 100.632 62.922 100.338 63C100.052 63.0693 99.7525 63.104 99.4405 63.104ZM95.7485 57.722V56.162H100.598V57.722H95.7485ZM102.23 63V56.006H104.258V63H102.23ZM103.244 55.031C102.871 55.031 102.568 54.9227 102.334 54.706C102.1 54.4893 101.983 54.2207 101.983 53.9C101.983 53.5793 102.1 53.3107 102.334 53.094C102.568 52.8773 102.871 52.769 103.244 52.769C103.617 52.769 103.92 52.873 104.154 53.081C104.388 53.2803 104.505 53.5403 104.505 53.861C104.505 54.199 104.388 54.4807 104.154 54.706C103.929 54.9227 103.625 55.031 103.244 55.031ZM109.468 63.104C108.723 63.104 108.06 62.948 107.479 62.636C106.907 62.324 106.452 61.8993 106.114 61.362C105.785 60.816 105.62 60.1963 105.62 59.503C105.62 58.801 105.785 58.1813 106.114 57.644C106.452 57.098 106.907 56.6733 107.479 56.37C108.06 56.058 108.723 55.902 109.468 55.902C110.205 55.902 110.863 56.058 111.444 56.37C112.025 56.6733 112.48 57.0937 112.809 57.631C113.138 58.1683 113.303 58.7923 113.303 59.503C113.303 60.1963 113.138 60.816 112.809 61.362C112.48 61.8993 112.025 62.324 111.444 62.636C110.863 62.948 110.205 63.104 109.468 63.104ZM109.468 61.44C109.806 61.44 110.109 61.362 110.378 61.206C110.647 61.05 110.859 60.829 111.015 60.543C111.171 60.2483 111.249 59.9017 111.249 59.503C111.249 59.0957 111.171 58.749 111.015 58.463C110.859 58.177 110.647 57.956 110.378 57.8C110.109 57.644 109.806 57.566 109.468 57.566C109.13 57.566 108.827 57.644 108.558 57.8C108.289 57.956 108.073 58.177 107.908 58.463C107.752 58.749 107.674 59.0957 107.674 59.503C107.674 59.9017 107.752 60.2483 107.908 60.543C108.073 60.829 108.289 61.05 108.558 61.206C108.827 61.362 109.13 61.44 109.468 61.44ZM118.91 55.902C119.464 55.902 119.958 56.0147 120.392 56.24C120.834 56.4567 121.18 56.7947 121.432 57.254C121.683 57.7047 121.809 58.2853 121.809 58.996V63H119.781V59.308C119.781 58.7447 119.655 58.3287 119.404 58.06C119.161 57.7913 118.814 57.657 118.364 57.657C118.043 57.657 117.753 57.7263 117.493 57.865C117.241 57.995 117.042 58.1987 116.895 58.476C116.756 58.7533 116.687 59.1087 116.687 59.542V63H114.659V56.006H116.596V57.943L116.232 57.358C116.483 56.89 116.843 56.5303 117.311 56.279C117.779 56.0277 118.312 55.902 118.91 55.902ZM123.296 65.002L124.154 61.882L124.44 63.052C124.067 63.052 123.76 62.9437 123.517 62.727C123.283 62.5103 123.166 62.2113 123.166 61.83C123.166 61.4487 123.287 61.1453 123.53 60.92C123.773 60.6947 124.072 60.582 124.427 60.582C124.791 60.582 125.09 60.699 125.324 60.933C125.558 61.1583 125.675 61.4573 125.675 61.83C125.675 61.9427 125.666 62.0553 125.649 62.168C125.632 62.272 125.597 62.402 125.545 62.558C125.502 62.7053 125.428 62.896 125.324 63.13L124.583 65.002H123.296ZM135.021 63V61.635L134.891 61.336V58.892C134.891 58.4587 134.757 58.1207 134.488 57.878C134.228 57.6353 133.825 57.514 133.279 57.514C132.906 57.514 132.538 57.5747 132.174 57.696C131.819 57.8087 131.515 57.9647 131.264 58.164L130.536 56.747C130.917 56.4783 131.377 56.2703 131.914 56.123C132.451 55.9757 132.997 55.902 133.552 55.902C134.618 55.902 135.446 56.1533 136.035 56.656C136.624 57.1587 136.919 57.943 136.919 59.009V63H135.021ZM132.889 63.104C132.343 63.104 131.875 63.013 131.485 62.831C131.095 62.6403 130.796 62.3847 130.588 62.064C130.38 61.7433 130.276 61.3837 130.276 60.985C130.276 60.569 130.376 60.205 130.575 59.893C130.783 59.581 131.108 59.3383 131.55 59.165C131.992 58.983 132.568 58.892 133.279 58.892H135.138V60.075H133.5C133.023 60.075 132.694 60.153 132.512 60.309C132.339 60.465 132.252 60.66 132.252 60.894C132.252 61.154 132.352 61.362 132.551 61.518C132.759 61.6653 133.041 61.739 133.396 61.739C133.734 61.739 134.037 61.661 134.306 61.505C134.575 61.3403 134.77 61.102 134.891 60.79L135.203 61.726C135.056 62.1767 134.787 62.519 134.397 62.753C134.007 62.987 133.504 63.104 132.889 63.104ZM143.005 55.902C143.56 55.902 144.054 56.0147 144.487 56.24C144.929 56.4567 145.276 56.7947 145.527 57.254C145.779 57.7047 145.904 58.2853 145.904 58.996V63H143.876V59.308C143.876 58.7447 143.751 58.3287 143.499 58.06C143.257 57.7913 142.91 57.657 142.459 57.657C142.139 57.657 141.848 57.7263 141.588 57.865C141.337 57.995 141.138 58.1987 140.99 58.476C140.852 58.7533 140.782 59.1087 140.782 59.542V63H138.754V56.006H140.691V57.943L140.327 57.358C140.579 56.89 140.938 56.5303 141.406 56.279C141.874 56.0277 142.407 55.902 143.005 55.902ZM36.226 82V80.635L36.096 80.336V77.892C36.096 77.4587 35.9617 77.1207 35.693 76.878C35.433 76.6353 35.03 76.514 34.484 76.514C34.1113 76.514 33.743 76.5747 33.379 76.696C33.0237 76.8087 32.7203 76.9647 32.469 77.164L31.741 75.747C32.1223 75.4783 32.5817 75.2703 33.119 75.123C33.6563 74.9757 34.2023 74.902 34.757 74.902C35.823 74.902 36.6507 75.1533 37.24 75.656C37.8293 76.1587 38.124 76.943 38.124 78.009V82H36.226ZM34.094 82.104C33.548 82.104 33.08 82.013 32.69 81.831C32.3 81.6403 32.001 81.3847 31.793 81.064C31.585 80.7433 31.481 80.3837 31.481 79.985C31.481 79.569 31.5807 79.205 31.78 78.893C31.988 78.581 32.313 78.3383 32.755 78.165C33.197 77.983 33.7733 77.892 34.484 77.892H36.343V79.075H34.705C34.2283 79.075 33.899 79.153 33.717 79.309C33.5437 79.465 33.457 79.66 33.457 79.894C33.457 80.154 33.5567 80.362 33.756 80.518C33.964 80.6653 34.2457 80.739 34.601 80.739C34.939 80.739 35.2423 80.661 35.511 80.505C35.7797 80.3403 35.9747 80.102 36.096 79.79L36.408 80.726C36.2607 81.1767 35.992 81.519 35.602 81.753C35.212 81.987 34.7093 82.104 34.094 82.104ZM44.2104 74.902C44.7651 74.902 45.2591 75.0147 45.6924 75.24C46.1344 75.4567 46.4811 75.7947 46.7324 76.254C46.9838 76.7047 47.1094 77.2853 47.1094 77.996V82H45.0814V78.308C45.0814 77.7447 44.9558 77.3287 44.7044 77.06C44.4618 76.7913 44.1151 76.657 43.6644 76.657C43.3438 76.657 43.0534 76.7263 42.7934 76.865C42.5421 76.995 42.3428 77.1987 42.1954 77.476C42.0568 77.7533 41.9874 78.1087 41.9874 78.542V82H39.9594V75.006H41.8964V76.943L41.5324 76.358C41.7838 75.89 42.1434 75.5303 42.6114 75.279C43.0794 75.0277 43.6124 74.902 44.2104 74.902ZM48.9477 82V75.006H50.9757V82H48.9477ZM49.9617 74.031C49.5891 74.031 49.2857 73.9227 49.0517 73.706C48.8177 73.4893 48.7007 73.2207 48.7007 72.9C48.7007 72.5793 48.8177 72.3107 49.0517 72.094C49.2857 71.8773 49.5891 71.769 49.9617 71.769C50.3344 71.769 50.6377 71.873 50.8717 72.081C51.1057 72.2803 51.2227 72.5403 51.2227 72.861C51.2227 73.199 51.1057 73.4807 50.8717 73.706C50.6464 73.9227 50.3431 74.031 49.9617 74.031ZM61.8149 74.902C62.3695 74.902 62.8592 75.0147 63.2839 75.24C63.7172 75.4567 64.0552 75.7947 64.2979 76.254C64.5492 76.7047 64.6749 77.2853 64.6749 77.996V82H62.6469V78.308C62.6469 77.7447 62.5299 77.3287 62.2959 77.06C62.0619 76.7913 61.7325 76.657 61.3079 76.657C61.0132 76.657 60.7489 76.7263 60.5149 76.865C60.2809 76.995 60.0989 77.1943 59.9689 77.463C59.8389 77.7317 59.7739 78.074 59.7739 78.49V82H57.7459V78.308C57.7459 77.7447 57.6289 77.3287 57.3949 77.06C57.1695 76.7913 56.8445 76.657 56.4199 76.657C56.1252 76.657 55.8609 76.7263 55.6269 76.865C55.3929 76.995 55.2109 77.1943 55.0809 77.463C54.9509 77.7317 54.8859 78.074 54.8859 78.49V82H52.8579V75.006H54.7949V76.917L54.4309 76.358C54.6735 75.8813 55.0159 75.5217 55.4579 75.279C55.9085 75.0277 56.4199 74.902 56.9919 74.902C57.6332 74.902 58.1922 75.0667 58.6689 75.396C59.1542 75.7167 59.4749 76.2107 59.6309 76.878L58.9159 76.683C59.1499 76.137 59.5225 75.7037 60.0339 75.383C60.5539 75.0623 61.1475 74.902 61.8149 74.902ZM70.7826 82V80.635L70.6526 80.336V77.892C70.6526 77.4587 70.5183 77.1207 70.2496 76.878C69.9896 76.6353 69.5866 76.514 69.0406 76.514C68.668 76.514 68.2996 76.5747 67.9356 76.696C67.5803 76.8087 67.277 76.9647 67.0256 77.164L66.2976 75.747C66.679 75.4783 67.1383 75.2703 67.6756 75.123C68.213 74.9757 68.759 74.902 69.3136 74.902C70.3796 74.902 71.2073 75.1533 71.7966 75.656C72.386 76.1587 72.6806 76.943 72.6806 78.009V82H70.7826ZM68.6506 82.104C68.1046 82.104 67.6366 82.013 67.2466 81.831C66.8566 81.6403 66.5576 81.3847 66.3496 81.064C66.1416 80.7433 66.0376 80.3837 66.0376 79.985C66.0376 79.569 66.1373 79.205 66.3366 78.893C66.5446 78.581 66.8696 78.3383 67.3116 78.165C67.7536 77.983 68.33 77.892 69.0406 77.892H70.8996V79.075H69.2616C68.785 79.075 68.4556 79.153 68.2736 79.309C68.1003 79.465 68.0136 79.66 68.0136 79.894C68.0136 80.154 68.1133 80.362 68.3126 80.518C68.5206 80.6653 68.8023 80.739 69.1576 80.739C69.4956 80.739 69.799 80.661 70.0676 80.505C70.3363 80.3403 70.5313 80.102 70.6526 79.79L70.9646 80.726C70.8173 81.1767 70.5486 81.519 70.1586 81.753C69.7686 81.987 69.266 82.104 68.6506 82.104ZM77.3761 82.104C76.5527 82.104 75.9114 81.896 75.4521 81.48C74.9927 81.0553 74.7631 80.427 74.7631 79.595V73.459H76.7911V79.569C76.7911 79.8637 76.8691 80.0933 77.0251 80.258C77.1811 80.414 77.3934 80.492 77.6621 80.492C77.9827 80.492 78.2557 80.4053 78.4811 80.232L79.0271 81.662C78.8191 81.8093 78.5677 81.922 78.2731 82C77.9871 82.0693 77.6881 82.104 77.3761 82.104ZM73.6841 76.722V75.162H78.5331V76.722H73.6841ZM80.1655 82V75.006H82.1935V82H80.1655ZM81.1795 74.031C80.8068 74.031 80.5035 73.9227 80.2695 73.706C80.0355 73.4893 79.9185 73.2207 79.9185 72.9C79.9185 72.5793 80.0355 72.3107 80.2695 72.094C80.5035 71.8773 80.8068 71.769 81.1795 71.769C81.5522 71.769 81.8555 71.873 82.0895 72.081C82.3235 72.2803 82.4405 72.5403 82.4405 72.861C82.4405 73.199 82.3235 73.4807 82.0895 73.706C81.8642 73.9227 81.5608 74.031 81.1795 74.031ZM87.4036 82.104C86.6583 82.104 85.9953 81.948 85.4146 81.636C84.8426 81.324 84.3876 80.8993 84.0496 80.362C83.7203 79.816 83.5556 79.1963 83.5556 78.503C83.5556 77.801 83.7203 77.1813 84.0496 76.644C84.3876 76.098 84.8426 75.6733 85.4146 75.37C85.9953 75.058 86.6583 74.902 87.4036 74.902C88.1403 74.902 88.799 75.058 89.3796 75.37C89.9603 75.6733 90.4153 76.0937 90.7446 76.631C91.074 77.1683 91.2386 77.7923 91.2386 78.503C91.2386 79.1963 91.074 79.816 90.7446 80.362C90.4153 80.8993 89.9603 81.324 89.3796 81.636C88.799 81.948 88.1403 82.104 87.4036 82.104ZM87.4036 80.44C87.7416 80.44 88.045 80.362 88.3136 80.206C88.5823 80.05 88.7946 79.829 88.9506 79.543C89.1066 79.2483 89.1846 78.9017 89.1846 78.503C89.1846 78.0957 89.1066 77.749 88.9506 77.463C88.7946 77.177 88.5823 76.956 88.3136 76.8C88.045 76.644 87.7416 76.566 87.4036 76.566C87.0656 76.566 86.7623 76.644 86.4936 76.8C86.225 76.956 86.0083 77.177 85.8436 77.463C85.6876 77.749 85.6096 78.0957 85.6096 78.503C85.6096 78.9017 85.6876 79.2483 85.8436 79.543C86.0083 79.829 86.225 80.05 86.4936 80.206C86.7623 80.362 87.0656 80.44 87.4036 80.44ZM96.8452 74.902C97.3999 74.902 97.8939 75.0147 98.3272 75.24C98.7692 75.4567 99.1159 75.7947 99.3672 76.254C99.6185 76.7047 99.7442 77.2853 99.7442 77.996V82H97.7162V78.308C97.7162 77.7447 97.5905 77.3287 97.3392 77.06C97.0965 76.7913 96.7499 76.657 96.2992 76.657C95.9785 76.657 95.6882 76.7263 95.4282 76.865C95.1769 76.995 94.9775 77.1987 94.8302 77.476C94.6915 77.7533 94.6222 78.1087 94.6222 78.542V82H92.5942V75.006H94.5312V76.943L94.1672 76.358C94.4185 75.89 94.7782 75.5303 95.2462 75.279C95.7142 75.0277 96.2472 74.902 96.8452 74.902ZM108.592 82.104C107.847 82.104 107.184 81.948 106.603 81.636C106.031 81.324 105.576 80.8993 105.238 80.362C104.909 79.816 104.744 79.1963 104.744 78.503C104.744 77.801 104.909 77.1813 105.238 76.644C105.576 76.098 106.031 75.6733 106.603 75.37C107.184 75.058 107.847 74.902 108.592 74.902C109.329 74.902 109.987 75.058 110.568 75.37C111.149 75.6733 111.604 76.0937 111.933 76.631C112.262 77.1683 112.427 77.7923 112.427 78.503C112.427 79.1963 112.262 79.816 111.933 80.362C111.604 80.8993 111.149 81.324 110.568 81.636C109.987 81.948 109.329 82.104 108.592 82.104ZM108.592 80.44C108.93 80.44 109.233 80.362 109.502 80.206C109.771 80.05 109.983 79.829 110.139 79.543C110.295 79.2483 110.373 78.9017 110.373 78.503C110.373 78.0957 110.295 77.749 110.139 77.463C109.983 77.177 109.771 76.956 109.502 76.8C109.233 76.644 108.93 76.566 108.592 76.566C108.254 76.566 107.951 76.644 107.682 76.8C107.413 76.956 107.197 77.177 107.032 77.463C106.876 77.749 106.798 78.0957 106.798 78.503C106.798 78.9017 106.876 79.2483 107.032 79.543C107.197 79.829 107.413 80.05 107.682 80.206C107.951 80.362 108.254 80.44 108.592 80.44ZM114.03 82V74.85C114.03 74.0613 114.264 73.433 114.732 72.965C115.2 72.4883 115.867 72.25 116.734 72.25C117.028 72.25 117.31 72.2803 117.579 72.341C117.856 72.4017 118.09 72.497 118.281 72.627L117.748 74.096C117.635 74.018 117.509 73.9573 117.371 73.914C117.232 73.8707 117.085 73.849 116.929 73.849C116.634 73.849 116.404 73.9357 116.24 74.109C116.084 74.2737 116.006 74.525 116.006 74.863V75.513L116.058 76.384V82H114.03ZM112.951 76.722V75.162H117.8V76.722H112.951ZM122.635 82V72.9H127.081C128.225 72.9 129.083 73.1167 129.655 73.55C130.235 73.9833 130.526 74.5553 130.526 75.266C130.526 75.7427 130.409 76.1587 130.175 76.514C129.941 76.8607 129.62 77.1293 129.213 77.32C128.805 77.5107 128.337 77.606 127.809 77.606L128.056 77.073C128.628 77.073 129.135 77.1683 129.577 77.359C130.019 77.541 130.361 77.814 130.604 78.178C130.855 78.542 130.981 78.9883 130.981 79.517C130.981 80.297 130.673 80.908 130.058 81.35C129.442 81.7833 128.537 82 127.341 82H122.635ZM124.728 80.414H127.185C127.731 80.414 128.142 80.3273 128.42 80.154C128.706 79.972 128.849 79.686 128.849 79.296C128.849 78.9147 128.706 78.633 128.42 78.451C128.142 78.2603 127.731 78.165 127.185 78.165H124.572V76.631H126.821C127.332 76.631 127.722 76.5443 127.991 76.371C128.268 76.189 128.407 75.916 128.407 75.552C128.407 75.1967 128.268 74.9323 127.991 74.759C127.722 74.577 127.332 74.486 126.821 74.486H124.728V80.414ZM136.722 82V80.635L136.592 80.336V77.892C136.592 77.4587 136.458 77.1207 136.189 76.878C135.929 76.6353 135.526 76.514 134.98 76.514C134.607 76.514 134.239 76.5747 133.875 76.696C133.52 76.8087 133.216 76.9647 132.965 77.164L132.237 75.747C132.618 75.4783 133.078 75.2703 133.615 75.123C134.152 74.9757 134.698 74.902 135.253 74.902C136.319 74.902 137.147 75.1533 137.736 75.656C138.325 76.1587 138.62 76.943 138.62 78.009V82H136.722ZM134.59 82.104C134.044 82.104 133.576 82.013 133.186 81.831C132.796 81.6403 132.497 81.3847 132.289 81.064C132.081 80.7433 131.977 80.3837 131.977 79.985C131.977 79.569 132.077 79.205 132.276 78.893C132.484 78.581 132.809 78.3383 133.251 78.165C133.693 77.983 134.269 77.892 134.98 77.892H136.839V79.075H135.201C134.724 79.075 134.395 79.153 134.213 79.309C134.04 79.465 133.953 79.66 133.953 79.894C133.953 80.154 134.053 80.362 134.252 80.518C134.46 80.6653 134.742 80.739 135.097 80.739C135.435 80.739 135.738 80.661 136.007 80.505C136.276 80.3403 136.471 80.102 136.592 79.79L136.904 80.726C136.757 81.1767 136.488 81.519 136.098 81.753C135.708 81.987 135.205 82.104 134.59 82.104ZM143.316 82.104C142.492 82.104 141.851 81.896 141.392 81.48C140.932 81.0553 140.703 80.427 140.703 79.595V73.459H142.731V79.569C142.731 79.8637 142.809 80.0933 142.965 80.258C143.121 80.414 143.333 80.492 143.602 80.492C143.922 80.492 144.195 80.4053 144.421 80.232L144.967 81.662C144.759 81.8093 144.507 81.922 144.213 82C143.927 82.0693 143.628 82.104 143.316 82.104ZM139.624 76.722V75.162H144.473V76.722H139.624ZM149.269 82.104C148.515 82.104 147.843 81.9523 147.254 81.649C146.665 81.337 146.201 80.908 145.863 80.362C145.534 79.816 145.369 79.1963 145.369 78.503C145.369 77.801 145.534 77.1813 145.863 76.644C146.201 76.098 146.665 75.6733 147.254 75.37C147.843 75.058 148.515 74.902 149.269 74.902C150.006 74.902 150.647 75.058 151.193 75.37C151.739 75.6733 152.142 76.111 152.402 76.683L150.829 77.528C150.647 77.1987 150.417 76.956 150.14 76.8C149.871 76.644 149.577 76.566 149.256 76.566C148.909 76.566 148.597 76.644 148.32 76.8C148.043 76.956 147.822 77.177 147.657 77.463C147.501 77.749 147.423 78.0957 147.423 78.503C147.423 78.9103 147.501 79.257 147.657 79.543C147.822 79.829 148.043 80.05 148.32 80.206C148.597 80.362 148.909 80.44 149.256 80.44C149.577 80.44 149.871 80.3663 150.14 80.219C150.417 80.063 150.647 79.816 150.829 79.478L152.402 80.336C152.142 80.8993 151.739 81.337 151.193 81.649C150.647 81.9523 150.006 82.104 149.269 82.104ZM157.783 74.902C158.337 74.902 158.831 75.0147 159.265 75.24C159.707 75.4567 160.053 75.7947 160.305 76.254C160.556 76.7047 160.682 77.2853 160.682 77.996V82H158.654V78.308C158.654 77.7447 158.528 77.3287 158.277 77.06C158.034 76.7913 157.687 76.657 157.237 76.657C156.916 76.657 156.626 76.7263 156.366 76.865C156.114 76.995 155.915 77.1987 155.768 77.476C155.629 77.7533 155.56 78.1087 155.56 78.542V82H153.532V72.354H155.56V76.943L155.105 76.358C155.356 75.89 155.716 75.5303 156.184 75.279C156.652 75.0277 157.185 74.902 157.783 74.902ZM35.316 101.104C34.562 101.104 33.8903 100.952 33.301 100.649C32.7117 100.337 32.248 99.908 31.91 99.362C31.5807 98.816 31.416 98.1963 31.416 97.503C31.416 96.801 31.5807 96.1813 31.91 95.644C32.248 95.098 32.7117 94.6733 33.301 94.37C33.8903 94.058 34.562 93.902 35.316 93.902C36.0527 93.902 36.694 94.058 37.24 94.37C37.786 94.6733 38.189 95.111 38.449 95.683L36.876 96.528C36.694 96.1987 36.4643 95.956 36.187 95.8C35.9183 95.644 35.6237 95.566 35.303 95.566C34.9563 95.566 34.6443 95.644 34.367 95.8C34.0897 95.956 33.8687 96.177 33.704 96.463C33.548 96.749 33.47 97.0957 33.47 97.503C33.47 97.9103 33.548 98.257 33.704 98.543C33.8687 98.829 34.0897 99.05 34.367 99.206C34.6443 99.362 34.9563 99.44 35.303 99.44C35.6237 99.44 35.9183 99.3663 36.187 99.219C36.4643 99.063 36.694 98.816 36.876 98.478L38.449 99.336C38.189 99.8993 37.786 100.337 37.24 100.649C36.694 100.952 36.0527 101.104 35.316 101.104ZM42.8558 101.104C42.1105 101.104 41.4475 100.948 40.8668 100.636C40.2948 100.324 39.8398 99.8993 39.5018 99.362C39.1725 98.816 39.0078 98.1963 39.0078 97.503C39.0078 96.801 39.1725 96.1813 39.5018 95.644C39.8398 95.098 40.2948 94.6733 40.8668 94.37C41.4475 94.058 42.1105 93.902 42.8558 93.902C43.5925 93.902 44.2511 94.058 44.8318 94.37C45.4125 94.6733 45.8675 95.0937 46.1968 95.631C46.5261 96.1683 46.6908 96.7923 46.6908 97.503C46.6908 98.1963 46.5261 98.816 46.1968 99.362C45.8675 99.8993 45.4125 100.324 44.8318 100.636C44.2511 100.948 43.5925 101.104 42.8558 101.104ZM42.8558 99.44C43.1938 99.44 43.4971 99.362 43.7658 99.206C44.0345 99.05 44.2468 98.829 44.4028 98.543C44.5588 98.2483 44.6368 97.9017 44.6368 97.503C44.6368 97.0957 44.5588 96.749 44.4028 96.463C44.2468 96.177 44.0345 95.956 43.7658 95.8C43.4971 95.644 43.1938 95.566 42.8558 95.566C42.5178 95.566 42.2145 95.644 41.9458 95.8C41.6771 95.956 41.4605 96.177 41.2958 96.463C41.1398 96.749 41.0618 97.0957 41.0618 97.503C41.0618 97.9017 41.1398 98.2483 41.2958 98.543C41.4605 98.829 41.6771 99.05 41.9458 99.206C42.2145 99.362 42.5178 99.44 42.8558 99.44ZM57.0034 93.902C57.558 93.902 58.0477 94.0147 58.4724 94.24C58.9057 94.4567 59.2437 94.7947 59.4864 95.254C59.7377 95.7047 59.8634 96.2853 59.8634 96.996V101H57.8354V97.308C57.8354 96.7447 57.7184 96.3287 57.4844 96.06C57.2504 95.7913 56.921 95.657 56.4964 95.657C56.2017 95.657 55.9374 95.7263 55.7034 95.865C55.4694 95.995 55.2874 96.1943 55.1574 96.463C55.0274 96.7317 54.9624 97.074 54.9624 97.49V101H52.9344V97.308C52.9344 96.7447 52.8174 96.3287 52.5834 96.06C52.358 95.7913 52.033 95.657 51.6084 95.657C51.3137 95.657 51.0494 95.7263 50.8154 95.865C50.5814 95.995 50.3994 96.1943 50.2694 96.463C50.1394 96.7317 50.0744 97.074 50.0744 97.49V101H48.0464V94.006H49.9834V95.917L49.6194 95.358C49.862 94.8813 50.2044 94.5217 50.6464 94.279C51.097 94.0277 51.6084 93.902 52.1804 93.902C52.8217 93.902 53.3807 94.0667 53.8574 94.396C54.3427 94.7167 54.6634 95.2107 54.8194 95.878L54.1044 95.683C54.3384 95.137 54.711 94.7037 55.2224 94.383C55.7424 94.0623 56.336 93.902 57.0034 93.902ZM65.8151 101.104C65.2258 101.104 64.7101 100.974 64.2681 100.714C63.8261 100.454 63.4795 100.06 63.2281 99.531C62.9855 98.9937 62.8641 98.3177 62.8641 97.503C62.8641 96.6797 62.9811 96.0037 63.2151 95.475C63.4491 94.9463 63.7871 94.552 64.2291 94.292C64.6711 94.032 65.1998 93.902 65.8151 93.902C66.4738 93.902 67.0631 94.0537 67.5831 94.357C68.1118 94.6517 68.5278 95.0677 68.8311 95.605C69.1431 96.1423 69.2991 96.775 69.2991 97.503C69.2991 98.2397 69.1431 98.8767 68.8311 99.414C68.5278 99.9513 68.1118 100.367 67.5831 100.662C67.0631 100.957 66.4738 101.104 65.8151 101.104ZM61.6811 103.522V94.006H63.6181V95.436L63.5791 97.516L63.7091 99.583V103.522H61.6811ZM65.4641 99.44C65.8021 99.44 66.1011 99.362 66.3611 99.206C66.6298 99.05 66.8421 98.829 66.9981 98.543C67.1628 98.2483 67.2451 97.9017 67.2451 97.503C67.2451 97.0957 67.1628 96.749 66.9981 96.463C66.8421 96.177 66.6298 95.956 66.3611 95.8C66.1011 95.644 65.8021 95.566 65.4641 95.566C65.1261 95.566 64.8228 95.644 64.5541 95.8C64.2855 95.956 64.0731 96.177 63.9171 96.463C63.7611 96.749 63.6831 97.0957 63.6831 97.503C63.6831 97.9017 63.7611 98.2483 63.9171 98.543C64.0731 98.829 64.2855 99.05 64.5541 99.206C64.8228 99.362 65.1261 99.44 65.4641 99.44ZM74.8324 101V99.635L74.7024 99.336V96.892C74.7024 96.4587 74.5681 96.1207 74.2994 95.878C74.0394 95.6353 73.6364 95.514 73.0904 95.514C72.7178 95.514 72.3494 95.5747 71.9854 95.696C71.6301 95.8087 71.3268 95.9647 71.0754 96.164L70.3474 94.747C70.7288 94.4783 71.1881 94.2703 71.7254 94.123C72.2628 93.9757 72.8088 93.902 73.3634 93.902C74.4294 93.902 75.2571 94.1533 75.8464 94.656C76.4358 95.1587 76.7304 95.943 76.7304 97.009V101H74.8324ZM72.7004 101.104C72.1544 101.104 71.6864 101.013 71.2964 100.831C70.9064 100.64 70.6074 100.385 70.3994 100.064C70.1914 99.7433 70.0874 99.3837 70.0874 98.985C70.0874 98.569 70.1871 98.205 70.3864 97.893C70.5944 97.581 70.9194 97.3383 71.3614 97.165C71.8034 96.983 72.3798 96.892 73.0904 96.892H74.9494V98.075H73.3114C72.8348 98.075 72.5054 98.153 72.3234 98.309C72.1501 98.465 72.0634 98.66 72.0634 98.894C72.0634 99.154 72.1631 99.362 72.3624 99.518C72.5704 99.6653 72.8521 99.739 73.2074 99.739C73.5454 99.739 73.8488 99.661 74.1174 99.505C74.3861 99.3403 74.5811 99.102 74.7024 98.79L75.0144 99.726C74.8671 100.177 74.5984 100.519 74.2084 100.753C73.8184 100.987 73.3158 101.104 72.7004 101.104ZM82.8169 93.902C83.3715 93.902 83.8655 94.0147 84.2989 94.24C84.7409 94.4567 85.0875 94.7947 85.3389 95.254C85.5902 95.7047 85.7159 96.2853 85.7159 96.996V101H83.6879V97.308C83.6879 96.7447 83.5622 96.3287 83.3109 96.06C83.0682 95.7913 82.7215 95.657 82.2709 95.657C81.9502 95.657 81.6599 95.7263 81.3999 95.865C81.1485 95.995 80.9492 96.1987 80.8019 96.476C80.6632 96.7533 80.5939 97.1087 80.5939 97.542V101H78.5659V94.006H80.5029V95.943L80.1389 95.358C80.3902 94.89 80.7499 94.5303 81.2179 94.279C81.6859 94.0277 82.2189 93.902 82.8169 93.902ZM88.3112 103.626C87.9472 103.626 87.5875 103.57 87.2322 103.457C86.8769 103.344 86.5865 103.188 86.3612 102.989L87.1022 101.546C87.2582 101.685 87.4359 101.793 87.6352 101.871C87.8432 101.949 88.0469 101.988 88.2462 101.988C88.5322 101.988 88.7575 101.919 88.9222 101.78C89.0955 101.65 89.2515 101.429 89.3902 101.117L89.7542 100.259L89.9102 100.038L92.4192 94.006H94.3692L91.2102 101.429C90.9849 101.992 90.7249 102.434 90.4302 102.755C90.1442 103.076 89.8235 103.301 89.4682 103.431C89.1215 103.561 88.7359 103.626 88.3112 103.626ZM89.5072 101.273L86.3872 94.006H88.4802L90.8982 99.856L89.5072 101.273ZM95.0108 95.67L95.8688 92.55L96.1548 93.733C95.7821 93.733 95.4744 93.6247 95.2318 93.408C94.9978 93.1827 94.8808 92.8793 94.8808 92.498C94.8808 92.1253 95.0021 91.8263 95.2448 91.601C95.4874 91.367 95.7864 91.25 96.1418 91.25C96.5058 91.25 96.8048 91.367 97.0388 91.601C97.2728 91.8263 97.3898 92.1253 97.3898 92.498C97.3898 92.6107 97.3811 92.7233 97.3638 92.836C97.3551 92.94 97.3248 93.0657 97.2728 93.213C97.2294 93.3603 97.1558 93.5553 97.0518 93.798L96.2978 95.67H95.0108ZM100.889 101.104C100.291 101.104 99.7143 101.035 99.1596 100.896C98.6136 100.749 98.1803 100.567 97.8596 100.35L98.5356 98.894C98.8563 99.0933 99.2333 99.258 99.6666 99.388C100.109 99.5093 100.542 99.57 100.967 99.57C101.435 99.57 101.764 99.5137 101.955 99.401C102.154 99.2883 102.254 99.1323 102.254 98.933C102.254 98.7683 102.176 98.647 102.02 98.569C101.872 98.4823 101.673 98.4173 101.422 98.374C101.17 98.3307 100.893 98.2873 100.59 98.244C100.295 98.2007 99.9959 98.1443 99.6926 98.075C99.3893 97.997 99.1119 97.8843 98.8606 97.737C98.6093 97.5897 98.4056 97.3903 98.2496 97.139C98.1023 96.8877 98.0286 96.5627 98.0286 96.164C98.0286 95.722 98.1543 95.332 98.4056 94.994C98.6656 94.656 99.0383 94.3917 99.5236 94.201C100.009 94.0017 100.59 93.902 101.266 93.902C101.742 93.902 102.228 93.954 102.722 94.058C103.216 94.162 103.627 94.3137 103.957 94.513L103.281 95.956C102.943 95.7567 102.6 95.6223 102.254 95.553C101.916 95.475 101.586 95.436 101.266 95.436C100.815 95.436 100.486 95.4967 100.278 95.618C100.07 95.7393 99.9656 95.8953 99.9656 96.086C99.9656 96.2593 100.039 96.3893 100.187 96.476C100.343 96.5627 100.546 96.632 100.798 96.684C101.049 96.736 101.322 96.7837 101.617 96.827C101.92 96.8617 102.223 96.918 102.527 96.996C102.83 97.074 103.103 97.1867 103.346 97.334C103.597 97.4727 103.801 97.6677 103.957 97.919C104.113 98.1617 104.191 98.4823 104.191 98.881C104.191 99.3143 104.061 99.7 103.801 100.038C103.541 100.367 103.164 100.627 102.67 100.818C102.184 101.009 101.591 101.104 100.889 101.104ZM109.124 101V91.354H111.152V101H109.124ZM116.362 101.104C115.616 101.104 114.953 100.948 114.373 100.636C113.801 100.324 113.346 99.8993 113.008 99.362C112.678 98.816 112.514 98.1963 112.514 97.503C112.514 96.801 112.678 96.1813 113.008 95.644C113.346 95.098 113.801 94.6733 114.373 94.37C114.953 94.058 115.616 93.902 116.362 93.902C117.098 93.902 117.757 94.058 118.338 94.37C118.918 94.6733 119.373 95.0937 119.703 95.631C120.032 96.1683 120.197 96.7923 120.197 97.503C120.197 98.1963 120.032 98.816 119.703 99.362C119.373 99.8993 118.918 100.324 118.338 100.636C117.757 100.948 117.098 101.104 116.362 101.104ZM116.362 99.44C116.7 99.44 117.003 99.362 117.272 99.206C117.54 99.05 117.753 98.829 117.909 98.543C118.065 98.2483 118.143 97.9017 118.143 97.503C118.143 97.0957 118.065 96.749 117.909 96.463C117.753 96.177 117.54 95.956 117.272 95.8C117.003 95.644 116.7 95.566 116.362 95.566C116.024 95.566 115.72 95.644 115.452 95.8C115.183 95.956 114.966 96.177 114.802 96.463C114.646 96.749 114.568 97.0957 114.568 97.503C114.568 97.9017 114.646 98.2483 114.802 98.543C114.966 98.829 115.183 99.05 115.452 99.206C115.72 99.362 116.024 99.44 116.362 99.44ZM124.841 103.626C124.183 103.626 123.546 103.544 122.93 103.379C122.324 103.223 121.817 102.985 121.409 102.664L122.215 101.208C122.51 101.451 122.883 101.641 123.333 101.78C123.793 101.927 124.243 102.001 124.685 102.001C125.405 102.001 125.925 101.841 126.245 101.52C126.575 101.199 126.739 100.723 126.739 100.09V99.037L126.869 97.282L126.843 95.514V94.006H128.767V99.83C128.767 101.13 128.429 102.088 127.753 102.703C127.077 103.318 126.107 103.626 124.841 103.626ZM124.529 100.662C123.879 100.662 123.29 100.523 122.761 100.246C122.241 99.96 121.821 99.5657 121.5 99.063C121.188 98.5517 121.032 97.958 121.032 97.282C121.032 96.5973 121.188 96.0037 121.5 95.501C121.821 94.9897 122.241 94.5953 122.761 94.318C123.29 94.0407 123.879 93.902 124.529 93.902C125.119 93.902 125.639 94.0233 126.089 94.266C126.54 94.5 126.891 94.8683 127.142 95.371C127.394 95.865 127.519 96.502 127.519 97.282C127.519 98.0533 127.394 98.6903 127.142 99.193C126.891 99.687 126.54 100.055 126.089 100.298C125.639 100.541 125.119 100.662 124.529 100.662ZM124.932 98.998C125.288 98.998 125.604 98.9287 125.881 98.79C126.159 98.6427 126.375 98.439 126.531 98.179C126.687 97.919 126.765 97.62 126.765 97.282C126.765 96.9353 126.687 96.6363 126.531 96.385C126.375 96.125 126.159 95.9257 125.881 95.787C125.604 95.6397 125.288 95.566 124.932 95.566C124.577 95.566 124.261 95.6397 123.983 95.787C123.706 95.9257 123.485 96.125 123.32 96.385C123.164 96.6363 123.086 96.9353 123.086 97.282C123.086 97.62 123.164 97.919 123.32 98.179C123.485 98.439 123.706 98.6427 123.983 98.79C124.261 98.9287 124.577 98.998 124.932 98.998ZM133.983 101.104C133.237 101.104 132.574 100.948 131.994 100.636C131.422 100.324 130.967 99.8993 130.629 99.362C130.299 98.816 130.135 98.1963 130.135 97.503C130.135 96.801 130.299 96.1813 130.629 95.644C130.967 95.098 131.422 94.6733 131.994 94.37C132.574 94.058 133.237 93.902 133.983 93.902C134.719 93.902 135.378 94.058 135.959 94.37C136.539 94.6733 136.994 95.0937 137.324 95.631C137.653 96.1683 137.818 96.7923 137.818 97.503C137.818 98.1963 137.653 98.816 137.324 99.362C136.994 99.8993 136.539 100.324 135.959 100.636C135.378 100.948 134.719 101.104 133.983 101.104ZM133.983 99.44C134.321 99.44 134.624 99.362 134.893 99.206C135.161 99.05 135.374 98.829 135.53 98.543C135.686 98.2483 135.764 97.9017 135.764 97.503C135.764 97.0957 135.686 96.749 135.53 96.463C135.374 96.177 135.161 95.956 134.893 95.8C134.624 95.644 134.321 95.566 133.983 95.566C133.645 95.566 133.341 95.644 133.073 95.8C132.804 95.956 132.587 96.177 132.423 96.463C132.267 96.749 132.189 97.0957 132.189 97.503C132.189 97.9017 132.267 98.2483 132.423 98.543C132.587 98.829 132.804 99.05 133.073 99.206C133.341 99.362 133.645 99.44 133.983 99.44Z" fill="white"/>
<rect x="176" y="55.895" width="286.791" height="286.791" rx="20" transform="rotate(-15.76 176 55.895)" fill="#F9DD6C"/>
<path d="M338.968 94.5151L214.839 129.547L213 123.032" stroke="black" stroke-width="3"/>
<path d="M247.288 107.061C248.821 112.493 245.598 118.197 240.03 119.768C234.463 121.339 228.734 118.162 227.201 112.73C225.668 107.299 228.891 101.595 234.458 100.024C240.025 98.4527 245.755 101.63 247.288 107.061Z" stroke="black" stroke-width="3"/>
<ellipse cx="237.121" cy="110.116" rx="2.49405" ry="2.6722" transform="rotate(-15.76 237.121 110.116)" fill="black"/>
<path d="M237.336 111.131L235.555 104.82M237.336 111.131L242.007 106.441M237.336 111.131L242.917 114.218M237.336 111.131L234.192 116.681M237.336 111.131L231.034 109.538" stroke="black" stroke-width="3"/>
</g>
<defs>
<clipPath id="clip0_218_72">
<rect width="369" height="155" rx="15" fill="white"/>
</clipPath>
</defs>
</svg>
