<svg width="45" height="45" viewBox="0 0 45 45" fill="none" xmlns="http://www.w3.org/2000/svg">
<circle cx="22.5" cy="22.5" r="22.5" fill="white"/>
<g clip-path="url(#clip0_232_368)">
<path d="M15.6818 31.9065V22.1692L12.6862 19.4065L10 17.8734V30.1881C10 31.1389 10.7642 31.9065 11.7046 31.9065H15.6818V31.9065Z" fill="#4285F4"/>
<path d="M29.3181 31.9065H33.2954C34.2386 31.9065 35 31.136 35 30.1881V17.8735L31.9574 19.6295L29.3181 22.1692V31.9065V31.9065Z" fill="#34A853"/>
<path d="M15.6818 22.1692L15.2742 18.3646L15.6818 14.7232L22.5 19.8782L29.3181 14.7232L29.7741 18.168L29.3181 22.1692L22.5 27.3242L15.6818 22.1692Z" fill="#EA4335"/>
<path d="M29.3181 14.7232V22.1692L35 17.8735V15.5823C35 13.4574 32.5937 12.246 30.9091 13.5204L29.3181 14.7232Z" fill="#FBBC04"/>
<path d="M10 17.8733L12.6132 19.8491L15.6818 22.1691V14.7231L14.0908 13.5202C12.4033 12.2458 10 13.4572 10 15.5821V17.8732V17.8733Z" fill="#C5221F"/>
</g>
<defs>
<clipPath id="clip0_232_368">
<rect width="25" height="19" fill="white" transform="translate(10 13)"/>
</clipPath>
</defs>
</svg>
