<svg width="45" height="45" viewBox="0 0 45 45" fill="none" xmlns="http://www.w3.org/2000/svg">
<circle cx="22.5" cy="22.5" r="22.5" fill="url(#paint0_linear_229_358)"/>
<path d="M23.0001 18.8758C21.2798 18.8758 19.8759 20.2797 19.8759 22C19.8759 23.7203 21.2798 25.1242 23.0001 25.1242C24.7204 25.1242 26.1243 23.7203 26.1243 22C26.1243 20.2797 24.7204 18.8758 23.0001 18.8758ZM32.3704 22C32.3704 20.7063 32.3821 19.4242 32.3095 18.1328C32.2368 16.6328 31.8946 15.3016 30.7978 14.2047C29.6985 13.1055 28.3696 12.7656 26.8696 12.693C25.5759 12.6203 24.2939 12.632 23.0025 12.632C21.7087 12.632 20.4267 12.6203 19.1353 12.693C17.6353 12.7656 16.304 13.1078 15.2071 14.2047C14.1079 15.3039 13.7681 16.6328 13.6954 18.1328C13.6228 19.4266 13.6345 20.7086 13.6345 22C13.6345 23.2914 13.6228 24.5758 13.6954 25.8672C13.7681 27.3672 14.1103 28.6985 15.2071 29.7953C16.3064 30.8945 17.6353 31.2344 19.1353 31.307C20.429 31.3797 21.711 31.368 23.0025 31.368C24.2962 31.368 25.5782 31.3797 26.8696 31.307C28.3696 31.2344 29.7009 30.8922 30.7978 29.7953C31.897 28.6961 32.2368 27.3672 32.3095 25.8672C32.3845 24.5758 32.3704 23.2938 32.3704 22V22ZM23.0001 26.807C20.34 26.807 18.1931 24.6602 18.1931 22C18.1931 19.3399 20.34 17.193 23.0001 17.193C25.6603 17.193 27.8071 19.3399 27.8071 22C27.8071 24.6602 25.6603 26.807 23.0001 26.807ZM28.004 18.1188C27.3829 18.1188 26.8814 17.6172 26.8814 16.9961C26.8814 16.375 27.3829 15.8735 28.004 15.8735C28.6251 15.8735 29.1267 16.375 29.1267 16.9961C29.1269 17.1436 29.0979 17.2897 29.0416 17.4259C28.9852 17.5622 28.9026 17.6861 28.7983 17.7904C28.694 17.8946 28.5701 17.9773 28.4339 18.0337C28.2976 18.09 28.1515 18.1189 28.004 18.1188V18.1188Z" fill="white"/>
<defs>
<linearGradient id="paint0_linear_229_358" x1="22.5" y1="0" x2="22.5" y2="45" gradientUnits="userSpaceOnUse">
<stop stop-color="#823FB5"/>
<stop offset="0.479167" stop-color="#C6255D"/>
<stop offset="1" stop-color="#F0C201"/>
</linearGradient>
</defs>
</svg>
