<svg width="45" height="45" viewBox="0 0 45 45" fill="none" xmlns="http://www.w3.org/2000/svg">
<circle cx="22.5" cy="22.5" r="22.5" fill="#0B65C2"/>
<path fill-rule="evenodd" clip-rule="evenodd" d="M20.429 18.969H24.143V20.819C24.678 19.755 26.05 18.799 28.111 18.799C32.062 18.799 33 20.917 33 24.803V32H29V25.688C29 23.475 28.465 22.227 27.103 22.227C25.214 22.227 24.429 23.572 24.429 25.687V32H20.429V18.969V18.969ZM13.57 31.83H17.57V18.799H13.57V31.83V31.83ZM18.143 14.55C18.1431 14.8853 18.0767 15.2172 17.9474 15.5266C17.8181 15.8359 17.6287 16.1165 17.39 16.352C16.9064 16.8326 16.2518 17.1017 15.57 17.1C14.8894 17.0995 14.2363 16.8312 13.752 16.353C13.5142 16.1167 13.3254 15.8358 13.1963 15.5264C13.0673 15.217 13.0006 14.8852 13 14.55C13 13.873 13.27 13.225 13.753 12.747C14.2369 12.2682 14.8902 11.9997 15.571 12C16.253 12 16.907 12.269 17.39 12.747C17.872 13.225 18.143 13.873 18.143 14.55Z" fill="white"/>
</svg>
