<svg width="154" height="46" viewBox="0 0 154 46" fill="none" xmlns="http://www.w3.org/2000/svg">
<path d="M5.38 35V2H12.82C15.1533 2 17.3267 2.42 19.34 3.26C21.3667 4.1 23.1333 5.27333 24.64 6.78C26.1467 8.27333 27.3267 10.02 28.18 12.02C29.0333 14.02 29.46 16.1867 29.46 18.52C29.46 20.84 29.04 23 28.2 25C27.36 27 26.18 28.7533 24.66 30.26C23.1533 31.7533 21.3867 32.92 19.36 33.76C17.3467 34.5867 15.1667 35 12.82 35H5.38ZM8.42 32.28H12.54C14.4867 32.28 16.2867 31.9333 17.94 31.24C19.6067 30.5333 21.06 29.56 22.3 28.32C23.5533 27.0667 24.5267 25.6067 25.22 23.94C25.9133 22.26 26.26 20.4467 26.26 18.5C26.26 16.5533 25.9133 14.7467 25.22 13.08C24.5267 11.4133 23.5533 9.95333 22.3 8.7C21.06 7.44667 19.6067 6.47333 17.94 5.78C16.2733 5.07333 14.4733 4.72 12.54 4.72H8.42V32.28ZM43.1734 35.64C40.8668 35.64 38.7068 35.2 36.6934 34.32C34.6801 33.44 32.9134 32.22 31.3934 30.66C29.8734 29.0867 28.6801 27.2667 27.8134 25.2C26.9601 23.12 26.5334 20.8933 26.5334 18.52C26.5334 16.1333 26.9601 13.9067 27.8134 11.84C28.6801 9.77333 29.8734 7.96 31.3934 6.4C32.9134 4.82666 34.6801 3.6 36.6934 2.72C38.7068 1.84 40.8668 1.4 43.1734 1.4C45.4801 1.4 47.6401 1.84 49.6534 2.72C51.6668 3.6 53.4334 4.82666 54.9534 6.4C56.4734 7.96 57.6601 9.77333 58.5134 11.84C59.3801 13.9067 59.8134 16.1333 59.8134 18.52C59.8134 20.8933 59.3801 23.12 58.5134 25.2C57.6601 27.2667 56.4734 29.0867 54.9534 30.66C53.4334 32.22 51.6668 33.44 49.6534 34.32C47.6401 35.2 45.4801 35.64 43.1734 35.64ZM43.1734 32.7C45.0534 32.7 46.8001 32.34 48.4134 31.62C50.0268 30.9 51.4401 29.8933 52.6534 28.6C53.8801 27.3067 54.8334 25.8 55.5134 24.08C56.1934 22.36 56.5334 20.5067 56.5334 18.52C56.5334 16.5333 56.1934 14.68 55.5134 12.96C54.8334 11.24 53.8801 9.73333 52.6534 8.44C51.4401 7.14667 50.0268 6.14 48.4134 5.42C46.8001 4.7 45.0534 4.34 43.1734 4.34C41.2934 4.34 39.5401 4.7 37.9134 5.42C36.3001 6.14 34.8868 7.14667 33.6734 8.44C32.4601 9.73333 31.5068 11.24 30.8134 12.96C30.1334 14.68 29.7934 16.5333 29.7934 18.52C29.7934 20.5067 30.1334 22.36 30.8134 24.08C31.5068 25.8 32.4601 27.3067 33.6734 28.6C34.8868 29.8933 36.3001 30.9 37.9134 31.62C39.5401 32.34 41.2934 32.7 43.1734 32.7ZM58.9534 35V2H61.9934L79.7134 29.82V2H82.7534V35H79.7134L61.9934 7.22V35H58.9534ZM80.7037 35L93.7037 2H96.5237L109.504 35H106.224L102.204 24.48H88.0237L83.9637 35H80.7037ZM89.0437 21.8H101.164L95.1037 6L89.0437 21.8ZM107.449 35V2H110.489V32.32H124.309V35H107.449ZM122.302 35V2H129.742C132.075 2 134.249 2.42 136.262 3.26C138.289 4.1 140.055 5.27333 141.562 6.78C143.069 8.27333 144.249 10.02 145.102 12.02C145.955 14.02 146.382 16.1867 146.382 18.52C146.382 20.84 145.962 23 145.122 25C144.282 27 143.102 28.7533 141.582 30.26C140.075 31.7533 138.309 32.92 136.282 33.76C134.269 34.5867 132.089 35 129.742 35H122.302ZM125.342 32.28H129.462C131.409 32.28 133.209 31.9333 134.862 31.24C136.529 30.5333 137.982 29.56 139.222 28.32C140.475 27.0667 141.449 25.6067 142.142 23.94C142.835 22.26 143.182 20.4467 143.182 18.5C143.182 16.5533 142.835 14.7467 142.142 13.08C141.449 11.4133 140.475 9.95333 139.222 8.7C137.982 7.44667 136.529 6.47333 134.862 5.78C133.195 5.07333 131.395 4.72 129.462 4.72H125.342V32.28Z" fill="#767679" fill-opacity="0.6"/>
<path d="M3 21H154" stroke="#111111" stroke-width="8"/>
</svg>
