<svg width="369" height="155" viewBox="0 0 369 155" fill="none" xmlns="http://www.w3.org/2000/svg">
<g clip-path="url(#clip0_221_1819)">
<rect width="369" height="155" rx="15" fill="#277BC0"/>
<path d="M35.069 63.156C34.341 63.156 33.6433 63.0607 32.976 62.87C32.3087 62.6707 31.7713 62.415 31.364 62.103L32.079 60.517C32.469 60.7943 32.9283 61.024 33.457 61.206C33.9943 61.3793 34.536 61.466 35.082 61.466C35.498 61.466 35.8317 61.427 36.083 61.349C36.343 61.2623 36.5337 61.1453 36.655 60.998C36.7763 60.8507 36.837 60.6817 36.837 60.491C36.837 60.2483 36.7417 60.0577 36.551 59.919C36.3603 59.7717 36.109 59.6547 35.797 59.568C35.485 59.4727 35.1383 59.386 34.757 59.308C34.3843 59.2213 34.0073 59.1173 33.626 58.996C33.2533 58.8747 32.911 58.7187 32.599 58.528C32.287 58.3373 32.0313 58.086 31.832 57.774C31.6413 57.462 31.546 57.0633 31.546 56.578C31.546 56.058 31.6847 55.5857 31.962 55.161C32.248 54.7277 32.6727 54.3853 33.236 54.134C33.808 53.874 34.523 53.744 35.381 53.744C35.953 53.744 36.5163 53.8133 37.071 53.952C37.6257 54.082 38.1153 54.2813 38.54 54.55L37.89 56.149C37.4653 55.9063 37.0407 55.7287 36.616 55.616C36.1913 55.4947 35.7753 55.434 35.368 55.434C34.9607 55.434 34.627 55.4817 34.367 55.577C34.107 55.6723 33.9207 55.798 33.808 55.954C33.6953 56.1013 33.639 56.2747 33.639 56.474C33.639 56.708 33.7343 56.8987 33.925 57.046C34.1157 57.1847 34.367 57.2973 34.679 57.384C34.991 57.4707 35.3333 57.5573 35.706 57.644C36.0873 57.7307 36.4643 57.8303 36.837 57.943C37.2183 58.0557 37.565 58.2073 37.877 58.398C38.189 58.5887 38.4403 58.84 38.631 59.152C38.8303 59.464 38.93 59.8583 38.93 60.335C38.93 60.8463 38.787 61.3143 38.501 61.739C38.215 62.1637 37.786 62.506 37.214 62.766C36.6507 63.026 35.9357 63.156 35.069 63.156ZM43.697 63.104C42.8997 63.104 42.1977 62.948 41.591 62.636C40.993 62.324 40.5294 61.8993 40.2 61.362C39.8707 60.816 39.706 60.1963 39.706 59.503C39.706 58.801 39.8664 58.1813 40.187 57.644C40.5164 57.098 40.9627 56.6733 41.526 56.37C42.0894 56.058 42.7264 55.902 43.437 55.902C44.1217 55.902 44.737 56.0493 45.283 56.344C45.8377 56.63 46.2754 57.046 46.596 57.592C46.9167 58.1293 47.077 58.775 47.077 59.529C47.077 59.607 47.0727 59.698 47.064 59.802C47.0554 59.8973 47.0467 59.9883 47.038 60.075H41.357V58.892H45.972L45.192 59.243C45.192 58.879 45.1184 58.5627 44.971 58.294C44.8237 58.0253 44.62 57.8173 44.36 57.67C44.1 57.514 43.7967 57.436 43.45 57.436C43.1034 57.436 42.7957 57.514 42.527 57.67C42.267 57.8173 42.0634 58.0297 41.916 58.307C41.7687 58.5757 41.695 58.8963 41.695 59.269V59.581C41.695 59.9623 41.7774 60.3003 41.942 60.595C42.1154 60.881 42.3537 61.102 42.657 61.258C42.969 61.4053 43.333 61.479 43.749 61.479C44.1217 61.479 44.4467 61.4227 44.724 61.31C45.01 61.1973 45.27 61.0283 45.504 60.803L46.583 61.973C46.2624 62.337 45.8594 62.6187 45.374 62.818C44.8887 63.0087 44.3297 63.104 43.697 63.104ZM52.6782 55.902C53.2329 55.902 53.7269 56.0147 54.1602 56.24C54.6022 56.4567 54.9489 56.7947 55.2002 57.254C55.4515 57.7047 55.5772 58.2853 55.5772 58.996V63H53.5492V59.308C53.5492 58.7447 53.4235 58.3287 53.1722 58.06C52.9295 57.7913 52.5829 57.657 52.1322 57.657C51.8115 57.657 51.5212 57.7263 51.2612 57.865C51.0099 57.995 50.8105 58.1987 50.6632 58.476C50.5245 58.7533 50.4552 59.1087 50.4552 59.542V63H48.4272V56.006H50.3642V57.943L50.0002 57.358C50.2515 56.89 50.6112 56.5303 51.0792 56.279C51.5472 56.0277 52.0802 55.902 52.6782 55.902ZM60.4693 63.104C59.8106 63.104 59.2169 62.9567 58.6883 62.662C58.1596 62.3587 57.7393 61.9383 57.4273 61.401C57.1239 60.8637 56.9723 60.231 56.9723 59.503C56.9723 58.7663 57.1239 58.1293 57.4273 57.592C57.7393 57.0547 58.1596 56.6387 58.6883 56.344C59.2169 56.0493 59.8106 55.902 60.4693 55.902C61.0586 55.902 61.5743 56.032 62.0163 56.292C62.4583 56.552 62.8006 56.9463 63.0433 57.475C63.2859 58.0037 63.4073 58.6797 63.4073 59.503C63.4073 60.3177 63.2903 60.9937 63.0563 61.531C62.8223 62.0597 62.4843 62.454 62.0423 62.714C61.6089 62.974 61.0846 63.104 60.4693 63.104ZM60.8203 61.44C61.1496 61.44 61.4486 61.362 61.7173 61.206C61.9859 61.05 62.1983 60.829 62.3543 60.543C62.5189 60.2483 62.6013 59.9017 62.6013 59.503C62.6013 59.0957 62.5189 58.749 62.3543 58.463C62.1983 58.177 61.9859 57.956 61.7173 57.8C61.4486 57.644 61.1496 57.566 60.8203 57.566C60.4823 57.566 60.1789 57.644 59.9103 57.8C59.6416 57.956 59.4249 58.177 59.2603 58.463C59.1043 58.749 59.0263 59.0957 59.0263 59.503C59.0263 59.9017 59.1043 60.2483 59.2603 60.543C59.4249 60.829 59.6416 61.05 59.9103 61.206C60.1789 61.362 60.4823 61.44 60.8203 61.44ZM62.6533 63V61.57L62.6923 59.49L62.5623 57.423V53.354H64.5903V63H62.6533ZM79.1059 55.902C79.6606 55.902 80.1502 56.0147 80.5749 56.24C81.0082 56.4567 81.3462 56.7947 81.5889 57.254C81.8402 57.7047 81.9659 58.2853 81.9659 58.996V63H79.9379V59.308C79.9379 58.7447 79.8209 58.3287 79.5869 58.06C79.3529 57.7913 79.0236 57.657 78.5989 57.657C78.3042 57.657 78.0399 57.7263 77.8059 57.865C77.5719 57.995 77.3899 58.1943 77.2599 58.463C77.1299 58.7317 77.0649 59.074 77.0649 59.49V63H75.0369V59.308C75.0369 58.7447 74.9199 58.3287 74.6859 58.06C74.4606 57.7913 74.1356 57.657 73.7109 57.657C73.4162 57.657 73.1519 57.7263 72.9179 57.865C72.6839 57.995 72.5019 58.1943 72.3719 58.463C72.2419 58.7317 72.1769 59.074 72.1769 59.49V63H70.1489V56.006H72.0859V57.917L71.7219 57.358C71.9646 56.8813 72.3069 56.5217 72.7489 56.279C73.1996 56.0277 73.7109 55.902 74.2829 55.902C74.9242 55.902 75.4832 56.0667 75.9599 56.396C76.4452 56.7167 76.7659 57.2107 76.9219 57.878L76.2069 57.683C76.4409 57.137 76.8136 56.7037 77.3249 56.383C77.8449 56.0623 78.4386 55.902 79.1059 55.902ZM87.1624 63.104C86.4171 63.104 85.7541 62.948 85.1734 62.636C84.6014 62.324 84.1464 61.8993 83.8084 61.362C83.4791 60.816 83.3144 60.1963 83.3144 59.503C83.3144 58.801 83.4791 58.1813 83.8084 57.644C84.1464 57.098 84.6014 56.6733 85.1734 56.37C85.7541 56.058 86.4171 55.902 87.1624 55.902C87.8991 55.902 88.5578 56.058 89.1384 56.37C89.7191 56.6733 90.1741 57.0937 90.5034 57.631C90.8328 58.1683 90.9974 58.7923 90.9974 59.503C90.9974 60.1963 90.8328 60.816 90.5034 61.362C90.1741 61.8993 89.7191 62.324 89.1384 62.636C88.5578 62.948 87.8991 63.104 87.1624 63.104ZM87.1624 61.44C87.5004 61.44 87.8038 61.362 88.0724 61.206C88.3411 61.05 88.5534 60.829 88.7094 60.543C88.8654 60.2483 88.9434 59.9017 88.9434 59.503C88.9434 59.0957 88.8654 58.749 88.7094 58.463C88.5534 58.177 88.3411 57.956 88.0724 57.8C87.8038 57.644 87.5004 57.566 87.1624 57.566C86.8244 57.566 86.5211 57.644 86.2524 57.8C85.9838 57.956 85.7671 58.177 85.6024 58.463C85.4464 58.749 85.3684 59.0957 85.3684 59.503C85.3684 59.9017 85.4464 60.2483 85.6024 60.543C85.7671 60.829 85.9838 61.05 86.2524 61.206C86.5211 61.362 86.8244 61.44 87.1624 61.44ZM96.604 55.902C97.1587 55.902 97.6527 56.0147 98.086 56.24C98.528 56.4567 98.8747 56.7947 99.126 57.254C99.3773 57.7047 99.503 58.2853 99.503 58.996V63H97.475V59.308C97.475 58.7447 97.3493 58.3287 97.098 58.06C96.8553 57.7913 96.5087 57.657 96.058 57.657C95.7373 57.657 95.447 57.7263 95.187 57.865C94.9357 57.995 94.7363 58.1987 94.589 58.476C94.4503 58.7533 94.381 59.1087 94.381 59.542V63H92.353V56.006H94.29V57.943L93.926 57.358C94.1773 56.89 94.537 56.5303 95.005 56.279C95.473 56.0277 96.006 55.902 96.604 55.902ZM104.863 63.104C104.066 63.104 103.364 62.948 102.757 62.636C102.159 62.324 101.695 61.8993 101.366 61.362C101.037 60.816 100.872 60.1963 100.872 59.503C100.872 58.801 101.032 58.1813 101.353 57.644C101.682 57.098 102.129 56.6733 102.692 56.37C103.255 56.058 103.892 55.902 104.603 55.902C105.288 55.902 105.903 56.0493 106.449 56.344C107.004 56.63 107.441 57.046 107.762 57.592C108.083 58.1293 108.243 58.775 108.243 59.529C108.243 59.607 108.239 59.698 108.23 59.802C108.221 59.8973 108.213 59.9883 108.204 60.075H102.523V58.892H107.138L106.358 59.243C106.358 58.879 106.284 58.5627 106.137 58.294C105.99 58.0253 105.786 57.8173 105.526 57.67C105.266 57.514 104.963 57.436 104.616 57.436C104.269 57.436 103.962 57.514 103.693 57.67C103.433 57.8173 103.229 58.0297 103.082 58.307C102.935 58.5757 102.861 58.8963 102.861 59.269V59.581C102.861 59.9623 102.943 60.3003 103.108 60.595C103.281 60.881 103.52 61.102 103.823 61.258C104.135 61.4053 104.499 61.479 104.915 61.479C105.288 61.479 105.613 61.4227 105.89 61.31C106.176 61.1973 106.436 61.0283 106.67 60.803L107.749 61.973C107.428 62.337 107.025 62.6187 106.54 62.818C106.055 63.0087 105.496 63.104 104.863 63.104ZM110.35 65.626C109.986 65.626 109.627 65.5697 109.271 65.457C108.916 65.3443 108.626 65.1883 108.4 64.989L109.141 63.546C109.297 63.6847 109.475 63.793 109.674 63.871C109.882 63.949 110.086 63.988 110.285 63.988C110.571 63.988 110.797 63.9187 110.961 63.78C111.135 63.65 111.291 63.429 111.429 63.117L111.793 62.259L111.949 62.038L114.458 56.006H116.408L113.249 63.429C113.024 63.9923 112.764 64.4343 112.469 64.755C112.183 65.0757 111.863 65.301 111.507 65.431C111.161 65.561 110.775 65.626 110.35 65.626ZM111.546 63.273L108.426 56.006H110.519L112.937 61.856L111.546 63.273ZM124.245 63.104C123.5 63.104 122.837 62.948 122.256 62.636C121.684 62.324 121.229 61.8993 120.891 61.362C120.562 60.816 120.397 60.1963 120.397 59.503C120.397 58.801 120.562 58.1813 120.891 57.644C121.229 57.098 121.684 56.6733 122.256 56.37C122.837 56.058 123.5 55.902 124.245 55.902C124.982 55.902 125.641 56.058 126.221 56.37C126.802 56.6733 127.257 57.0937 127.586 57.631C127.916 58.1683 128.08 58.7923 128.08 59.503C128.08 60.1963 127.916 60.816 127.586 61.362C127.257 61.8993 126.802 62.324 126.221 62.636C125.641 62.948 124.982 63.104 124.245 63.104ZM124.245 61.44C124.583 61.44 124.887 61.362 125.155 61.206C125.424 61.05 125.636 60.829 125.792 60.543C125.948 60.2483 126.026 59.9017 126.026 59.503C126.026 59.0957 125.948 58.749 125.792 58.463C125.636 58.177 125.424 57.956 125.155 57.8C124.887 57.644 124.583 57.566 124.245 57.566C123.907 57.566 123.604 57.644 123.335 57.8C123.067 57.956 122.85 58.177 122.685 58.463C122.529 58.749 122.451 59.0957 122.451 59.503C122.451 59.9017 122.529 60.2483 122.685 60.543C122.85 60.829 123.067 61.05 123.335 61.206C123.604 61.362 123.907 61.44 124.245 61.44ZM133.687 55.902C134.242 55.902 134.736 56.0147 135.169 56.24C135.611 56.4567 135.958 56.7947 136.209 57.254C136.46 57.7047 136.586 58.2853 136.586 58.996V63H134.558V59.308C134.558 58.7447 134.432 58.3287 134.181 58.06C133.938 57.7913 133.592 57.657 133.141 57.657C132.82 57.657 132.53 57.7263 132.27 57.865C132.019 57.995 131.819 58.1987 131.672 58.476C131.533 58.7533 131.464 59.1087 131.464 59.542V63H129.436V56.006H131.373V57.943L131.009 57.358C131.26 56.89 131.62 56.5303 132.088 56.279C132.556 56.0277 133.089 55.902 133.687 55.902ZM34.029 76.995H38.397V78.685H34.029V76.995ZM34.185 82H32.079V72.9H38.956V74.59H34.185V82ZM40.2387 82V72.354H42.2667V82H40.2387ZM47.4769 82.104C46.7316 82.104 46.0686 81.948 45.4879 81.636C44.9159 81.324 44.4609 80.8993 44.1229 80.362C43.7936 79.816 43.6289 79.1963 43.6289 78.503C43.6289 77.801 43.7936 77.1813 44.1229 76.644C44.4609 76.098 44.9159 75.6733 45.4879 75.37C46.0686 75.058 46.7316 74.902 47.4769 74.902C48.2136 74.902 48.8722 75.058 49.4529 75.37C50.0336 75.6733 50.4886 76.0937 50.8179 76.631C51.1472 77.1683 51.3119 77.7923 51.3119 78.503C51.3119 79.1963 51.1472 79.816 50.8179 80.362C50.4886 80.8993 50.0336 81.324 49.4529 81.636C48.8722 81.948 48.2136 82.104 47.4769 82.104ZM47.4769 80.44C47.8149 80.44 48.1182 80.362 48.3869 80.206C48.6556 80.05 48.8679 79.829 49.0239 79.543C49.1799 79.2483 49.2579 78.9017 49.2579 78.503C49.2579 78.0957 49.1799 77.749 49.0239 77.463C48.8679 77.177 48.6556 76.956 48.3869 76.8C48.1182 76.644 47.8149 76.566 47.4769 76.566C47.1389 76.566 46.8356 76.644 46.5669 76.8C46.2982 76.956 46.0816 77.177 45.9169 77.463C45.7609 77.749 45.6829 78.0957 45.6829 78.503C45.6829 78.9017 45.7609 79.2483 45.9169 79.543C46.0816 79.829 46.2982 80.05 46.5669 80.206C46.8356 80.362 47.1389 80.44 47.4769 80.44ZM56.8432 82V80.635L56.7132 80.336V77.892C56.7132 77.4587 56.5789 77.1207 56.3102 76.878C56.0502 76.6353 55.6472 76.514 55.1012 76.514C54.7285 76.514 54.3602 76.5747 53.9962 76.696C53.6409 76.8087 53.3375 76.9647 53.0862 77.164L52.3582 75.747C52.7395 75.4783 53.1989 75.2703 53.7362 75.123C54.2735 74.9757 54.8195 74.902 55.3742 74.902C56.4402 74.902 57.2679 75.1533 57.8572 75.656C58.4465 76.1587 58.7412 76.943 58.7412 78.009V82H56.8432ZM54.7112 82.104C54.1652 82.104 53.6972 82.013 53.3072 81.831C52.9172 81.6403 52.6182 81.3847 52.4102 81.064C52.2022 80.7433 52.0982 80.3837 52.0982 79.985C52.0982 79.569 52.1979 79.205 52.3972 78.893C52.6052 78.581 52.9302 78.3383 53.3722 78.165C53.8142 77.983 54.3905 77.892 55.1012 77.892H56.9602V79.075H55.3222C54.8455 79.075 54.5162 79.153 54.3342 79.309C54.1609 79.465 54.0742 79.66 54.0742 79.894C54.0742 80.154 54.1739 80.362 54.3732 80.518C54.5812 80.6653 54.8629 80.739 55.2182 80.739C55.5562 80.739 55.8595 80.661 56.1282 80.505C56.3969 80.3403 56.5919 80.102 56.7132 79.79L57.0252 80.726C56.8779 81.1767 56.6092 81.519 56.2192 81.753C55.8292 81.987 55.3265 82.104 54.7112 82.104ZM63.4366 82.104C62.6133 82.104 61.972 81.896 61.5126 81.48C61.0533 81.0553 60.8236 80.427 60.8236 79.595V73.459H62.8516V79.569C62.8516 79.8637 62.9296 80.0933 63.0856 80.258C63.2416 80.414 63.454 80.492 63.7226 80.492C64.0433 80.492 64.3163 80.4053 64.5416 80.232L65.0876 81.662C64.8796 81.8093 64.6283 81.922 64.3336 82C64.0476 82.0693 63.7486 82.104 63.4366 82.104ZM59.7446 76.722V75.162H64.5936V76.722H59.7446ZM66.002 84.002L66.86 80.882L67.146 82.052C66.7733 82.052 66.4657 81.9437 66.223 81.727C65.989 81.5103 65.872 81.2113 65.872 80.83C65.872 80.4487 65.9933 80.1453 66.236 79.92C66.4787 79.6947 66.7777 79.582 67.133 79.582C67.497 79.582 67.796 79.699 68.03 79.933C68.264 80.1583 68.381 80.4573 68.381 80.83C68.381 80.9427 68.3723 81.0553 68.355 81.168C68.3377 81.272 68.303 81.402 68.251 81.558C68.2077 81.7053 68.134 81.896 68.03 82.13L67.289 84.002H66.002ZM76.297 82.104C75.4736 82.104 74.8323 81.896 74.373 81.48C73.9136 81.0553 73.684 80.427 73.684 79.595V73.459H75.712V79.569C75.712 79.8637 75.79 80.0933 75.946 80.258C76.102 80.414 76.3143 80.492 76.583 80.492C76.9036 80.492 77.1766 80.4053 77.402 80.232L77.948 81.662C77.74 81.8093 77.4886 81.922 77.194 82C76.908 82.0693 76.609 82.104 76.297 82.104ZM72.605 76.722V75.162H77.454V76.722H72.605ZM79.0864 82V75.006H81.0234V76.982L80.7504 76.41C80.9584 75.916 81.2921 75.5433 81.7514 75.292C82.2107 75.032 82.7697 74.902 83.4284 74.902V76.774C83.3417 76.7653 83.2637 76.761 83.1944 76.761C83.1251 76.7523 83.0514 76.748 82.9734 76.748C82.4187 76.748 81.9681 76.9083 81.6214 77.229C81.2834 77.541 81.1144 78.0307 81.1144 78.698V82H79.0864ZM88.4672 82V80.635L88.3372 80.336V77.892C88.3372 77.4587 88.2029 77.1207 87.9342 76.878C87.6742 76.6353 87.2712 76.514 86.7252 76.514C86.3525 76.514 85.9842 76.5747 85.6202 76.696C85.2649 76.8087 84.9615 76.9647 84.7102 77.164L83.9822 75.747C84.3635 75.4783 84.8229 75.2703 85.3602 75.123C85.8975 74.9757 86.4435 74.902 86.9982 74.902C88.0642 74.902 88.8919 75.1533 89.4812 75.656C90.0705 76.1587 90.3652 76.943 90.3652 78.009V82H88.4672ZM86.3352 82.104C85.7892 82.104 85.3212 82.013 84.9312 81.831C84.5412 81.6403 84.2422 81.3847 84.0342 81.064C83.8262 80.7433 83.7222 80.3837 83.7222 79.985C83.7222 79.569 83.8219 79.205 84.0212 78.893C84.2292 78.581 84.5542 78.3383 84.9962 78.165C85.4382 77.983 86.0145 77.892 86.7252 77.892H88.5842V79.075H86.9462C86.4695 79.075 86.1402 79.153 85.9582 79.309C85.7849 79.465 85.6982 79.66 85.6982 79.894C85.6982 80.154 85.7979 80.362 85.9972 80.518C86.2052 80.6653 86.4869 80.739 86.8422 80.739C87.1802 80.739 87.4835 80.661 87.7522 80.505C88.0209 80.3403 88.2159 80.102 88.3372 79.79L88.6492 80.726C88.5019 81.1767 88.2332 81.519 87.8432 81.753C87.4532 81.987 86.9505 82.104 86.3352 82.104ZM96.4516 74.902C97.0063 74.902 97.5003 75.0147 97.9336 75.24C98.3756 75.4567 98.7223 75.7947 98.9736 76.254C99.225 76.7047 99.3506 77.2853 99.3506 77.996V82H97.3226V78.308C97.3226 77.7447 97.197 77.3287 96.9456 77.06C96.703 76.7913 96.3563 76.657 95.9056 76.657C95.585 76.657 95.2946 76.7263 95.0346 76.865C94.7833 76.995 94.584 77.1987 94.4366 77.476C94.298 77.7533 94.2286 78.1087 94.2286 78.542V82H92.2006V75.006H94.1376V76.943L93.7736 76.358C94.025 75.89 94.3846 75.5303 94.8526 75.279C95.3206 75.0277 95.8536 74.902 96.4516 74.902ZM103.542 82.104C102.944 82.104 102.368 82.0347 101.813 81.896C101.267 81.7487 100.834 81.5667 100.513 81.35L101.189 79.894C101.51 80.0933 101.887 80.258 102.32 80.388C102.762 80.5093 103.195 80.57 103.62 80.57C104.088 80.57 104.417 80.5137 104.608 80.401C104.807 80.2883 104.907 80.1323 104.907 79.933C104.907 79.7683 104.829 79.647 104.673 79.569C104.526 79.4823 104.326 79.4173 104.075 79.374C103.824 79.3307 103.546 79.2873 103.243 79.244C102.948 79.2007 102.649 79.1443 102.346 79.075C102.043 78.997 101.765 78.8843 101.514 78.737C101.263 78.5897 101.059 78.3903 100.903 78.139C100.756 77.8877 100.682 77.5627 100.682 77.164C100.682 76.722 100.808 76.332 101.059 75.994C101.319 75.656 101.692 75.3917 102.177 75.201C102.662 75.0017 103.243 74.902 103.919 74.902C104.396 74.902 104.881 74.954 105.375 75.058C105.869 75.162 106.281 75.3137 106.61 75.513L105.934 76.956C105.596 76.7567 105.254 76.6223 104.907 76.553C104.569 76.475 104.24 76.436 103.919 76.436C103.468 76.436 103.139 76.4967 102.931 76.618C102.723 76.7393 102.619 76.8953 102.619 77.086C102.619 77.2593 102.693 77.3893 102.84 77.476C102.996 77.5627 103.2 77.632 103.451 77.684C103.702 77.736 103.975 77.7837 104.27 77.827C104.573 77.8617 104.877 77.918 105.18 77.996C105.483 78.074 105.756 78.1867 105.999 78.334C106.25 78.4727 106.454 78.6677 106.61 78.919C106.766 79.1617 106.844 79.4823 106.844 79.881C106.844 80.3143 106.714 80.7 106.454 81.038C106.194 81.3673 105.817 81.6273 105.323 81.818C104.838 82.0087 104.244 82.104 103.542 82.104ZM108.342 82V74.85C108.342 74.0613 108.576 73.433 109.044 72.965C109.512 72.4883 110.18 72.25 111.046 72.25C111.341 72.25 111.623 72.2803 111.891 72.341C112.169 72.4017 112.403 72.497 112.593 72.627L112.06 74.096C111.948 74.018 111.822 73.9573 111.683 73.914C111.545 73.8707 111.397 73.849 111.241 73.849C110.947 73.849 110.717 73.9357 110.552 74.109C110.396 74.2737 110.318 74.525 110.318 74.863V75.513L110.37 76.384V82H108.342ZM107.263 76.722V75.162H112.112V76.722H107.263ZM116.505 82.104C115.707 82.104 115.005 81.948 114.399 81.636C113.801 81.324 113.337 80.8993 113.008 80.362C112.678 79.816 112.514 79.1963 112.514 78.503C112.514 77.801 112.674 77.1813 112.995 76.644C113.324 76.098 113.77 75.6733 114.334 75.37C114.897 75.058 115.534 74.902 116.245 74.902C116.929 74.902 117.545 75.0493 118.091 75.344C118.645 75.63 119.083 76.046 119.404 76.592C119.724 77.1293 119.885 77.775 119.885 78.529C119.885 78.607 119.88 78.698 119.872 78.802C119.863 78.8973 119.854 78.9883 119.846 79.075H114.165V77.892H118.78L118 78.243C118 77.879 117.926 77.5627 117.779 77.294C117.631 77.0253 117.428 76.8173 117.168 76.67C116.908 76.514 116.604 76.436 116.258 76.436C115.911 76.436 115.603 76.514 115.335 76.67C115.075 76.8173 114.871 77.0297 114.724 77.307C114.576 77.5757 114.503 77.8963 114.503 78.269V78.581C114.503 78.9623 114.585 79.3003 114.75 79.595C114.923 79.881 115.161 80.102 115.465 80.258C115.777 80.4053 116.141 80.479 116.557 80.479C116.929 80.479 117.254 80.4227 117.532 80.31C117.818 80.1973 118.078 80.0283 118.312 79.803L119.391 80.973C119.07 81.337 118.667 81.6187 118.182 81.818C117.696 82.0087 117.137 82.104 116.505 82.104ZM121.235 82V75.006H123.172V76.982L122.899 76.41C123.107 75.916 123.44 75.5433 123.9 75.292C124.359 75.032 124.918 74.902 125.577 74.902V76.774C125.49 76.7653 125.412 76.761 125.343 76.761C125.273 76.7523 125.2 76.748 125.122 76.748C124.567 76.748 124.116 76.9083 123.77 77.229C123.432 77.541 123.263 78.0307 123.263 78.698V82H121.235ZM130.762 82V74.85C130.762 74.0613 130.996 73.433 131.464 72.965C131.932 72.4883 132.599 72.25 133.466 72.25C133.761 72.25 134.042 72.2803 134.311 72.341C134.588 72.4017 134.822 72.497 135.013 72.627L134.48 74.096C134.367 74.018 134.242 73.9573 134.103 73.914C133.964 73.8707 133.817 73.849 133.661 73.849C133.366 73.849 133.137 73.9357 132.972 74.109C132.816 74.2737 132.738 74.525 132.738 74.863V75.513L132.79 76.384V82H130.762ZM129.683 76.722V75.162H134.532V76.722H129.683ZM138.493 82.104C137.913 82.104 137.393 81.9913 136.933 81.766C136.483 81.5407 136.132 81.1983 135.88 80.739C135.629 80.271 135.503 79.6773 135.503 78.958V75.006H137.531V78.659C137.531 79.2397 137.653 79.6687 137.895 79.946C138.147 80.2147 138.498 80.349 138.948 80.349C139.26 80.349 139.538 80.284 139.78 80.154C140.023 80.0153 140.214 79.8073 140.352 79.53C140.491 79.244 140.56 78.8887 140.56 78.464V75.006H142.588V82H140.664V80.076L141.015 80.635C140.781 81.1203 140.435 81.4887 139.975 81.74C139.525 81.9827 139.031 82.104 138.493 82.104ZM148.718 74.902C149.273 74.902 149.767 75.0147 150.2 75.24C150.642 75.4567 150.989 75.7947 151.24 76.254C151.492 76.7047 151.617 77.2853 151.617 77.996V82H149.589V78.308C149.589 77.7447 149.464 77.3287 149.212 77.06C148.97 76.7913 148.623 76.657 148.172 76.657C147.852 76.657 147.561 76.7263 147.301 76.865C147.05 76.995 146.851 77.1987 146.703 77.476C146.565 77.7533 146.495 78.1087 146.495 78.542V82H144.467V75.006H146.404V76.943L146.04 76.358C146.292 75.89 146.651 75.5303 147.119 75.279C147.587 75.0277 148.12 74.902 148.718 74.902ZM156.509 82.104C155.851 82.104 155.257 81.9567 154.728 81.662C154.2 81.3587 153.779 80.9383 153.467 80.401C153.164 79.8637 153.012 79.231 153.012 78.503C153.012 77.7663 153.164 77.1293 153.467 76.592C153.779 76.0547 154.2 75.6387 154.728 75.344C155.257 75.0493 155.851 74.902 156.509 74.902C157.099 74.902 157.614 75.032 158.056 75.292C158.498 75.552 158.841 75.9463 159.083 76.475C159.326 77.0037 159.447 77.6797 159.447 78.503C159.447 79.3177 159.33 79.9937 159.096 80.531C158.862 81.0597 158.524 81.454 158.082 81.714C157.649 81.974 157.125 82.104 156.509 82.104ZM156.86 80.44C157.19 80.44 157.489 80.362 157.757 80.206C158.026 80.05 158.238 79.829 158.394 79.543C158.559 79.2483 158.641 78.9017 158.641 78.503C158.641 78.0957 158.559 77.749 158.394 77.463C158.238 77.177 158.026 76.956 157.757 76.8C157.489 76.644 157.19 76.566 156.86 76.566C156.522 76.566 156.219 76.644 155.95 76.8C155.682 76.956 155.465 77.177 155.3 77.463C155.144 77.749 155.066 78.0957 155.066 78.503C155.066 78.9017 155.144 79.2483 155.3 79.543C155.465 79.829 155.682 80.05 155.95 80.206C156.219 80.362 156.522 80.44 156.86 80.44ZM158.693 82V80.57L158.732 78.49L158.602 76.423V72.354H160.63V82H158.693ZM164.86 82.104C164.262 82.104 163.686 82.0347 163.131 81.896C162.585 81.7487 162.152 81.5667 161.831 81.35L162.507 79.894C162.828 80.0933 163.205 80.258 163.638 80.388C164.08 80.5093 164.514 80.57 164.938 80.57C165.406 80.57 165.736 80.5137 165.926 80.401C166.126 80.2883 166.225 80.1323 166.225 79.933C166.225 79.7683 166.147 79.647 165.991 79.569C165.844 79.4823 165.645 79.4173 165.393 79.374C165.142 79.3307 164.865 79.2873 164.561 79.244C164.267 79.2007 163.968 79.1443 163.664 79.075C163.361 78.997 163.084 78.8843 162.832 78.737C162.581 78.5897 162.377 78.3903 162.221 78.139C162.074 77.8877 162 77.5627 162 77.164C162 76.722 162.126 76.332 162.377 75.994C162.637 75.656 163.01 75.3917 163.495 75.201C163.981 75.0017 164.561 74.902 165.237 74.902C165.714 74.902 166.199 74.954 166.693 75.058C167.187 75.162 167.599 75.3137 167.928 75.513L167.252 76.956C166.914 76.7567 166.572 76.6223 166.225 76.553C165.887 76.475 165.558 76.436 165.237 76.436C164.787 76.436 164.457 76.4967 164.249 76.618C164.041 76.7393 163.937 76.8953 163.937 77.086C163.937 77.2593 164.011 77.3893 164.158 77.476C164.314 77.5627 164.518 77.632 164.769 77.684C165.021 77.736 165.294 77.7837 165.588 77.827C165.892 77.8617 166.195 77.918 166.498 77.996C166.802 78.074 167.075 78.1867 167.317 78.334C167.569 78.4727 167.772 78.6677 167.928 78.919C168.084 79.1617 168.162 79.4823 168.162 79.881C168.162 80.3143 168.032 80.7 167.772 81.038C167.512 81.3673 167.135 81.6273 166.641 81.818C166.156 82.0087 165.562 82.104 164.86 82.104ZM34.796 101.104C33.9727 101.104 33.3313 100.896 32.872 100.48C32.4127 100.055 32.183 99.427 32.183 98.595V92.459H34.211V98.569C34.211 98.8637 34.289 99.0933 34.445 99.258C34.601 99.414 34.8133 99.492 35.082 99.492C35.4027 99.492 35.6757 99.4053 35.901 99.232L36.447 100.662C36.239 100.809 35.9877 100.922 35.693 101C35.407 101.069 35.108 101.104 34.796 101.104ZM31.104 95.722V94.162H35.953V95.722H31.104ZM40.6976 101.104C39.9523 101.104 39.2893 100.948 38.7086 100.636C38.1366 100.324 37.6816 99.8993 37.3436 99.362C37.0143 98.816 36.8496 98.1963 36.8496 97.503C36.8496 96.801 37.0143 96.1813 37.3436 95.644C37.6816 95.098 38.1366 94.6733 38.7086 94.37C39.2893 94.058 39.9523 93.902 40.6976 93.902C41.4343 93.902 42.0929 94.058 42.6736 94.37C43.2543 94.6733 43.7093 95.0937 44.0386 95.631C44.3679 96.1683 44.5326 96.7923 44.5326 97.503C44.5326 98.1963 44.3679 98.816 44.0386 99.362C43.7093 99.8993 43.2543 100.324 42.6736 100.636C42.0929 100.948 41.4343 101.104 40.6976 101.104ZM40.6976 99.44C41.0356 99.44 41.3389 99.362 41.6076 99.206C41.8763 99.05 42.0886 98.829 42.2446 98.543C42.4006 98.2483 42.4786 97.9017 42.4786 97.503C42.4786 97.0957 42.4006 96.749 42.2446 96.463C42.0886 96.177 41.8763 95.956 41.6076 95.8C41.3389 95.644 41.0356 95.566 40.6976 95.566C40.3596 95.566 40.0563 95.644 39.7876 95.8C39.5189 95.956 39.3023 96.177 39.1376 96.463C38.9816 96.749 38.9036 97.0957 38.9036 97.503C38.9036 97.9017 38.9816 98.2483 39.1376 98.543C39.3023 98.829 39.5189 99.05 39.7876 99.206C40.0563 99.362 40.3596 99.44 40.6976 99.44ZM53.8598 101V99.635L53.7298 99.336V96.892C53.7298 96.4587 53.5955 96.1207 53.3268 95.878C53.0668 95.6353 52.6638 95.514 52.1178 95.514C51.7451 95.514 51.3768 95.5747 51.0128 95.696C50.6575 95.8087 50.3541 95.9647 50.1028 96.164L49.3748 94.747C49.7561 94.4783 50.2155 94.2703 50.7528 94.123C51.2901 93.9757 51.8361 93.902 52.3908 93.902C53.4568 93.902 54.2845 94.1533 54.8738 94.656C55.4631 95.1587 55.7578 95.943 55.7578 97.009V101H53.8598ZM51.7278 101.104C51.1818 101.104 50.7138 101.013 50.3238 100.831C49.9338 100.64 49.6348 100.385 49.4268 100.064C49.2188 99.7433 49.1148 99.3837 49.1148 98.985C49.1148 98.569 49.2145 98.205 49.4138 97.893C49.6218 97.581 49.9468 97.3383 50.3888 97.165C50.8308 96.983 51.4071 96.892 52.1178 96.892H53.9768V98.075H52.3388C51.8621 98.075 51.5328 98.153 51.3508 98.309C51.1775 98.465 51.0908 98.66 51.0908 98.894C51.0908 99.154 51.1905 99.362 51.3898 99.518C51.5978 99.6653 51.8795 99.739 52.2348 99.739C52.5728 99.739 52.8761 99.661 53.1448 99.505C53.4135 99.3403 53.6085 99.102 53.7298 98.79L54.0418 99.726C53.8945 100.177 53.6258 100.519 53.2358 100.753C52.8458 100.987 52.3431 101.104 51.7278 101.104ZM61.8442 93.902C62.3989 93.902 62.8929 94.0147 63.3262 94.24C63.7682 94.4567 64.1149 94.7947 64.3662 95.254C64.6176 95.7047 64.7432 96.2853 64.7432 96.996V101H62.7152V97.308C62.7152 96.7447 62.5896 96.3287 62.3382 96.06C62.0956 95.7913 61.7489 95.657 61.2982 95.657C60.9776 95.657 60.6872 95.7263 60.4272 95.865C60.1759 95.995 59.9766 96.1987 59.8292 96.476C59.6906 96.7533 59.6212 97.1087 59.6212 97.542V101H57.5932V94.006H59.5302V95.943L59.1662 95.358C59.4176 94.89 59.7772 94.5303 60.2452 94.279C60.7132 94.0277 61.2462 93.902 61.8442 93.902ZM67.3386 103.626C66.9746 103.626 66.6149 103.57 66.2596 103.457C65.9042 103.344 65.6139 103.188 65.3886 102.989L66.1296 101.546C66.2856 101.685 66.4632 101.793 66.6626 101.871C66.8706 101.949 67.0742 101.988 67.2736 101.988C67.5596 101.988 67.7849 101.919 67.9496 101.78C68.1229 101.65 68.2789 101.429 68.4176 101.117L68.7816 100.259L68.9376 100.038L71.4466 94.006H73.3966L70.2376 101.429C70.0122 101.992 69.7522 102.434 69.4576 102.755C69.1716 103.076 68.8509 103.301 68.4956 103.431C68.1489 103.561 67.7632 103.626 67.3386 103.626ZM68.5346 101.273L65.4146 94.006H67.5076L69.9256 99.856L68.5346 101.273ZM82.1957 101V99.635L82.0657 99.336V96.892C82.0657 96.4587 81.9314 96.1207 81.6627 95.878C81.4027 95.6353 80.9997 95.514 80.4537 95.514C80.0811 95.514 79.7127 95.5747 79.3487 95.696C78.9934 95.8087 78.6901 95.9647 78.4387 96.164L77.7107 94.747C78.0921 94.4783 78.5514 94.2703 79.0887 94.123C79.6261 93.9757 80.1721 93.902 80.7267 93.902C81.7927 93.902 82.6204 94.1533 83.2097 94.656C83.7991 95.1587 84.0937 95.943 84.0937 97.009V101H82.1957ZM80.0637 101.104C79.5177 101.104 79.0497 101.013 78.6597 100.831C78.2697 100.64 77.9707 100.385 77.7627 100.064C77.5547 99.7433 77.4507 99.3837 77.4507 98.985C77.4507 98.569 77.5504 98.205 77.7497 97.893C77.9577 97.581 78.2827 97.3383 78.7247 97.165C79.1667 96.983 79.7431 96.892 80.4537 96.892H82.3127V98.075H80.6747C80.1981 98.075 79.8687 98.153 79.6867 98.309C79.5134 98.465 79.4267 98.66 79.4267 98.894C79.4267 99.154 79.5264 99.362 79.7257 99.518C79.9337 99.6653 80.2154 99.739 80.5707 99.739C80.9087 99.739 81.2121 99.661 81.4807 99.505C81.7494 99.3403 81.9444 99.102 82.0657 98.79L82.3777 99.726C82.2304 100.177 81.9617 100.519 81.5717 100.753C81.1817 100.987 80.6791 101.104 80.0637 101.104ZM89.3599 101.104C88.6059 101.104 87.9343 100.952 87.3449 100.649C86.7556 100.337 86.2919 99.908 85.9539 99.362C85.6246 98.816 85.4599 98.1963 85.4599 97.503C85.4599 96.801 85.6246 96.1813 85.9539 95.644C86.2919 95.098 86.7556 94.6733 87.3449 94.37C87.9343 94.058 88.6059 93.902 89.3599 93.902C90.0966 93.902 90.7379 94.058 91.2839 94.37C91.8299 94.6733 92.2329 95.111 92.4929 95.683L90.9199 96.528C90.7379 96.1987 90.5083 95.956 90.2309 95.8C89.9623 95.644 89.6676 95.566 89.3469 95.566C89.0003 95.566 88.6883 95.644 88.4109 95.8C88.1336 95.956 87.9126 96.177 87.7479 96.463C87.5919 96.749 87.5139 97.0957 87.5139 97.503C87.5139 97.9103 87.5919 98.257 87.7479 98.543C87.9126 98.829 88.1336 99.05 88.4109 99.206C88.6883 99.362 89.0003 99.44 89.3469 99.44C89.6676 99.44 89.9623 99.3663 90.2309 99.219C90.5083 99.063 90.7379 98.816 90.9199 98.478L92.4929 99.336C92.2329 99.8993 91.8299 100.337 91.2839 100.649C90.7379 100.952 90.0966 101.104 89.3599 101.104ZM96.9517 101.104C96.1977 101.104 95.5261 100.952 94.9367 100.649C94.3474 100.337 93.8837 99.908 93.5457 99.362C93.2164 98.816 93.0517 98.1963 93.0517 97.503C93.0517 96.801 93.2164 96.1813 93.5457 95.644C93.8837 95.098 94.3474 94.6733 94.9367 94.37C95.5261 94.058 96.1977 93.902 96.9517 93.902C97.6884 93.902 98.3297 94.058 98.8757 94.37C99.4217 94.6733 99.8247 95.111 100.085 95.683L98.5117 96.528C98.3297 96.1987 98.1001 95.956 97.8227 95.8C97.5541 95.644 97.2594 95.566 96.9387 95.566C96.5921 95.566 96.2801 95.644 96.0027 95.8C95.7254 95.956 95.5044 96.177 95.3397 96.463C95.1837 96.749 95.1057 97.0957 95.1057 97.503C95.1057 97.9103 95.1837 98.257 95.3397 98.543C95.5044 98.829 95.7254 99.05 96.0027 99.206C96.2801 99.362 96.5921 99.44 96.9387 99.44C97.2594 99.44 97.5541 99.3663 97.8227 99.219C98.1001 99.063 98.3297 98.816 98.5117 98.478L100.085 99.336C99.8247 99.8993 99.4217 100.337 98.8757 100.649C98.3297 100.952 97.6884 101.104 96.9517 101.104ZM104.492 101.104C103.746 101.104 103.083 100.948 102.503 100.636C101.931 100.324 101.476 99.8993 101.138 99.362C100.808 98.816 100.644 98.1963 100.644 97.503C100.644 96.801 100.808 96.1813 101.138 95.644C101.476 95.098 101.931 94.6733 102.503 94.37C103.083 94.058 103.746 93.902 104.492 93.902C105.228 93.902 105.887 94.058 106.468 94.37C107.048 94.6733 107.503 95.0937 107.833 95.631C108.162 96.1683 108.327 96.7923 108.327 97.503C108.327 98.1963 108.162 98.816 107.833 99.362C107.503 99.8993 107.048 100.324 106.468 100.636C105.887 100.948 105.228 101.104 104.492 101.104ZM104.492 99.44C104.83 99.44 105.133 99.362 105.402 99.206C105.67 99.05 105.883 98.829 106.039 98.543C106.195 98.2483 106.273 97.9017 106.273 97.503C106.273 97.0957 106.195 96.749 106.039 96.463C105.883 96.177 105.67 95.956 105.402 95.8C105.133 95.644 104.83 95.566 104.492 95.566C104.154 95.566 103.85 95.644 103.582 95.8C103.313 95.956 103.096 96.177 102.932 96.463C102.776 96.749 102.698 97.0957 102.698 97.503C102.698 97.9017 102.776 98.2483 102.932 98.543C103.096 98.829 103.313 99.05 103.582 99.206C103.85 99.362 104.154 99.44 104.492 99.44ZM112.633 101.104C112.052 101.104 111.532 100.991 111.073 100.766C110.622 100.541 110.271 100.198 110.02 99.739C109.769 99.271 109.643 98.6773 109.643 97.958V94.006H111.671V97.659C111.671 98.2397 111.792 98.6687 112.035 98.946C112.286 99.2147 112.637 99.349 113.088 99.349C113.4 99.349 113.677 99.284 113.92 99.154C114.163 99.0153 114.353 98.8073 114.492 98.53C114.631 98.244 114.7 97.8887 114.7 97.464V94.006H116.728V101H114.804V99.076L115.155 99.635C114.921 100.12 114.574 100.489 114.115 100.74C113.664 100.983 113.17 101.104 112.633 101.104ZM122.858 93.902C123.413 93.902 123.907 94.0147 124.34 94.24C124.782 94.4567 125.129 94.7947 125.38 95.254C125.631 95.7047 125.757 96.2853 125.757 96.996V101H123.729V97.308C123.729 96.7447 123.603 96.3287 123.352 96.06C123.109 95.7913 122.763 95.657 122.312 95.657C121.991 95.657 121.701 95.7263 121.441 95.865C121.19 95.995 120.99 96.1987 120.843 96.476C120.704 96.7533 120.635 97.1087 120.635 97.542V101H118.607V94.006H120.544V95.943L120.18 95.358C120.431 94.89 120.791 94.5303 121.259 94.279C121.727 94.0277 122.26 93.902 122.858 93.902ZM130.455 101.104C129.632 101.104 128.991 100.896 128.531 100.48C128.072 100.055 127.842 99.427 127.842 98.595V92.459H129.87V98.569C129.87 98.8637 129.948 99.0933 130.104 99.258C130.26 99.414 130.473 99.492 130.741 99.492C131.062 99.492 131.335 99.4053 131.56 99.232L132.106 100.662C131.898 100.809 131.647 100.922 131.352 101C131.066 101.069 130.767 101.104 130.455 101.104ZM126.763 95.722V94.162H131.612V95.722H126.763ZM136.926 101V94.006H138.954V101H136.926ZM137.94 93.031C137.568 93.031 137.264 92.9227 137.03 92.706C136.796 92.4893 136.679 92.2207 136.679 91.9C136.679 91.5793 136.796 91.3107 137.03 91.094C137.264 90.8773 137.568 90.769 137.94 90.769C138.313 90.769 138.616 90.873 138.85 91.081C139.084 91.2803 139.201 91.5403 139.201 91.861C139.201 92.199 139.084 92.4807 138.85 92.706C138.625 92.9227 138.322 93.031 137.94 93.031ZM145.087 93.902C145.642 93.902 146.136 94.0147 146.569 94.24C147.011 94.4567 147.358 94.7947 147.609 95.254C147.861 95.7047 147.986 96.2853 147.986 96.996V101H145.958V97.308C145.958 96.7447 145.833 96.3287 145.581 96.06C145.339 95.7913 144.992 95.657 144.541 95.657C144.221 95.657 143.93 95.7263 143.67 95.865C143.419 95.995 143.22 96.1987 143.072 96.476C142.934 96.7533 142.864 97.1087 142.864 97.542V101H140.836V94.006H142.773V95.943L142.409 95.358C142.661 94.89 143.02 94.5303 143.488 94.279C143.956 94.0277 144.489 93.902 145.087 93.902ZM157.796 101V99.635L157.666 99.336V96.892C157.666 96.4587 157.532 96.1207 157.263 95.878C157.003 95.6353 156.6 95.514 156.054 95.514C155.682 95.514 155.313 95.5747 154.949 95.696C154.594 95.8087 154.291 95.9647 154.039 96.164L153.311 94.747C153.693 94.4783 154.152 94.2703 154.689 94.123C155.227 93.9757 155.773 93.902 156.327 93.902C157.393 93.902 158.221 94.1533 158.81 94.656C159.4 95.1587 159.694 95.943 159.694 97.009V101H157.796ZM155.664 101.104C155.118 101.104 154.65 101.013 154.26 100.831C153.87 100.64 153.571 100.385 153.363 100.064C153.155 99.7433 153.051 99.3837 153.051 98.985C153.051 98.569 153.151 98.205 153.35 97.893C153.558 97.581 153.883 97.3383 154.325 97.165C154.767 96.983 155.344 96.892 156.054 96.892H157.913V98.075H156.275C155.799 98.075 155.469 98.153 155.287 98.309C155.114 98.465 155.027 98.66 155.027 98.894C155.027 99.154 155.127 99.362 155.326 99.518C155.534 99.6653 155.816 99.739 156.171 99.739C156.509 99.739 156.813 99.661 157.081 99.505C157.35 99.3403 157.545 99.102 157.666 98.79L157.978 99.726C157.831 100.177 157.562 100.519 157.172 100.753C156.782 100.987 156.28 101.104 155.664 101.104ZM32.183 120V112.85C32.183 112.061 32.417 111.433 32.885 110.965C33.353 110.488 34.0203 110.25 34.887 110.25C35.1817 110.25 35.4633 110.28 35.732 110.341C36.0093 110.402 36.2433 110.497 36.434 110.627L35.901 112.096C35.7883 112.018 35.6627 111.957 35.524 111.914C35.3853 111.871 35.238 111.849 35.082 111.849C34.7873 111.849 34.5577 111.936 34.393 112.109C34.237 112.274 34.159 112.525 34.159 112.863V113.513L34.211 114.384V120H32.183ZM31.104 114.722V113.162H35.953V114.722H31.104ZM40.3455 120.104C39.5481 120.104 38.8461 119.948 38.2395 119.636C37.6415 119.324 37.1778 118.899 36.8485 118.362C36.5191 117.816 36.3545 117.196 36.3545 116.503C36.3545 115.801 36.5148 115.181 36.8355 114.644C37.1648 114.098 37.6111 113.673 38.1745 113.37C38.7378 113.058 39.3748 112.902 40.0855 112.902C40.7701 112.902 41.3855 113.049 41.9315 113.344C42.4861 113.63 42.9238 114.046 43.2445 114.592C43.5651 115.129 43.7255 115.775 43.7255 116.529C43.7255 116.607 43.7211 116.698 43.7125 116.802C43.7038 116.897 43.6951 116.988 43.6865 117.075H38.0055V115.892H42.6205L41.8405 116.243C41.8405 115.879 41.7668 115.563 41.6195 115.294C41.4721 115.025 41.2685 114.817 41.0085 114.67C40.7485 114.514 40.4451 114.436 40.0985 114.436C39.7518 114.436 39.4441 114.514 39.1755 114.67C38.9155 114.817 38.7118 115.03 38.5645 115.307C38.4171 115.576 38.3435 115.896 38.3435 116.269V116.581C38.3435 116.962 38.4258 117.3 38.5905 117.595C38.7638 117.881 39.0021 118.102 39.3055 118.258C39.6175 118.405 39.9815 118.479 40.3975 118.479C40.7701 118.479 41.0951 118.423 41.3725 118.31C41.6585 118.197 41.9185 118.028 42.1525 117.803L43.2315 118.973C42.9108 119.337 42.5078 119.619 42.0225 119.818C41.5371 120.009 40.9781 120.104 40.3455 120.104ZM46.5477 120L44.0257 113.006H45.9367L48.0297 119.025H47.1197L49.3037 113.006H51.0197L53.1387 119.025H52.2287L54.3867 113.006H56.1807L53.6457 120H51.6827L49.8237 114.839H50.4217L48.4977 120H46.5477ZM63.1581 120.104C62.5601 120.104 61.9838 120.035 61.4291 119.896C60.8831 119.749 60.4498 119.567 60.1291 119.35L60.8051 117.894C61.1258 118.093 61.5028 118.258 61.9361 118.388C62.3781 118.509 62.8115 118.57 63.2361 118.57C63.7041 118.57 64.0335 118.514 64.2241 118.401C64.4235 118.288 64.5231 118.132 64.5231 117.933C64.5231 117.768 64.4451 117.647 64.2891 117.569C64.1418 117.482 63.9425 117.417 63.6911 117.374C63.4398 117.331 63.1625 117.287 62.8591 117.244C62.5645 117.201 62.2655 117.144 61.9621 117.075C61.6588 116.997 61.3815 116.884 61.1301 116.737C60.8788 116.59 60.6751 116.39 60.5191 116.139C60.3718 115.888 60.2981 115.563 60.2981 115.164C60.2981 114.722 60.4238 114.332 60.6751 113.994C60.9351 113.656 61.3078 113.392 61.7931 113.201C62.2785 113.002 62.8591 112.902 63.5351 112.902C64.0118 112.902 64.4971 112.954 64.9911 113.058C65.4851 113.162 65.8968 113.314 66.2261 113.513L65.5501 114.956C65.2121 114.757 64.8698 114.622 64.5231 114.553C64.1851 114.475 63.8558 114.436 63.5351 114.436C63.0845 114.436 62.7551 114.497 62.5471 114.618C62.3391 114.739 62.2351 114.895 62.2351 115.086C62.2351 115.259 62.3088 115.389 62.4561 115.476C62.6121 115.563 62.8158 115.632 63.0671 115.684C63.3185 115.736 63.5915 115.784 63.8861 115.827C64.1895 115.862 64.4928 115.918 64.7961 115.996C65.0995 116.074 65.3725 116.187 65.6151 116.334C65.8665 116.473 66.0701 116.668 66.2261 116.919C66.3821 117.162 66.4601 117.482 66.4601 117.881C66.4601 118.314 66.3301 118.7 66.0701 119.038C65.8101 119.367 65.4331 119.627 64.9391 119.818C64.4538 120.009 63.8601 120.104 63.1581 120.104ZM70.5714 120.104C69.7481 120.104 69.1067 119.896 68.6474 119.48C68.1881 119.055 67.9584 118.427 67.9584 117.595V111.459H69.9864V117.569C69.9864 117.864 70.0644 118.093 70.2204 118.258C70.3764 118.414 70.5887 118.492 70.8574 118.492C71.1781 118.492 71.4511 118.405 71.6764 118.232L72.2224 119.662C72.0144 119.809 71.7631 119.922 71.4684 120C71.1824 120.069 70.8834 120.104 70.5714 120.104ZM66.8794 114.722V113.162H71.7284V114.722H66.8794ZM76.616 120.104C75.8187 120.104 75.1167 119.948 74.51 119.636C73.912 119.324 73.4483 118.899 73.119 118.362C72.7897 117.816 72.625 117.196 72.625 116.503C72.625 115.801 72.7853 115.181 73.106 114.644C73.4353 114.098 73.8817 113.673 74.445 113.37C75.0083 113.058 75.6453 112.902 76.356 112.902C77.0407 112.902 77.656 113.049 78.202 113.344C78.7567 113.63 79.1943 114.046 79.515 114.592C79.8357 115.129 79.996 115.775 79.996 116.529C79.996 116.607 79.9917 116.698 79.983 116.802C79.9743 116.897 79.9657 116.988 79.957 117.075H74.276V115.892H78.891L78.111 116.243C78.111 115.879 78.0373 115.563 77.89 115.294C77.7427 115.025 77.539 114.817 77.279 114.67C77.019 114.514 76.7157 114.436 76.369 114.436C76.0223 114.436 75.7147 114.514 75.446 114.67C75.186 114.817 74.9823 115.03 74.835 115.307C74.6877 115.576 74.614 115.896 74.614 116.269V116.581C74.614 116.962 74.6963 117.3 74.861 117.595C75.0343 117.881 75.2727 118.102 75.576 118.258C75.888 118.405 76.252 118.479 76.668 118.479C77.0407 118.479 77.3657 118.423 77.643 118.31C77.929 118.197 78.189 118.028 78.423 117.803L79.502 118.973C79.1813 119.337 78.7783 119.619 78.293 119.818C77.8077 120.009 77.2487 120.104 76.616 120.104ZM85.4802 120.104C84.8908 120.104 84.3752 119.974 83.9332 119.714C83.4912 119.454 83.1445 119.06 82.8932 118.531C82.6505 117.994 82.5292 117.318 82.5292 116.503C82.5292 115.68 82.6462 115.004 82.8802 114.475C83.1142 113.946 83.4522 113.552 83.8942 113.292C84.3362 113.032 84.8648 112.902 85.4802 112.902C86.1388 112.902 86.7282 113.054 87.2482 113.357C87.7768 113.652 88.1928 114.068 88.4962 114.605C88.8082 115.142 88.9642 115.775 88.9642 116.503C88.9642 117.24 88.8082 117.877 88.4962 118.414C88.1928 118.951 87.7768 119.367 87.2482 119.662C86.7282 119.957 86.1388 120.104 85.4802 120.104ZM81.3462 122.522V113.006H83.2832V114.436L83.2442 116.516L83.3742 118.583V122.522H81.3462ZM85.1292 118.44C85.4672 118.44 85.7662 118.362 86.0262 118.206C86.2948 118.05 86.5072 117.829 86.6632 117.543C86.8278 117.248 86.9102 116.902 86.9102 116.503C86.9102 116.096 86.8278 115.749 86.6632 115.463C86.5072 115.177 86.2948 114.956 86.0262 114.8C85.7662 114.644 85.4672 114.566 85.1292 114.566C84.7912 114.566 84.4878 114.644 84.2192 114.8C83.9505 114.956 83.7382 115.177 83.5822 115.463C83.4262 115.749 83.3482 116.096 83.3482 116.503C83.3482 116.902 83.4262 117.248 83.5822 117.543C83.7382 117.829 83.9505 118.05 84.2192 118.206C84.4878 118.362 84.7912 118.44 85.1292 118.44ZM92.6747 120.104C92.0767 120.104 91.5004 120.035 90.9457 119.896C90.3997 119.749 89.9664 119.567 89.6457 119.35L90.3217 117.894C90.6424 118.093 91.0194 118.258 91.4527 118.388C91.8947 118.509 92.3281 118.57 92.7527 118.57C93.2207 118.57 93.5501 118.514 93.7407 118.401C93.9401 118.288 94.0397 118.132 94.0397 117.933C94.0397 117.768 93.9617 117.647 93.8057 117.569C93.6584 117.482 93.4591 117.417 93.2077 117.374C92.9564 117.331 92.6791 117.287 92.3757 117.244C92.0811 117.201 91.7821 117.144 91.4787 117.075C91.1754 116.997 90.8981 116.884 90.6467 116.737C90.3954 116.59 90.1917 116.39 90.0357 116.139C89.8884 115.888 89.8147 115.563 89.8147 115.164C89.8147 114.722 89.9404 114.332 90.1917 113.994C90.4517 113.656 90.8244 113.392 91.3097 113.201C91.7951 113.002 92.3757 112.902 93.0517 112.902C93.5284 112.902 94.0137 112.954 94.5077 113.058C95.0017 113.162 95.4134 113.314 95.7427 113.513L95.0667 114.956C94.7287 114.757 94.3864 114.622 94.0397 114.553C93.7017 114.475 93.3724 114.436 93.0517 114.436C92.6011 114.436 92.2717 114.497 92.0637 114.618C91.8557 114.739 91.7517 114.895 91.7517 115.086C91.7517 115.259 91.8254 115.389 91.9727 115.476C92.1287 115.563 92.3324 115.632 92.5837 115.684C92.8351 115.736 93.1081 115.784 93.4027 115.827C93.7061 115.862 94.0094 115.918 94.3127 115.996C94.6161 116.074 94.8891 116.187 95.1317 116.334C95.3831 116.473 95.5867 116.668 95.7427 116.919C95.8987 117.162 95.9767 117.482 95.9767 117.881C95.9767 118.314 95.8467 118.7 95.5867 119.038C95.3267 119.367 94.9497 119.627 94.4557 119.818C93.9704 120.009 93.3767 120.104 92.6747 120.104Z" fill="white"/>
<g clip-path="url(#clip1_221_1819)">
<rect x="178" y="33.5698" width="547" height="369.55" rx="20" transform="rotate(-15.76 178 33.5698)" fill="#FCFCFC"/>
<path d="M205.642 129.675L1592.47 -261.713" stroke="#E2E2E2" stroke-width="0.5"/>
<path d="M242.902 59.2087C244.345 58.8015 245.01 57.8325 244.673 56.6389C244.419 55.7366 243.614 55.2585 242.664 55.4151L242.653 55.3775C243.298 55.0737 243.647 54.28 243.444 53.5611C243.155 52.5366 242.177 52.0921 240.974 52.4316L238.268 53.1955L240.181 59.9766L242.902 59.2087ZM239.563 53.7584L240.963 53.3632C241.725 53.1484 242.255 53.3741 242.433 54.0038C242.623 54.6758 242.226 55.1936 241.314 55.4509L240.135 55.7838L239.563 53.7584ZM240.991 58.8195L240.361 56.5874L241.752 56.1948C242.749 55.9137 243.372 56.1437 243.579 56.8768C243.785 57.6099 243.393 58.1418 242.443 58.4097L240.991 58.8195ZM247.526 57.1277C246.98 57.2815 246.544 57.1004 246.422 56.668C246.302 56.2451 246.57 55.8804 247.164 55.667L248.36 55.2484L248.47 55.6384C248.652 56.2822 248.235 56.9274 247.526 57.1277ZM247.47 58.0108C248.119 57.8278 248.646 57.3037 248.777 56.673L248.801 56.6663L249.03 57.4793L250.003 57.2048L249.041 53.7978C248.762 52.8063 247.817 52.388 246.618 52.7262C245.396 53.071 244.821 53.9438 245.016 54.8526L245.975 54.582C245.94 54.1151 246.227 53.7297 246.814 53.5639C247.434 53.3888 247.898 53.613 248.054 54.1628L248.161 54.5435L246.83 55.0053C245.674 55.4027 245.161 56.1207 245.405 56.9853C245.656 57.8735 246.502 58.284 247.47 58.0108ZM250.99 56.9263L252.005 56.6398L251.192 53.7592C250.976 52.9932 251.293 52.3557 252.007 52.1541C252.712 51.9552 253.175 52.2659 253.385 53.0084L254.232 56.0112L255.252 55.7234L254.349 52.5232C254.029 51.3907 253.208 50.8716 252.118 51.1793C251.356 51.3941 250.928 51.8904 250.819 52.5299L250.796 52.5365L250.563 51.7095L249.595 51.9827L250.99 56.9263ZM256.499 52.3222L256.49 52.3249L255.373 48.3681L254.358 48.6546L256.272 55.4356L257.287 55.1491L256.785 53.3728L257.09 52.8352L259.387 54.5563L260.567 54.2234L257.644 52.0094L259.092 49.3024L257.898 49.6392L256.499 52.3222Z" fill="#6F6F6F"/>
<g filter="url(#filter0_d_221_1819)">
<rect x="241.729" y="67.8522" width="293" height="36" rx="8" transform="rotate(-15.76 241.729 67.8522)" fill="white" shape-rendering="crispEdges"/>
<path d="M262.229 82.9699C263.79 82.5295 264.619 81.4075 264.483 79.9341L263.435 80.2299C263.454 81.1072 262.919 81.7809 261.974 82.0475C260.729 82.3989 259.657 81.6208 259.21 80.0371C258.767 78.4676 259.281 77.2318 260.512 76.8843C261.433 76.6244 262.317 76.9887 262.75 77.8051L263.794 77.5106C263.216 76.1466 261.789 75.5296 260.252 75.9633C258.358 76.4977 257.528 78.1933 258.134 80.3408C258.744 82.5025 260.326 83.507 262.229 82.9699ZM265.943 81.8001L266.958 81.5136L266.152 78.6565C265.931 77.8764 266.246 77.2295 266.998 77.0173C267.712 76.8157 268.202 77.1493 268.408 77.8777L269.251 80.8664L270.271 80.5786L269.372 77.3925C269.056 76.2741 268.203 75.7334 267.118 76.0398C266.366 76.252 265.92 76.7382 265.81 77.3931L265.787 77.3997L265.035 74.7352L264.029 75.019L265.943 81.8001ZM273.404 79.796C274.818 79.3968 275.474 78.1615 275.024 76.5684C274.576 74.9801 273.366 74.2712 271.957 74.6691C270.547 75.067 269.886 76.3036 270.335 77.892C270.784 79.485 271.989 80.1952 273.404 79.796ZM273.168 78.9595C272.373 79.1837 271.679 78.6998 271.368 77.6002C271.059 76.5053 271.399 75.7297 272.193 75.5056C272.987 75.2814 273.682 75.7653 273.991 76.8602C274.301 77.9598 273.966 78.7341 273.168 78.9595ZM278.657 78.3133C280.072 77.9141 280.728 76.6788 280.278 75.0857C279.83 73.4974 278.62 72.7885 277.21 73.1864C275.801 73.5843 275.14 74.8209 275.588 76.4093C276.038 78.0023 277.243 78.7125 278.657 78.3133ZM278.421 77.4768C277.627 77.7009 276.933 77.2171 276.622 76.1175C276.313 75.0226 276.652 74.247 277.447 74.0229C278.241 73.7987 278.935 74.2826 279.244 75.3775C279.555 76.4771 279.22 77.2514 278.421 77.4768ZM280.671 73.818C280.866 74.5088 281.449 74.8467 282.403 74.8109L283.347 74.7777C283.901 74.7634 284.138 74.8842 284.227 75.1991C284.34 75.5985 284.035 75.9584 283.424 76.1308C282.804 76.3059 282.363 76.1461 282.15 75.6941L281.144 75.9779C281.48 76.8623 282.426 77.2497 283.596 76.9194C284.809 76.5773 285.475 75.7196 285.22 74.8173C285.015 74.0889 284.533 73.8191 283.469 73.8606L282.583 73.9027C282.035 73.9203 281.732 73.7825 281.646 73.4771C281.536 73.087 281.826 72.7157 282.376 72.5606C282.945 72.4001 283.385 72.5752 283.558 73.0084L284.512 72.7392C284.231 71.8697 283.287 71.4716 282.187 71.7819C281.031 72.1082 280.422 72.9345 280.671 73.818ZM287.291 71.2243C288 71.0241 288.63 71.4198 288.867 72.1698L286.395 72.8673C286.236 72.1056 286.581 71.4246 287.291 71.2243ZM289.278 73.6467C289.264 74.1174 288.919 74.5295 288.341 74.6926C287.528 74.922 286.85 74.4993 286.608 73.6394L286.59 73.5783L290.082 72.5929L289.984 72.2451C289.561 70.7461 288.432 70.0194 287.06 70.4067C285.664 70.8005 285.063 72.0864 285.501 73.6371C285.941 75.1973 287.097 75.9314 288.549 75.5216C289.682 75.202 290.355 74.3168 290.242 73.3748L289.278 73.6467ZM296.295 73.2341C297.738 72.8269 298.403 71.8579 298.066 70.6643C297.812 69.762 297.007 69.2839 296.057 69.4404L296.046 69.4028C296.691 69.0991 297.04 68.3054 296.837 67.5864C296.548 66.562 295.571 66.1175 294.368 66.457L291.661 67.2209L293.575 74.0019L296.295 73.2341ZM292.956 67.7838L294.356 67.3886C295.118 67.1738 295.648 67.3995 295.826 68.0292C296.016 68.7012 295.619 69.219 294.707 69.4763L293.528 69.8092L292.956 67.7838ZM294.384 72.8449L293.754 70.6128L295.145 70.2202C296.142 69.939 296.765 70.1691 296.972 70.9022C297.179 71.6353 296.786 72.1672 295.837 72.4351L294.384 72.8449ZM300.919 71.1531C300.373 71.3069 299.937 71.1257 299.815 70.6934C299.695 70.2705 299.963 69.9058 300.557 69.6924L301.753 69.2738L301.863 69.6638C302.045 70.3076 301.628 70.9528 300.919 71.1531ZM300.863 72.0362C301.512 71.8532 302.039 71.3291 302.17 70.6983L302.194 70.6917L302.423 71.5047L303.396 71.2302L302.434 67.8232C302.155 66.8317 301.21 66.4134 300.011 66.7516C298.789 67.0964 298.214 67.9692 298.409 68.8779L299.368 68.6074C299.333 68.1405 299.62 67.7551 300.207 67.5893C300.827 67.4142 301.291 67.6384 301.447 68.1882L301.554 68.5689L300.223 69.0307C299.067 69.428 298.554 70.1461 298.798 71.0107C299.049 71.8989 299.895 72.3094 300.863 72.0362ZM304.383 70.9517L305.398 70.6652L304.585 67.7845C304.369 67.0186 304.686 66.3811 305.4 66.1795C306.105 65.9806 306.568 66.2913 306.778 67.0337L307.625 70.0366L308.645 69.7488L307.742 66.5486C307.422 65.4161 306.601 64.897 305.511 65.2046C304.749 65.4195 304.321 65.9158 304.213 66.5553L304.189 66.5619L303.956 65.7348L302.988 66.008L304.383 70.9517ZM309.892 66.3476L309.883 66.3503L308.766 62.3935L307.751 62.68L309.665 69.461L310.68 69.1745L310.178 67.3982L310.483 66.8606L312.78 68.5817L313.96 68.2488L311.037 66.0348L312.485 63.3278L311.291 63.6646L309.892 66.3476Z" fill="#6F6F6F"/>
<rect x="242.347" y="68.1976" width="292" height="35" rx="7.5" transform="rotate(-15.76 242.347 68.1976)" stroke="#E2E2E2" shape-rendering="crispEdges"/>
</g>
<path d="M262.928 136.549L264.375 136.141C265.188 135.911 265.812 136.232 266.025 136.989C266.244 137.764 265.905 138.342 265.092 138.571L263.616 138.988L262.928 136.549ZM263.856 139.838L265.304 139.43L267.421 141.648L268.634 141.306L266.333 138.962C267.082 138.451 267.361 137.571 267.103 136.654C266.746 135.39 265.649 134.827 264.253 135.221L261.626 135.963L263.54 142.744L264.592 142.447L263.856 139.838ZM270.189 136.316C270.898 136.116 271.527 136.512 271.764 137.262L269.293 137.959C269.133 137.198 269.479 136.517 270.189 136.316ZM272.176 138.739C272.162 139.209 271.816 139.621 271.238 139.785C270.425 140.014 269.748 139.591 269.505 138.731L269.488 138.67L272.98 137.685L272.882 137.337C272.458 135.838 271.33 135.111 269.958 135.499C268.562 135.893 267.961 137.178 268.399 138.729C268.839 140.289 269.995 141.023 271.447 140.614C272.58 140.294 273.253 139.409 273.139 138.467L272.176 138.739ZM277.723 135.24C277.36 134.292 276.353 133.694 275.08 134.053C273.675 134.45 273.034 135.701 273.477 137.271C273.928 138.868 275.122 139.576 276.536 139.177C277.725 138.842 278.365 137.89 278.176 136.807L277.198 137.083C277.243 137.689 276.931 138.148 276.306 138.324C275.516 138.547 274.817 138.064 274.51 136.979C274.211 135.917 274.543 135.118 275.328 134.896C275.991 134.709 276.503 135.016 276.755 135.513L277.723 135.24ZM279.4 138.268L280.415 137.981L279.02 133.038L278.005 133.324L279.4 138.268ZM278.308 132.457C278.637 132.364 278.827 132.032 278.737 131.712C278.645 131.388 278.309 131.204 277.98 131.296C277.656 131.388 277.466 131.721 277.557 132.045C277.648 132.364 277.984 132.549 278.308 132.457ZM282.611 131.938C281.897 132.139 281.43 132.662 281.299 133.313L281.28 133.318L281.04 132.467L280.058 132.745L281.915 139.323L282.93 139.037L282.239 136.589L282.262 136.582C282.7 137.052 283.362 137.241 284.071 137.041C285.312 136.691 285.854 135.467 285.413 133.902C284.971 132.337 283.866 131.584 282.611 131.938ZM283.542 136.262C282.762 136.482 282.057 135.96 281.766 134.931C281.478 133.911 281.809 133.088 282.584 132.869C283.388 132.642 284.078 133.163 284.37 134.196C284.663 135.235 284.345 136.035 283.542 136.262ZM286.928 136.143L287.943 135.857L286.548 130.913L285.533 131.199L286.928 136.143ZM285.836 130.333C286.165 130.24 286.355 129.907 286.265 129.587C286.174 129.263 285.837 129.079 285.509 129.172C285.184 129.263 284.994 129.596 285.086 129.92C285.176 130.24 285.512 130.424 285.836 130.333ZM289.86 130.765C290.569 130.565 291.198 130.96 291.435 131.71L288.964 132.408C288.804 131.646 289.15 130.965 289.86 130.765ZM291.847 133.187C291.833 133.658 291.488 134.07 290.909 134.233C290.097 134.462 289.419 134.04 289.176 133.18L289.159 133.119L292.651 132.133L292.553 131.786C292.13 130.287 291.001 129.56 289.629 129.947C288.233 130.341 287.632 131.627 288.07 133.178C288.51 134.738 289.666 135.472 291.118 135.062C292.251 134.742 292.924 133.857 292.811 132.915L291.847 133.187ZM294.066 134.129L295.081 133.842L294.268 130.961C294.052 130.195 294.369 129.558 295.084 129.356C295.789 129.157 296.252 129.468 296.461 130.211L297.309 133.213L298.328 132.926L297.425 129.726C297.106 128.593 296.284 128.074 295.194 128.382C294.433 128.596 294.005 129.093 293.896 129.732L293.872 129.739L293.639 128.912L292.671 129.185L294.066 134.129ZM297.881 126.451L298.211 127.621L297.492 127.824L297.719 128.628L298.438 128.425L299.239 131.263C299.508 132.217 300.006 132.488 301.007 132.205C301.232 132.142 301.453 132.059 301.558 131.999L301.331 131.196C301.269 131.228 301.107 131.284 301.004 131.313C300.59 131.43 300.348 131.29 300.227 130.863L299.458 128.137L300.398 127.872L300.171 127.068L299.231 127.334L298.901 126.163L297.881 126.451ZM308.897 129.943L310.011 129.629L305.649 123.539L304.512 123.86L303.977 131.332L305.072 131.023L305.175 129.015L307.76 128.285L308.897 129.943ZM305.375 124.834L305.403 124.826L307.253 127.515L305.204 128.093L305.375 124.834ZM313.833 125.049C313.469 124.102 312.463 123.503 311.189 123.862C309.784 124.259 309.143 125.51 309.586 127.08C310.037 128.678 311.231 129.386 312.645 128.987C313.834 128.651 314.474 127.699 314.285 126.616L313.307 126.892C313.352 127.499 313.04 127.957 312.415 128.133C311.625 128.356 310.926 127.874 310.62 126.788C310.32 125.726 310.652 124.927 311.437 124.706C312.1 124.519 312.613 124.825 312.864 125.323L313.833 125.049ZM318.804 123.646C318.441 122.699 317.434 122.1 316.161 122.459C314.756 122.856 314.115 124.107 314.558 125.677C315.008 127.275 316.203 127.983 317.617 127.584C318.806 127.248 319.446 126.296 319.257 125.213L318.279 125.489C318.324 126.096 318.012 126.554 317.387 126.73C316.597 126.953 315.898 126.471 315.591 125.385C315.292 124.323 315.624 123.524 316.409 123.303C317.072 123.116 317.584 123.422 317.836 123.919L318.804 123.646ZM322.598 126.178C324.013 125.779 324.669 124.543 324.219 122.95C323.771 121.362 322.561 120.653 321.152 121.051C319.742 121.449 319.081 122.685 319.529 124.274C319.979 125.867 321.184 126.577 322.598 126.178ZM322.362 125.341C321.568 125.565 320.874 125.082 320.563 123.982C320.254 122.887 320.593 122.111 321.388 121.887C322.182 121.663 322.876 122.147 323.185 123.242C323.496 124.342 323.161 125.116 322.362 125.341ZM328.545 119.061L327.53 119.347L328.343 122.228C328.561 122.998 328.262 123.631 327.529 123.838C326.829 124.035 326.358 123.732 326.145 122.98L325.298 119.977L324.283 120.264L325.186 123.464C325.506 124.596 326.361 125.111 327.437 124.807C328.194 124.594 328.603 124.118 328.708 123.449L328.732 123.442L328.968 124.279L329.94 124.004L328.545 119.061ZM330.946 123.72L331.961 123.434L331.148 120.553C330.932 119.787 331.249 119.15 331.963 118.948C332.668 118.749 333.131 119.06 333.341 119.803L334.188 122.805L335.208 122.518L334.305 119.317C333.985 118.185 333.164 117.666 332.074 117.973C331.313 118.188 330.884 118.685 330.776 119.324L330.752 119.331L330.519 118.504L329.551 118.777L330.946 123.72ZM334.761 116.043L335.091 117.213L334.372 117.416L334.599 118.22L335.318 118.017L336.119 120.855C336.388 121.809 336.886 122.08 337.887 121.797C338.112 121.734 338.332 121.651 338.437 121.591L338.211 120.787C338.149 120.82 337.987 120.876 337.883 120.905C337.47 121.022 337.228 120.882 337.107 120.455L336.338 117.729L337.278 117.464L337.051 116.66L336.111 116.925L335.781 115.755L334.761 116.043ZM342.384 120.492L340.974 115.497L341.016 115.485L345.941 119.489L346.891 119.221L344.977 112.44L343.952 112.729L345.363 117.729L345.326 117.739L340.4 113.731L339.446 114.001L341.36 120.782L342.384 120.492ZM350.867 112.761L349.852 113.048L350.665 115.928C350.882 116.699 350.584 117.331 349.85 117.538C349.15 117.736 348.679 117.432 348.467 116.68L347.619 113.678L346.604 113.964L347.508 117.164C347.827 118.297 348.683 118.811 349.759 118.508C350.515 118.294 350.924 117.818 351.029 117.149L351.053 117.143L351.289 117.979L352.262 117.705L350.867 112.761ZM353.267 117.421L354.282 117.134L353.42 114.08C353.241 113.446 353.536 112.855 354.138 112.685C354.711 112.523 355.175 112.783 355.336 113.352L356.247 116.58L357.243 116.299L356.372 113.212C356.195 112.587 356.488 112.022 357.089 111.852C357.691 111.683 358.137 111.952 358.317 112.591L359.207 115.745L360.227 115.457L359.268 112.059C358.991 111.077 358.169 110.609 357.191 110.885C356.487 111.084 356.007 111.615 355.923 112.288L355.9 112.295C355.529 111.735 354.931 111.523 354.245 111.716C353.578 111.905 353.164 112.417 353.099 113.029L353.075 113.036L352.84 112.204L351.872 112.477L353.267 117.421ZM363.865 114.522C365.119 114.167 365.649 112.952 365.206 111.383C364.765 109.818 363.673 109.061 362.428 109.412C361.728 109.61 361.262 110.117 361.128 110.773L361.104 110.78L360.348 108.102L359.333 108.388L361.247 115.169L362.234 114.891L361.996 114.049L362.015 114.044C362.482 114.531 363.141 114.726 363.865 114.522ZM362.392 110.346C363.191 110.12 363.87 110.639 364.163 111.677C364.459 112.725 364.148 113.513 363.349 113.739C362.579 113.956 361.85 113.441 361.56 112.412C361.272 111.392 361.621 110.563 362.392 110.346ZM367.576 108.832C368.286 108.632 368.915 109.027 369.152 109.777L366.68 110.475C366.521 109.713 366.866 109.032 367.576 108.832ZM369.563 111.254C369.549 111.725 369.204 112.137 368.626 112.3C367.813 112.53 367.135 112.107 366.893 111.247L366.876 111.186L370.367 110.2L370.269 109.853C369.846 108.354 368.717 107.627 367.345 108.014C365.95 108.408 365.348 109.694 365.786 111.245C366.226 112.805 367.382 113.539 368.834 113.129C369.967 112.81 370.64 111.924 370.527 110.982L369.563 111.254ZM371.783 112.196L372.798 111.909L371.962 108.949C371.764 108.248 372.045 107.697 372.698 107.513C372.896 107.457 373.081 107.43 373.17 107.441L372.904 106.496C372.824 106.503 372.691 106.516 372.545 106.557C371.963 106.721 371.618 107.189 371.616 107.813L371.593 107.82L371.355 106.979L370.387 107.252L371.783 112.196Z" fill="#6F6F6F"/>
<g filter="url(#filter1_d_221_1819)">
<rect x="265.088" y="150.619" width="298" height="36" rx="8" transform="rotate(-15.76 265.088 150.619)" fill="white" shape-rendering="crispEdges"/>
<path d="M283.45 161.668C284.16 161.467 284.789 161.863 285.026 162.613L282.554 163.311C282.395 162.549 282.74 161.868 283.45 161.668ZM285.438 164.09C285.423 164.561 285.078 164.973 284.5 165.136C283.687 165.365 283.009 164.943 282.767 164.083L282.75 164.021L286.241 163.036L286.143 162.688C285.72 161.189 284.591 160.463 283.219 160.85C281.824 161.244 281.222 162.53 281.66 164.08C282.1 165.64 283.256 166.375 284.708 165.965C285.841 165.645 286.515 164.76 286.401 163.818L285.438 164.09ZM288.91 162.714L290.514 164.225L291.632 163.909L289.324 161.862L290.256 158.96L289.137 159.276L288.576 161.368L288.557 161.373L286.971 159.887L285.834 160.208L288.14 162.231L287.205 165.159L288.305 164.848L288.887 162.721L288.91 162.714ZM293.066 163.561C293.409 163.464 293.605 163.114 293.508 162.771C293.411 162.428 293.061 162.233 292.718 162.329C292.375 162.426 292.18 162.776 292.277 163.119C292.373 163.462 292.723 163.657 293.066 163.561ZM292.099 160.135C292.442 160.038 292.639 159.693 292.541 159.345C292.444 159.002 292.095 158.807 291.752 158.904C291.409 159 291.213 159.35 291.31 159.693C291.408 160.041 291.756 160.232 292.099 160.135ZM298.512 161.968L299.541 161.677L297.627 154.896L296.589 155.189L295.161 156.962L295.453 157.996L296.869 156.237L296.893 156.23L298.512 161.968ZM299.786 156.433L299.789 156.443L300.785 156.161L300.781 156.147C300.582 155.442 300.99 154.749 301.732 154.539C302.437 154.34 303.118 154.666 303.287 155.267C303.437 155.798 303.322 156.217 302.738 157.31L300.994 160.496L301.195 161.211L305.833 159.902L305.583 159.013L302.364 159.922L302.357 159.898L303.572 157.714C304.277 156.419 304.534 155.712 304.311 154.923C304.008 153.847 302.812 153.296 301.52 153.661C300.171 154.041 299.441 155.211 299.786 156.433ZM307.378 156.153L308.224 155.914C309.117 155.662 309.799 155.957 310.005 156.69C310.192 157.352 309.733 157.989 308.906 158.223C308.051 158.464 307.389 158.169 307.14 157.539L306.13 157.824C306.526 158.976 307.692 159.514 309.154 159.101C310.568 158.702 311.415 157.586 311.081 156.401C310.813 155.452 309.979 155.013 308.939 155.23L308.934 155.211C309.732 154.823 310.116 154.061 309.877 153.215C309.583 152.172 308.442 151.707 307.159 152.069C305.815 152.449 305.134 153.468 305.389 154.679L306.381 154.399C306.254 153.715 306.623 153.154 307.356 152.947C308.16 152.72 308.71 153.017 308.888 153.646C309.068 154.285 308.695 154.888 307.962 155.095L307.145 155.326L307.378 156.153ZM315.819 157.083L316.83 156.798L316.452 155.459L317.382 155.196L317.133 154.313L316.202 154.575L314.916 150.017L313.393 150.447C312.489 153.087 312.062 154.521 311.788 155.781L312.048 156.702L315.441 155.744L315.819 157.083ZM312.779 155.532C313.042 154.397 313.429 153.146 314.125 151.118L314.144 151.113L315.205 154.872L312.785 155.555L312.779 155.532ZM321.038 155.747C322.5 155.335 323.252 154.083 322.86 152.692C322.488 151.376 321.284 150.686 319.982 151.053C319.32 151.24 318.838 151.655 318.663 152.166L318.639 152.173L318.24 150.038L321.431 149.138L321.18 148.249L317.143 149.389L317.868 153.324L318.832 153.052C318.969 152.531 319.401 152.12 319.988 151.955C320.834 151.716 321.599 152.16 321.839 153.01C322.079 153.861 321.655 154.625 320.8 154.866C320.043 155.08 319.335 154.782 319.07 154.131L318.065 154.415C318.46 155.582 319.685 156.129 321.038 155.747ZM326.932 154.089C328.37 153.683 329.13 152.403 328.747 151.045C328.384 149.758 327.156 149.074 325.864 149.439C325.018 149.678 324.423 150.322 324.313 151.064L324.294 151.069C323.818 149.362 324.165 148.219 325.231 147.918C325.852 147.743 326.461 147.961 326.782 148.469L327.835 148.172C327.323 147.15 326.19 146.693 324.991 147.032C323.295 147.51 322.659 149.141 323.3 151.411C323.524 152.205 323.853 152.832 324.283 153.294C324.983 154.086 325.932 154.372 326.932 154.089ZM326.672 153.204C325.864 153.432 325.059 152.969 324.832 152.165C324.605 151.362 325.054 150.596 325.881 150.363C326.713 150.128 327.476 150.551 327.709 151.374C327.933 152.168 327.471 152.978 326.672 153.204ZM330.641 152.9L331.745 152.589L333.035 145.888L332.778 144.976L328.163 146.279L328.414 147.167L331.99 146.158L331.996 146.181L330.641 152.9ZM338.106 150.931C339.61 150.506 340.444 149.398 340.119 148.247C339.876 147.387 339.074 146.863 338.118 146.929L338.112 146.906C338.802 146.477 339.117 145.759 338.914 145.04C338.621 144.002 337.455 143.519 336.121 143.896C334.791 144.271 334.041 145.3 334.331 146.329C334.537 147.057 335.187 147.508 335.997 147.502L336.004 147.526C335.159 147.967 334.743 148.83 334.987 149.695C335.311 150.842 336.593 151.358 338.106 150.931ZM337.867 150.085C337.003 150.329 336.246 150.004 336.051 149.314C335.855 148.618 336.329 147.942 337.194 147.698C338.058 147.453 338.81 147.779 339.007 148.479C339.202 149.17 338.732 149.841 337.867 150.085ZM336.955 146.852C336.217 147.06 335.58 146.763 335.406 146.147C335.231 145.527 335.619 144.941 336.357 144.732C337.09 144.525 337.731 144.821 337.906 145.442C338.08 146.057 337.683 146.646 336.955 146.852ZM343.881 149.301C345.582 148.821 346.209 147.193 345.568 144.923C345.344 144.129 345.015 143.501 344.585 143.039C343.891 142.251 342.938 141.967 341.932 142.251C340.499 142.655 339.734 143.936 340.118 145.294C340.481 146.582 341.714 147.264 343.001 146.901C343.875 146.654 344.465 146.011 344.549 145.267L344.554 145.265L344.558 145.264C344.563 145.263 344.568 145.261 344.568 145.261C345.051 146.972 344.706 148.124 343.649 148.423C343.024 148.599 342.402 148.374 342.086 147.864L341.028 148.163C341.534 149.182 342.674 149.642 343.881 149.301ZM342.984 145.977C342.162 146.209 341.386 145.779 341.156 144.966C340.933 144.176 341.391 143.372 342.2 143.144C343.008 142.916 343.815 143.368 344.042 144.172C344.268 144.971 343.816 145.742 342.984 145.977Z" fill="#C7C7C7"/>
<rect x="265.705" y="150.965" width="297" height="35" rx="7.5" transform="rotate(-15.76 265.705 150.965)" stroke="#E2E2E2" shape-rendering="crispEdges"/>
</g>
</g>
</g>
<defs>
<filter id="filter0_d_221_1819" x="240.729" y="-11.729" width="293.763" height="116.228" filterUnits="userSpaceOnUse" color-interpolation-filters="sRGB">
<feFlood flood-opacity="0" result="BackgroundImageFix"/>
<feColorMatrix in="SourceAlpha" type="matrix" values="0 0 0 0 0 0 0 0 0 0 0 0 0 0 0 0 0 0 127 0" result="hardAlpha"/>
<feOffset dy="1"/>
<feGaussianBlur stdDeviation="0.5"/>
<feComposite in2="hardAlpha" operator="out"/>
<feColorMatrix type="matrix" values="0 0 0 0 0.0784314 0 0 0 0 0.0784314 0 0 0 0 0 0 0 0 0.051 0"/>
<feBlend mode="normal" in2="BackgroundImageFix" result="effect1_dropShadow_221_1819"/>
<feBlend mode="normal" in="SourceGraphic" in2="effect1_dropShadow_221_1819" result="shape"/>
</filter>
<filter id="filter1_d_221_1819" x="264.088" y="69.68" width="298.575" height="117.586" filterUnits="userSpaceOnUse" color-interpolation-filters="sRGB">
<feFlood flood-opacity="0" result="BackgroundImageFix"/>
<feColorMatrix in="SourceAlpha" type="matrix" values="0 0 0 0 0 0 0 0 0 0 0 0 0 0 0 0 0 0 127 0" result="hardAlpha"/>
<feOffset dy="1"/>
<feGaussianBlur stdDeviation="0.5"/>
<feComposite in2="hardAlpha" operator="out"/>
<feColorMatrix type="matrix" values="0 0 0 0 0.0784314 0 0 0 0 0.0784314 0 0 0 0 0 0 0 0 0.051 0"/>
<feBlend mode="normal" in2="BackgroundImageFix" result="effect1_dropShadow_221_1819"/>
<feBlend mode="normal" in="SourceGraphic" in2="effect1_dropShadow_221_1819" result="shape"/>
</filter>
<clipPath id="clip0_221_1819">
<rect width="369" height="155" rx="15" fill="white"/>
</clipPath>
<clipPath id="clip1_221_1819">
<rect x="178" y="33.5698" width="547" height="369.55" rx="20" transform="rotate(-15.76 178 33.5698)" fill="white"/>
</clipPath>
</defs>
</svg>
