<svg width="369" height="155" viewBox="0 0 369 155" fill="none" xmlns="http://www.w3.org/2000/svg">
<g clip-path="url(#clip0_215_16)">
<rect width="369" height="155" rx="15" fill="#248A94"/>
<path d="M32.964 58V50.616H30.052V48.9H37.982V50.616H35.07V58H32.964ZM38.8198 58V51.006H40.7568V52.982L40.4838 52.41C40.6918 51.916 41.0255 51.5433 41.4848 51.292C41.9441 51.032 42.5031 50.902 43.1618 50.902V52.774C43.0751 52.7653 42.9971 52.761 42.9278 52.761C42.8585 52.7523 42.7848 52.748 42.7068 52.748C42.1521 52.748 41.7015 52.9083 41.3548 53.229C41.0168 53.541 40.8478 54.0307 40.8478 54.698V58H38.8198ZM48.2006 58V56.635L48.0706 56.336V53.892C48.0706 53.4587 47.9363 53.1207 47.6676 52.878C47.4076 52.6353 47.0046 52.514 46.4586 52.514C46.0859 52.514 45.7176 52.5747 45.3536 52.696C44.9983 52.8087 44.6949 52.9647 44.4436 53.164L43.7156 51.747C44.0969 51.4783 44.5563 51.2703 45.0936 51.123C45.6309 50.9757 46.1769 50.902 46.7316 50.902C47.7976 50.902 48.6253 51.1533 49.2146 51.656C49.8039 52.1587 50.0986 52.943 50.0986 54.009V58H48.2006ZM46.0686 58.104C45.5226 58.104 45.0546 58.013 44.6646 57.831C44.2746 57.6403 43.9756 57.3847 43.7676 57.064C43.5596 56.7433 43.4556 56.3837 43.4556 55.985C43.4556 55.569 43.5553 55.205 43.7546 54.893C43.9626 54.581 44.2876 54.3383 44.7296 54.165C45.1716 53.983 45.7479 53.892 46.4586 53.892H48.3176V55.075H46.6796C46.2029 55.075 45.8736 55.153 45.6916 55.309C45.5183 55.465 45.4316 55.66 45.4316 55.894C45.4316 56.154 45.5313 56.362 45.7306 56.518C45.9386 56.6653 46.2203 56.739 46.5756 56.739C46.9136 56.739 47.2169 56.661 47.4856 56.505C47.7543 56.3403 47.9493 56.102 48.0706 55.79L48.3826 56.726C48.2353 57.1767 47.9666 57.519 47.5766 57.753C47.1866 57.987 46.6839 58.104 46.0686 58.104ZM52.181 58V50.85C52.181 50.0613 52.415 49.433 52.883 48.965C53.351 48.4883 54.0184 48.25 54.885 48.25C55.1797 48.25 55.4614 48.2803 55.73 48.341C56.0074 48.4017 56.2414 48.497 56.432 48.627L55.899 50.096C55.7864 50.018 55.6607 49.9573 55.522 49.914C55.3834 49.8707 55.236 49.849 55.08 49.849C54.7854 49.849 54.5557 49.9357 54.391 50.109C54.235 50.2737 54.157 50.525 54.157 50.863V51.513L54.209 52.384V58H52.181ZM51.102 52.722V51.162H55.951V52.722H51.102ZM57.2084 58V50.85C57.2084 50.0613 57.4424 49.433 57.9104 48.965C58.3784 48.4883 59.0457 48.25 59.9124 48.25C60.2071 48.25 60.4887 48.2803 60.7574 48.341C61.0347 48.4017 61.2687 48.497 61.4594 48.627L60.9264 50.096C60.8137 50.018 60.6881 49.9573 60.5494 49.914C60.4107 49.8707 60.2634 49.849 60.1074 49.849C59.8127 49.849 59.5831 49.9357 59.4184 50.109C59.2624 50.2737 59.1844 50.525 59.1844 50.863V51.513L59.2364 52.384V58H57.2084ZM56.1294 52.722V51.162H60.9784V52.722H56.1294ZM62.1224 58V51.006H64.1504V58H62.1224ZM63.1364 50.031C62.7637 50.031 62.4604 49.9227 62.2264 49.706C61.9924 49.4893 61.8754 49.2207 61.8754 48.9C61.8754 48.5793 61.9924 48.3107 62.2264 48.094C62.4604 47.8773 62.7637 47.769 63.1364 47.769C63.5091 47.769 63.8124 47.873 64.0464 48.081C64.2804 48.2803 64.3974 48.5403 64.3974 48.861C64.3974 49.199 64.2804 49.4807 64.0464 49.706C63.8211 49.9227 63.5177 50.031 63.1364 50.031ZM69.4058 58.104C68.6518 58.104 67.9802 57.9523 67.3908 57.649C66.8015 57.337 66.3378 56.908 65.9998 56.362C65.6705 55.816 65.5058 55.1963 65.5058 54.503C65.5058 53.801 65.6705 53.1813 65.9998 52.644C66.3378 52.098 66.8015 51.6733 67.3908 51.37C67.9802 51.058 68.6518 50.902 69.4058 50.902C70.1425 50.902 70.7838 51.058 71.3298 51.37C71.8758 51.6733 72.2788 52.111 72.5388 52.683L70.9658 53.528C70.7838 53.1987 70.5542 52.956 70.2768 52.8C70.0082 52.644 69.7135 52.566 69.3928 52.566C69.0462 52.566 68.7342 52.644 68.4568 52.8C68.1795 52.956 67.9585 53.177 67.7938 53.463C67.6378 53.749 67.5598 54.0957 67.5598 54.503C67.5598 54.9103 67.6378 55.257 67.7938 55.543C67.9585 55.829 68.1795 56.05 68.4568 56.206C68.7342 56.362 69.0462 56.44 69.3928 56.44C69.7135 56.44 70.0082 56.3663 70.2768 56.219C70.5542 56.063 70.7838 55.816 70.9658 55.478L72.5388 56.336C72.2788 56.8993 71.8758 57.337 71.3298 57.649C70.7838 57.9523 70.1425 58.104 69.4058 58.104ZM77.3881 58V48.354H79.4161V58H77.3881ZM81.2983 58V51.006H83.3263V58H81.2983ZM82.3123 50.031C81.9396 50.031 81.6363 49.9227 81.4023 49.706C81.1683 49.4893 81.0513 49.2207 81.0513 48.9C81.0513 48.5793 81.1683 48.3107 81.4023 48.094C81.6363 47.8773 81.9396 47.769 82.3123 47.769C82.685 47.769 82.9883 47.873 83.2223 48.081C83.4563 48.2803 83.5733 48.5403 83.5733 48.861C83.5733 49.199 83.4563 49.4807 83.2223 49.706C82.997 49.9227 82.6936 50.031 82.3123 50.031ZM88.4975 60.626C87.8388 60.626 87.2018 60.5437 86.5865 60.379C85.9798 60.223 85.4728 59.9847 85.0655 59.664L85.8715 58.208C86.1661 58.4507 86.5388 58.6413 86.9895 58.78C87.4488 58.9273 87.8995 59.001 88.3415 59.001C89.0608 59.001 89.5808 58.8407 89.9015 58.52C90.2308 58.1993 90.3955 57.7227 90.3955 57.09V56.037L90.5255 54.282L90.4995 52.514V51.006H92.4235V56.83C92.4235 58.13 92.0855 59.0877 91.4095 59.703C90.7335 60.3183 89.7628 60.626 88.4975 60.626ZM88.1855 57.662C87.5355 57.662 86.9461 57.5233 86.4175 57.246C85.8975 56.96 85.4771 56.5657 85.1565 56.063C84.8445 55.5517 84.6885 54.958 84.6885 54.282C84.6885 53.5973 84.8445 53.0037 85.1565 52.501C85.4771 51.9897 85.8975 51.5953 86.4175 51.318C86.9461 51.0407 87.5355 50.902 88.1855 50.902C88.7748 50.902 89.2948 51.0233 89.7455 51.266C90.1961 51.5 90.5471 51.8683 90.7985 52.371C91.0498 52.865 91.1755 53.502 91.1755 54.282C91.1755 55.0533 91.0498 55.6903 90.7985 56.193C90.5471 56.687 90.1961 57.0553 89.7455 57.298C89.2948 57.5407 88.7748 57.662 88.1855 57.662ZM88.5885 55.998C88.9438 55.998 89.2601 55.9287 89.5375 55.79C89.8148 55.6427 90.0315 55.439 90.1875 55.179C90.3435 54.919 90.4215 54.62 90.4215 54.282C90.4215 53.9353 90.3435 53.6363 90.1875 53.385C90.0315 53.125 89.8148 52.9257 89.5375 52.787C89.2601 52.6397 88.9438 52.566 88.5885 52.566C88.2331 52.566 87.9168 52.6397 87.6395 52.787C87.3621 52.9257 87.1411 53.125 86.9765 53.385C86.8205 53.6363 86.7425 53.9353 86.7425 54.282C86.7425 54.62 86.8205 54.919 86.9765 55.179C87.1411 55.439 87.3621 55.6427 87.6395 55.79C87.9168 55.9287 88.2331 55.998 88.5885 55.998ZM98.562 50.902C99.1167 50.902 99.6107 51.0147 100.044 51.24C100.486 51.4567 100.833 51.7947 101.084 52.254C101.335 52.7047 101.461 53.2853 101.461 53.996V58H99.433V54.308C99.433 53.7447 99.3073 53.3287 99.056 53.06C98.8133 52.7913 98.4667 52.657 98.016 52.657C97.6953 52.657 97.405 52.7263 97.145 52.865C96.8937 52.995 96.6943 53.1987 96.547 53.476C96.4083 53.7533 96.339 54.1087 96.339 54.542V58H94.311V48.354H96.339V52.943L95.884 52.358C96.1353 51.89 96.495 51.5303 96.963 51.279C97.431 51.0277 97.964 50.902 98.562 50.902ZM106.159 58.104C105.336 58.104 104.695 57.896 104.235 57.48C103.776 57.0553 103.546 56.427 103.546 55.595V49.459H105.574V55.569C105.574 55.8637 105.652 56.0933 105.808 56.258C105.964 56.414 106.177 56.492 106.445 56.492C106.766 56.492 107.039 56.4053 107.264 56.232L107.81 57.662C107.602 57.8093 107.351 57.922 107.056 58C106.77 58.0693 106.471 58.104 106.159 58.104ZM102.467 52.722V51.162H107.316V52.722H102.467ZM111.302 58.104C110.704 58.104 110.127 58.0347 109.573 57.896C109.027 57.7487 108.593 57.5667 108.273 57.35L108.949 55.894C109.269 56.0933 109.646 56.258 110.08 56.388C110.522 56.5093 110.955 56.57 111.38 56.57C111.848 56.57 112.177 56.5137 112.368 56.401C112.567 56.2883 112.667 56.1323 112.667 55.933C112.667 55.7683 112.589 55.647 112.433 55.569C112.285 55.4823 112.086 55.4173 111.835 55.374C111.583 55.3307 111.306 55.2873 111.003 55.244C110.708 55.2007 110.409 55.1443 110.106 55.075C109.802 54.997 109.525 54.8843 109.274 54.737C109.022 54.5897 108.819 54.3903 108.663 54.139C108.515 53.8877 108.442 53.5627 108.442 53.164C108.442 52.722 108.567 52.332 108.819 51.994C109.079 51.656 109.451 51.3917 109.937 51.201C110.422 51.0017 111.003 50.902 111.679 50.902C112.155 50.902 112.641 50.954 113.135 51.058C113.629 51.162 114.04 51.3137 114.37 51.513L113.694 52.956C113.356 52.7567 113.013 52.6223 112.667 52.553C112.329 52.475 111.999 52.436 111.679 52.436C111.228 52.436 110.899 52.4967 110.691 52.618C110.483 52.7393 110.379 52.8953 110.379 53.086C110.379 53.2593 110.452 53.3893 110.6 53.476C110.756 53.5627 110.959 53.632 111.211 53.684C111.462 53.736 111.735 53.7837 112.03 53.827C112.333 53.8617 112.636 53.918 112.94 53.996C113.243 54.074 113.516 54.1867 113.759 54.334C114.01 54.4727 114.214 54.6677 114.37 54.919C114.526 55.1617 114.604 55.4823 114.604 55.881C114.604 56.3143 114.474 56.7 114.214 57.038C113.954 57.3673 113.577 57.6273 113.083 57.818C112.597 58.0087 112.004 58.104 111.302 58.104ZM115.504 60.002L116.362 56.882L116.648 58.052C116.275 58.052 115.968 57.9437 115.725 57.727C115.491 57.5103 115.374 57.2113 115.374 56.83C115.374 56.4487 115.495 56.1453 115.738 55.92C115.981 55.6947 116.28 55.582 116.635 55.582C116.999 55.582 117.298 55.699 117.532 55.933C117.766 56.1583 117.883 56.4573 117.883 56.83C117.883 56.9427 117.874 57.0553 117.857 57.168C117.84 57.272 117.805 57.402 117.753 57.558C117.71 57.7053 117.636 57.896 117.532 58.13L116.791 60.002H115.504ZM127.229 58V56.635L127.099 56.336V53.892C127.099 53.4587 126.965 53.1207 126.696 52.878C126.436 52.6353 126.033 52.514 125.487 52.514C125.114 52.514 124.746 52.5747 124.382 52.696C124.027 52.8087 123.723 52.9647 123.472 53.164L122.744 51.747C123.125 51.4783 123.585 51.2703 124.122 51.123C124.659 50.9757 125.205 50.902 125.76 50.902C126.826 50.902 127.654 51.1533 128.243 51.656C128.832 52.1587 129.127 52.943 129.127 54.009V58H127.229ZM125.097 58.104C124.551 58.104 124.083 58.013 123.693 57.831C123.303 57.6403 123.004 57.3847 122.796 57.064C122.588 56.7433 122.484 56.3837 122.484 55.985C122.484 55.569 122.584 55.205 122.783 54.893C122.991 54.581 123.316 54.3383 123.758 54.165C124.2 53.983 124.776 53.892 125.487 53.892H127.346V55.075H125.708C125.231 55.075 124.902 55.153 124.72 55.309C124.547 55.465 124.46 55.66 124.46 55.894C124.46 56.154 124.56 56.362 124.759 56.518C124.967 56.6653 125.249 56.739 125.604 56.739C125.942 56.739 126.245 56.661 126.514 56.505C126.783 56.3403 126.978 56.102 127.099 55.79L127.411 56.726C127.264 57.1767 126.995 57.519 126.605 57.753C126.215 57.987 125.712 58.104 125.097 58.104ZM35.187 69.902C35.7417 69.902 36.2357 70.0147 36.669 70.24C37.111 70.4567 37.4577 70.7947 37.709 71.254C37.9603 71.7047 38.086 72.2853 38.086 72.996V77H36.058V73.308C36.058 72.7447 35.9323 72.3287 35.681 72.06C35.4383 71.7913 35.0917 71.657 34.641 71.657C34.3203 71.657 34.03 71.7263 33.77 71.865C33.5187 71.995 33.3193 72.1987 33.172 72.476C33.0333 72.7533 32.964 73.1087 32.964 73.542V77H30.936V67.354H32.964V71.943L32.509 71.358C32.7603 70.89 33.12 70.5303 33.588 70.279C34.056 70.0277 34.589 69.902 35.187 69.902ZM40.6813 79.626C40.3173 79.626 39.9577 79.5697 39.6023 79.457C39.247 79.3443 38.9567 79.1883 38.7313 78.989L39.4723 77.546C39.6283 77.6847 39.806 77.793 40.0053 77.871C40.2133 77.949 40.417 77.988 40.6163 77.988C40.9023 77.988 41.1277 77.9187 41.2923 77.78C41.4657 77.65 41.6217 77.429 41.7603 77.117L42.1243 76.259L42.2803 76.038L44.7893 70.006H46.7393L43.5803 77.429C43.355 77.9923 43.095 78.4343 42.8003 78.755C42.5143 79.0757 42.1937 79.301 41.8383 79.431C41.4917 79.561 41.106 79.626 40.6813 79.626ZM41.8773 77.273L38.7573 70.006H40.8503L43.2683 75.856L41.8773 77.273ZM51.7009 77.104C51.1115 77.104 50.5959 76.974 50.1539 76.714C49.7119 76.454 49.3652 76.0597 49.1139 75.531C48.8712 74.9937 48.7499 74.3177 48.7499 73.503C48.7499 72.6797 48.8669 72.0037 49.1009 71.475C49.3349 70.9463 49.6729 70.552 50.1149 70.292C50.5569 70.032 51.0855 69.902 51.7009 69.902C52.3595 69.902 52.9489 70.0537 53.4689 70.357C53.9975 70.6517 54.4135 71.0677 54.7169 71.605C55.0289 72.1423 55.1849 72.775 55.1849 73.503C55.1849 74.2397 55.0289 74.8767 54.7169 75.414C54.4135 75.9513 53.9975 76.3673 53.4689 76.662C52.9489 76.9567 52.3595 77.104 51.7009 77.104ZM47.5669 79.522V70.006H49.5039V71.436L49.4649 73.516L49.5949 75.583V79.522H47.5669ZM51.3499 75.44C51.6879 75.44 51.9869 75.362 52.2469 75.206C52.5155 75.05 52.7279 74.829 52.8839 74.543C53.0485 74.2483 53.1309 73.9017 53.1309 73.503C53.1309 73.0957 53.0485 72.749 52.8839 72.463C52.7279 72.177 52.5155 71.956 52.2469 71.8C51.9869 71.644 51.6879 71.566 51.3499 71.566C51.0119 71.566 50.7085 71.644 50.4399 71.8C50.1712 71.956 49.9589 72.177 49.8029 72.463C49.6469 72.749 49.5689 73.0957 49.5689 73.503C49.5689 73.9017 49.6469 74.2483 49.8029 74.543C49.9589 74.829 50.1712 75.05 50.4399 75.206C50.7085 75.362 51.0119 75.44 51.3499 75.44ZM60.0134 77.104C59.2161 77.104 58.5141 76.948 57.9074 76.636C57.3094 76.324 56.8458 75.8993 56.5164 75.362C56.1871 74.816 56.0224 74.1963 56.0224 73.503C56.0224 72.801 56.1828 72.1813 56.5034 71.644C56.8328 71.098 57.2791 70.6733 57.8424 70.37C58.4058 70.058 59.0428 69.902 59.7534 69.902C60.4381 69.902 61.0534 70.0493 61.5994 70.344C62.1541 70.63 62.5918 71.046 62.9124 71.592C63.2331 72.1293 63.3934 72.775 63.3934 73.529C63.3934 73.607 63.3891 73.698 63.3804 73.802C63.3718 73.8973 63.3631 73.9883 63.3544 74.075H57.6734V72.892H62.2884L61.5084 73.243C61.5084 72.879 61.4348 72.5627 61.2874 72.294C61.1401 72.0253 60.9364 71.8173 60.6764 71.67C60.4164 71.514 60.1131 71.436 59.7664 71.436C59.4198 71.436 59.1121 71.514 58.8434 71.67C58.5834 71.8173 58.3798 72.0297 58.2324 72.307C58.0851 72.5757 58.0114 72.8963 58.0114 73.269V73.581C58.0114 73.9623 58.0938 74.3003 58.2584 74.595C58.4318 74.881 58.6701 75.102 58.9734 75.258C59.2854 75.4053 59.6494 75.479 60.0654 75.479C60.4381 75.479 60.7631 75.4227 61.0404 75.31C61.3264 75.1973 61.5864 75.0283 61.8204 74.803L62.8994 75.973C62.5788 76.337 62.1758 76.6187 61.6904 76.818C61.2051 77.0087 60.6461 77.104 60.0134 77.104ZM64.7436 77V70.006H66.6806V71.982L66.4076 71.41C66.6156 70.916 66.9493 70.5433 67.4086 70.292C67.868 70.032 68.427 69.902 69.0856 69.902V71.774C68.999 71.7653 68.921 71.761 68.8516 71.761C68.7823 71.7523 68.7086 71.748 68.6306 71.748C68.076 71.748 67.6253 71.9083 67.2786 72.229C66.9406 72.541 66.7716 73.0307 66.7716 73.698V77H64.7436ZM74.4382 77.104C73.8228 77.104 73.2942 76.974 72.8522 76.714C72.4102 76.454 72.0722 76.0597 71.8382 75.531C71.6042 74.9937 71.4872 74.3177 71.4872 73.503C71.4872 72.6797 71.6085 72.0037 71.8512 71.475C72.1025 70.9463 72.4492 70.552 72.8912 70.292C73.3332 70.032 73.8488 69.902 74.4382 69.902C75.0968 69.902 75.6862 70.0493 76.2062 70.344C76.7348 70.6387 77.1508 71.0547 77.4542 71.592C77.7662 72.1293 77.9222 72.7663 77.9222 73.503C77.9222 74.231 77.7662 74.8637 77.4542 75.401C77.1508 75.9383 76.7348 76.3587 76.2062 76.662C75.6862 76.9567 75.0968 77.104 74.4382 77.104ZM70.3042 77V67.354H72.3322V71.423L72.2022 73.49L72.2412 75.57V77H70.3042ZM74.0872 75.44C74.4252 75.44 74.7242 75.362 74.9842 75.206C75.2528 75.05 75.4652 74.829 75.6212 74.543C75.7858 74.2483 75.8682 73.9017 75.8682 73.503C75.8682 73.0957 75.7858 72.749 75.6212 72.463C75.4652 72.177 75.2528 71.956 74.9842 71.8C74.7242 71.644 74.4252 71.566 74.0872 71.566C73.7492 71.566 73.4458 71.644 73.1772 71.8C72.9085 71.956 72.6962 72.177 72.5402 72.463C72.3842 72.749 72.3062 73.0957 72.3062 73.503C72.3062 73.9017 72.3842 74.2483 72.5402 74.543C72.6962 74.829 72.9085 75.05 73.1772 75.206C73.4458 75.362 73.7492 75.44 74.0872 75.44ZM82.6078 77.104C81.8624 77.104 81.1994 76.948 80.6188 76.636C80.0468 76.324 79.5918 75.8993 79.2538 75.362C78.9244 74.816 78.7598 74.1963 78.7598 73.503C78.7598 72.801 78.9244 72.1813 79.2538 71.644C79.5918 71.098 80.0468 70.6733 80.6188 70.37C81.1994 70.058 81.8624 69.902 82.6078 69.902C83.3444 69.902 84.0031 70.058 84.5838 70.37C85.1644 70.6733 85.6194 71.0937 85.9488 71.631C86.2781 72.1683 86.4428 72.7923 86.4428 73.503C86.4428 74.1963 86.2781 74.816 85.9488 75.362C85.6194 75.8993 85.1644 76.324 84.5838 76.636C84.0031 76.948 83.3444 77.104 82.6078 77.104ZM82.6078 75.44C82.9458 75.44 83.2491 75.362 83.5178 75.206C83.7864 75.05 83.9988 74.829 84.1548 74.543C84.3108 74.2483 84.3888 73.9017 84.3888 73.503C84.3888 73.0957 84.3108 72.749 84.1548 72.463C83.9988 72.177 83.7864 71.956 83.5178 71.8C83.2491 71.644 82.9458 71.566 82.6078 71.566C82.2698 71.566 81.9664 71.644 81.6978 71.8C81.4291 71.956 81.2124 72.177 81.0478 72.463C80.8918 72.749 80.8138 73.0957 80.8138 73.503C80.8138 73.9017 80.8918 74.2483 81.0478 74.543C81.2124 74.829 81.4291 75.05 81.6978 75.206C81.9664 75.362 82.2698 75.44 82.6078 75.44ZM87.7983 77V67.354H89.8263V77H87.7983ZM91.7085 77V70.006H93.7365V77H91.7085ZM92.7225 69.031C92.3498 69.031 92.0465 68.9227 91.8125 68.706C91.5785 68.4893 91.4615 68.2207 91.4615 67.9C91.4615 67.5793 91.5785 67.3107 91.8125 67.094C92.0465 66.8773 92.3498 66.769 92.7225 66.769C93.0951 66.769 93.3985 66.873 93.6325 67.081C93.8665 67.2803 93.9835 67.5403 93.9835 67.861C93.9835 68.199 93.8665 68.4807 93.6325 68.706C93.4071 68.9227 93.1038 69.031 92.7225 69.031ZM98.9986 77.104C98.2446 77.104 97.573 76.9523 96.9836 76.649C96.3943 76.337 95.9306 75.908 95.5926 75.362C95.2633 74.816 95.0986 74.1963 95.0986 73.503C95.0986 72.801 95.2633 72.1813 95.5926 71.644C95.9306 71.098 96.3943 70.6733 96.9836 70.37C97.573 70.058 98.2446 69.902 98.9986 69.902C99.7353 69.902 100.377 70.058 100.923 70.37C101.469 70.6733 101.872 71.111 102.132 71.683L100.559 72.528C100.377 72.1987 100.147 71.956 99.8696 71.8C99.601 71.644 99.3063 71.566 98.9856 71.566C98.639 71.566 98.327 71.644 98.0496 71.8C97.7723 71.956 97.5513 72.177 97.3866 72.463C97.2306 72.749 97.1526 73.0957 97.1526 73.503C97.1526 73.9103 97.2306 74.257 97.3866 74.543C97.5513 74.829 97.7723 75.05 98.0496 75.206C98.327 75.362 98.639 75.44 98.9856 75.44C99.3063 75.44 99.601 75.3663 99.8696 75.219C100.147 75.063 100.377 74.816 100.559 74.478L102.132 75.336C101.872 75.8993 101.469 76.337 100.923 76.649C100.377 76.9523 99.7353 77.104 98.9986 77.104ZM109.334 77.104C108.736 77.104 108.16 77.0347 107.605 76.896C107.059 76.7487 106.626 76.5667 106.305 76.35L106.981 74.894C107.302 75.0933 107.679 75.258 108.112 75.388C108.554 75.5093 108.987 75.57 109.412 75.57C109.88 75.57 110.209 75.5137 110.4 75.401C110.599 75.2883 110.699 75.1323 110.699 74.933C110.699 74.7683 110.621 74.647 110.465 74.569C110.318 74.4823 110.118 74.4173 109.867 74.374C109.616 74.3307 109.338 74.2873 109.035 74.244C108.74 74.2007 108.441 74.1443 108.138 74.075C107.835 73.997 107.557 73.8843 107.306 73.737C107.055 73.5897 106.851 73.3903 106.695 73.139C106.548 72.8877 106.474 72.5627 106.474 72.164C106.474 71.722 106.6 71.332 106.851 70.994C107.111 70.656 107.484 70.3917 107.969 70.201C108.454 70.0017 109.035 69.902 109.711 69.902C110.188 69.902 110.673 69.954 111.167 70.058C111.661 70.162 112.073 70.3137 112.402 70.513L111.726 71.956C111.388 71.7567 111.046 71.6223 110.699 71.553C110.361 71.475 110.032 71.436 109.711 71.436C109.26 71.436 108.931 71.4967 108.723 71.618C108.515 71.7393 108.411 71.8953 108.411 72.086C108.411 72.2593 108.485 72.3893 108.632 72.476C108.788 72.5627 108.992 72.632 109.243 72.684C109.494 72.736 109.767 72.7837 110.062 72.827C110.365 72.8617 110.669 72.918 110.972 72.996C111.275 73.074 111.548 73.1867 111.791 73.334C112.042 73.4727 112.246 73.6677 112.402 73.919C112.558 74.1617 112.636 74.4823 112.636 74.881C112.636 75.3143 112.506 75.7 112.246 76.038C111.986 76.3673 111.609 76.6273 111.115 76.818C110.63 77.0087 110.036 77.104 109.334 77.104ZM118.138 69.902C118.693 69.902 119.187 70.0147 119.62 70.24C120.062 70.4567 120.409 70.7947 120.66 71.254C120.912 71.7047 121.037 72.2853 121.037 72.996V77H119.009V73.308C119.009 72.7447 118.884 72.3287 118.632 72.06C118.39 71.7913 118.043 71.657 117.592 71.657C117.272 71.657 116.981 71.7263 116.721 71.865C116.47 71.995 116.271 72.1987 116.123 72.476C115.985 72.7533 115.915 73.1087 115.915 73.542V77H113.887V67.354H115.915V71.943L115.46 71.358C115.712 70.89 116.071 70.5303 116.539 70.279C117.007 70.0277 117.54 69.902 118.138 69.902ZM126.254 77.104C125.509 77.104 124.846 76.948 124.265 76.636C123.693 76.324 123.238 75.8993 122.9 75.362C122.571 74.816 122.406 74.1963 122.406 73.503C122.406 72.801 122.571 72.1813 122.9 71.644C123.238 71.098 123.693 70.6733 124.265 70.37C124.846 70.058 125.509 69.902 126.254 69.902C126.991 69.902 127.65 70.058 128.23 70.37C128.811 70.6733 129.266 71.0937 129.595 71.631C129.925 72.1683 130.089 72.7923 130.089 73.503C130.089 74.1963 129.925 74.816 129.595 75.362C129.266 75.8993 128.811 76.324 128.23 76.636C127.65 76.948 126.991 77.104 126.254 77.104ZM126.254 75.44C126.592 75.44 126.896 75.362 127.164 75.206C127.433 75.05 127.645 74.829 127.801 74.543C127.957 74.2483 128.035 73.9017 128.035 73.503C128.035 73.0957 127.957 72.749 127.801 72.463C127.645 72.177 127.433 71.956 127.164 71.8C126.896 71.644 126.592 71.566 126.254 71.566C125.916 71.566 125.613 71.644 125.344 71.8C125.076 71.956 124.859 72.177 124.694 72.463C124.538 72.749 124.46 73.0957 124.46 73.503C124.46 73.9017 124.538 74.2483 124.694 74.543C124.859 74.829 125.076 75.05 125.344 75.206C125.613 75.362 125.916 75.44 126.254 75.44ZM132.853 77L130.331 70.006H132.242L134.335 76.025H133.425L135.609 70.006H137.325L139.444 76.025H138.534L140.692 70.006H142.486L139.951 77H137.988L136.129 71.839H136.727L134.803 77H132.853ZM150.439 77.104C149.693 77.104 149.03 76.948 148.45 76.636C147.878 76.324 147.423 75.8993 147.085 75.362C146.755 74.816 146.591 74.1963 146.591 73.503C146.591 72.801 146.755 72.1813 147.085 71.644C147.423 71.098 147.878 70.6733 148.45 70.37C149.03 70.058 149.693 69.902 150.439 69.902C151.175 69.902 151.834 70.058 152.415 70.37C152.995 70.6733 153.45 71.0937 153.78 71.631C154.109 72.1683 154.274 72.7923 154.274 73.503C154.274 74.1963 154.109 74.816 153.78 75.362C153.45 75.8993 152.995 76.324 152.415 76.636C151.834 76.948 151.175 77.104 150.439 77.104ZM150.439 75.44C150.777 75.44 151.08 75.362 151.349 75.206C151.617 75.05 151.83 74.829 151.986 74.543C152.142 74.2483 152.22 73.9017 152.22 73.503C152.22 73.0957 152.142 72.749 151.986 72.463C151.83 72.177 151.617 71.956 151.349 71.8C151.08 71.644 150.777 71.566 150.439 71.566C150.101 71.566 149.797 71.644 149.529 71.8C149.26 71.956 149.043 72.177 148.879 72.463C148.723 72.749 148.645 73.0957 148.645 73.503C148.645 73.9017 148.723 74.2483 148.879 74.543C149.043 74.829 149.26 75.05 149.529 75.206C149.797 75.362 150.101 75.44 150.439 75.44ZM155.876 77V69.85C155.876 69.0613 156.11 68.433 156.578 67.965C157.046 67.4883 157.714 67.25 158.58 67.25C158.875 67.25 159.157 67.2803 159.425 67.341C159.703 67.4017 159.937 67.497 160.127 67.627L159.594 69.096C159.482 69.018 159.356 68.9573 159.217 68.914C159.079 68.8707 158.931 68.849 158.775 68.849C158.481 68.849 158.251 68.9357 158.086 69.109C157.93 69.2737 157.852 69.525 157.852 69.863V70.513L157.904 71.384V77H155.876ZM154.797 71.722V70.162H159.646V71.722H154.797ZM33.796 96.104C32.9727 96.104 32.3313 95.896 31.872 95.48C31.4127 95.0553 31.183 94.427 31.183 93.595V87.459H33.211V93.569C33.211 93.8637 33.289 94.0933 33.445 94.258C33.601 94.414 33.8133 94.492 34.082 94.492C34.4027 94.492 34.6757 94.4053 34.901 94.232L35.447 95.662C35.239 95.8093 34.9877 95.922 34.693 96C34.407 96.0693 34.108 96.104 33.796 96.104ZM30.104 90.722V89.162H34.953V90.722H30.104ZM36.5854 96V89.006H38.5224V90.982L38.2494 90.41C38.4574 89.916 38.7911 89.5433 39.2504 89.292C39.7097 89.032 40.2687 88.902 40.9274 88.902V90.774C40.8407 90.7653 40.7627 90.761 40.6934 90.761C40.6241 90.7523 40.5504 90.748 40.4724 90.748C39.9177 90.748 39.4671 90.9083 39.1204 91.229C38.7824 91.541 38.6134 92.0307 38.6134 92.698V96H36.5854ZM45.9662 96V94.635L45.8362 94.336V91.892C45.8362 91.4587 45.7019 91.1207 45.4332 90.878C45.1732 90.6353 44.7702 90.514 44.2242 90.514C43.8516 90.514 43.4832 90.5747 43.1192 90.696C42.7639 90.8087 42.4606 90.9647 42.2092 91.164L41.4812 89.747C41.8626 89.4783 42.3219 89.2703 42.8592 89.123C43.3966 88.9757 43.9426 88.902 44.4972 88.902C45.5632 88.902 46.3909 89.1533 46.9802 89.656C47.5696 90.1587 47.8642 90.943 47.8642 92.009V96H45.9662ZM43.8342 96.104C43.2882 96.104 42.8202 96.013 42.4302 95.831C42.0402 95.6403 41.7412 95.3847 41.5332 95.064C41.3252 94.7433 41.2212 94.3837 41.2212 93.985C41.2212 93.569 41.3209 93.205 41.5202 92.893C41.7282 92.581 42.0532 92.3383 42.4952 92.165C42.9372 91.983 43.5136 91.892 44.2242 91.892H46.0832V93.075H44.4452C43.9686 93.075 43.6392 93.153 43.4572 93.309C43.2839 93.465 43.1972 93.66 43.1972 93.894C43.1972 94.154 43.2969 94.362 43.4962 94.518C43.7042 94.6653 43.9859 94.739 44.3412 94.739C44.6792 94.739 44.9826 94.661 45.2512 94.505C45.5199 94.3403 45.7149 94.102 45.8362 93.79L46.1482 94.726C46.0009 95.1767 45.7322 95.519 45.3422 95.753C44.9522 95.987 44.4496 96.104 43.8342 96.104ZM49.9467 96V88.85C49.9467 88.0613 50.1807 87.433 50.6487 86.965C51.1167 86.4883 51.784 86.25 52.6507 86.25C52.9453 86.25 53.227 86.2803 53.4957 86.341C53.773 86.4017 54.007 86.497 54.1977 86.627L53.6647 88.096C53.552 88.018 53.4263 87.9573 53.2877 87.914C53.149 87.8707 53.0017 87.849 52.8457 87.849C52.551 87.849 52.3213 87.9357 52.1567 88.109C52.0007 88.2737 51.9227 88.525 51.9227 88.863V89.513L51.9747 90.384V96H49.9467ZM48.8677 90.722V89.162H53.7167V90.722H48.8677ZM54.974 96V88.85C54.974 88.0613 55.208 87.433 55.676 86.965C56.144 86.4883 56.8113 86.25 57.678 86.25C57.9727 86.25 58.2543 86.2803 58.523 86.341C58.8003 86.4017 59.0343 86.497 59.225 86.627L58.692 88.096C58.5793 88.018 58.4537 87.9573 58.315 87.914C58.1763 87.8707 58.029 87.849 57.873 87.849C57.5783 87.849 57.3487 87.9357 57.184 88.109C57.028 88.2737 56.95 88.525 56.95 88.863V89.513L57.002 90.384V96H54.974ZM53.895 90.722V89.162H58.744V90.722H53.895ZM59.888 96V89.006H61.916V96H59.888ZM60.902 88.031C60.5293 88.031 60.226 87.9227 59.992 87.706C59.758 87.4893 59.641 87.2207 59.641 86.9C59.641 86.5793 59.758 86.3107 59.992 86.094C60.226 85.8773 60.5293 85.769 60.902 85.769C61.2747 85.769 61.578 85.873 61.812 86.081C62.046 86.2803 62.163 86.5403 62.163 86.861C62.163 87.199 62.046 87.4807 61.812 87.706C61.5867 87.9227 61.2833 88.031 60.902 88.031ZM67.1715 96.104C66.4175 96.104 65.7458 95.9523 65.1565 95.649C64.5671 95.337 64.1035 94.908 63.7655 94.362C63.4361 93.816 63.2715 93.1963 63.2715 92.503C63.2715 91.801 63.4361 91.1813 63.7655 90.644C64.1035 90.098 64.5671 89.6733 65.1565 89.37C65.7458 89.058 66.4175 88.902 67.1715 88.902C67.9081 88.902 68.5495 89.058 69.0955 89.37C69.6415 89.6733 70.0445 90.111 70.3045 90.683L68.7315 91.528C68.5495 91.1987 68.3198 90.956 68.0425 90.8C67.7738 90.644 67.4791 90.566 67.1585 90.566C66.8118 90.566 66.4998 90.644 66.2225 90.8C65.9451 90.956 65.7241 91.177 65.5595 91.463C65.4035 91.749 65.3255 92.0957 65.3255 92.503C65.3255 92.9103 65.4035 93.257 65.5595 93.543C65.7241 93.829 65.9451 94.05 66.2225 94.206C66.4998 94.362 66.8118 94.44 67.1585 94.44C67.4791 94.44 67.7738 94.3663 68.0425 94.219C68.3198 94.063 68.5495 93.816 68.7315 93.478L70.3045 94.336C70.0445 94.8993 69.6415 95.337 69.0955 95.649C68.5495 95.9523 67.9081 96.104 67.1715 96.104ZM75.1538 96V86.354H77.1818V96H75.1538ZM79.0639 96V89.006H81.0919V96H79.0639ZM80.0779 88.031C79.7053 88.031 79.4019 87.9227 79.1679 87.706C78.9339 87.4893 78.8169 87.2207 78.8169 86.9C78.8169 86.5793 78.9339 86.3107 79.1679 86.094C79.4019 85.8773 79.7053 85.769 80.0779 85.769C80.4506 85.769 80.7539 85.873 80.9879 86.081C81.2219 86.2803 81.3389 86.5403 81.3389 86.861C81.3389 87.199 81.2219 87.4807 80.9879 87.706C80.7626 87.9227 80.4593 88.031 80.0779 88.031ZM86.2631 98.626C85.6044 98.626 84.9674 98.5437 84.3521 98.379C83.7454 98.223 83.2384 97.9847 82.8311 97.664L83.6371 96.208C83.9318 96.4507 84.3044 96.6413 84.7551 96.78C85.2144 96.9273 85.6651 97.001 86.1071 97.001C86.8264 97.001 87.3464 96.8407 87.6671 96.52C87.9964 96.1993 88.1611 95.7227 88.1611 95.09V94.037L88.2911 92.282L88.2651 90.514V89.006H90.1891V94.83C90.1891 96.13 89.8511 97.0877 89.1751 97.703C88.4991 98.3183 87.5284 98.626 86.2631 98.626ZM85.9511 95.662C85.3011 95.662 84.7118 95.5233 84.1831 95.246C83.6631 94.96 83.2428 94.5657 82.9221 94.063C82.6101 93.5517 82.4541 92.958 82.4541 92.282C82.4541 91.5973 82.6101 91.0037 82.9221 90.501C83.2428 89.9897 83.6631 89.5953 84.1831 89.318C84.7118 89.0407 85.3011 88.902 85.9511 88.902C86.5404 88.902 87.0604 89.0233 87.5111 89.266C87.9618 89.5 88.3128 89.8683 88.5641 90.371C88.8154 90.865 88.9411 91.502 88.9411 92.282C88.9411 93.0533 88.8154 93.6903 88.5641 94.193C88.3128 94.687 87.9618 95.0553 87.5111 95.298C87.0604 95.5407 86.5404 95.662 85.9511 95.662ZM86.3541 93.998C86.7094 93.998 87.0258 93.9287 87.3031 93.79C87.5804 93.6427 87.7971 93.439 87.9531 93.179C88.1091 92.919 88.1871 92.62 88.1871 92.282C88.1871 91.9353 88.1091 91.6363 87.9531 91.385C87.7971 91.125 87.5804 90.9257 87.3031 90.787C87.0258 90.6397 86.7094 90.566 86.3541 90.566C85.9988 90.566 85.6824 90.6397 85.4051 90.787C85.1278 90.9257 84.9068 91.125 84.7421 91.385C84.5861 91.6363 84.5081 91.9353 84.5081 92.282C84.5081 92.62 84.5861 92.919 84.7421 93.179C84.9068 93.439 85.1278 93.6427 85.4051 93.79C85.6824 93.9287 85.9988 93.998 86.3541 93.998ZM96.3276 88.902C96.8823 88.902 97.3763 89.0147 97.8096 89.24C98.2516 89.4567 98.5983 89.7947 98.8496 90.254C99.101 90.7047 99.2266 91.2853 99.2266 91.996V96H97.1986V92.308C97.1986 91.7447 97.073 91.3287 96.8216 91.06C96.579 90.7913 96.2323 90.657 95.7816 90.657C95.461 90.657 95.1706 90.7263 94.9106 90.865C94.6593 90.995 94.46 91.1987 94.3126 91.476C94.174 91.7533 94.1046 92.1087 94.1046 92.542V96H92.0766V86.354H94.1046V90.943L93.6496 90.358C93.901 89.89 94.2606 89.5303 94.7286 89.279C95.1966 89.0277 95.7296 88.902 96.3276 88.902ZM103.925 96.104C103.102 96.104 102.46 95.896 102.001 95.48C101.542 95.0553 101.312 94.427 101.312 93.595V87.459H103.34V93.569C103.34 93.8637 103.418 94.0933 103.574 94.258C103.73 94.414 103.942 94.492 104.211 94.492C104.532 94.492 104.805 94.4053 105.03 94.232L105.576 95.662C105.368 95.8093 105.117 95.922 104.822 96C104.536 96.0693 104.237 96.104 103.925 96.104ZM100.233 90.722V89.162H105.082V90.722H100.233ZM106.363 90.67L107.221 87.55L107.507 88.733C107.135 88.733 106.827 88.6247 106.584 88.408C106.35 88.1827 106.233 87.8793 106.233 87.498C106.233 87.1253 106.355 86.8263 106.597 86.601C106.84 86.367 107.139 86.25 107.494 86.25C107.858 86.25 108.157 86.367 108.391 86.601C108.625 86.8263 108.742 87.1253 108.742 87.498C108.742 87.6107 108.734 87.7233 108.716 87.836C108.708 87.94 108.677 88.0657 108.625 88.213C108.582 88.3603 108.508 88.5553 108.404 88.798L107.65 90.67H106.363ZM112.241 96.104C111.643 96.104 111.067 96.0347 110.512 95.896C109.966 95.7487 109.533 95.5667 109.212 95.35L109.888 93.894C110.209 94.0933 110.586 94.258 111.019 94.388C111.461 94.5093 111.894 94.57 112.319 94.57C112.787 94.57 113.116 94.5137 113.307 94.401C113.506 94.2883 113.606 94.1323 113.606 93.933C113.606 93.7683 113.528 93.647 113.372 93.569C113.225 93.4823 113.025 93.4173 112.774 93.374C112.523 93.3307 112.245 93.2873 111.942 93.244C111.647 93.2007 111.348 93.1443 111.045 93.075C110.742 92.997 110.464 92.8843 110.213 92.737C109.962 92.5897 109.758 92.3903 109.602 92.139C109.455 91.8877 109.381 91.5627 109.381 91.164C109.381 90.722 109.507 90.332 109.758 89.994C110.018 89.656 110.391 89.3917 110.876 89.201C111.361 89.0017 111.942 88.902 112.618 88.902C113.095 88.902 113.58 88.954 114.074 89.058C114.568 89.162 114.98 89.3137 115.309 89.513L114.633 90.956C114.295 90.7567 113.953 90.6223 113.606 90.553C113.268 90.475 112.939 90.436 112.618 90.436C112.167 90.436 111.838 90.4967 111.63 90.618C111.422 90.7393 111.318 90.8953 111.318 91.086C111.318 91.2593 111.392 91.3893 111.539 91.476C111.695 91.5627 111.899 91.632 112.15 91.684C112.401 91.736 112.674 91.7837 112.969 91.827C113.272 91.8617 113.576 91.918 113.879 91.996C114.182 92.074 114.455 92.1867 114.698 92.334C114.949 92.4727 115.153 92.6677 115.309 92.919C115.465 93.1617 115.543 93.4823 115.543 93.881C115.543 94.3143 115.413 94.7 115.153 95.038C114.893 95.3673 114.516 95.6273 114.022 95.818C113.537 96.0087 112.943 96.104 112.241 96.104ZM124.61 96.104C123.995 96.104 123.466 95.974 123.024 95.714C122.582 95.454 122.244 95.0597 122.01 94.531C121.776 93.9937 121.659 93.3177 121.659 92.503C121.659 91.6797 121.78 91.0037 122.023 90.475C122.274 89.9463 122.621 89.552 123.063 89.292C123.505 89.032 124.021 88.902 124.61 88.902C125.269 88.902 125.858 89.0493 126.378 89.344C126.907 89.6387 127.323 90.0547 127.626 90.592C127.938 91.1293 128.094 91.7663 128.094 92.503C128.094 93.231 127.938 93.8637 127.626 94.401C127.323 94.9383 126.907 95.3587 126.378 95.662C125.858 95.9567 125.269 96.104 124.61 96.104ZM120.476 96V86.354H122.504V90.423L122.374 92.49L122.413 94.57V96H120.476ZM124.259 94.44C124.597 94.44 124.896 94.362 125.156 94.206C125.425 94.05 125.637 93.829 125.793 93.543C125.958 93.2483 126.04 92.9017 126.04 92.503C126.04 92.0957 125.958 91.749 125.793 91.463C125.637 91.177 125.425 90.956 125.156 90.8C124.896 90.644 124.597 90.566 124.259 90.566C123.921 90.566 123.618 90.644 123.349 90.8C123.08 90.956 122.868 91.177 122.712 91.463C122.556 91.749 122.478 92.0957 122.478 92.503C122.478 92.9017 122.556 93.2483 122.712 93.543C122.868 93.829 123.08 94.05 123.349 94.206C123.618 94.362 123.921 94.44 124.259 94.44ZM132.923 96.104C132.125 96.104 131.423 95.948 130.817 95.636C130.219 95.324 129.755 94.8993 129.426 94.362C129.096 93.816 128.932 93.1963 128.932 92.503C128.932 91.801 129.092 91.1813 129.413 90.644C129.742 90.098 130.188 89.6733 130.752 89.37C131.315 89.058 131.952 88.902 132.663 88.902C133.347 88.902 133.963 89.0493 134.509 89.344C135.063 89.63 135.501 90.046 135.822 90.592C136.142 91.1293 136.303 91.775 136.303 92.529C136.303 92.607 136.298 92.698 136.29 92.802C136.281 92.8973 136.272 92.9883 136.264 93.075H130.583V91.892H135.198L134.418 92.243C134.418 91.879 134.344 91.5627 134.197 91.294C134.049 91.0253 133.846 90.8173 133.586 90.67C133.326 90.514 133.022 90.436 132.676 90.436C132.329 90.436 132.021 90.514 131.753 90.67C131.493 90.8173 131.289 91.0297 131.142 91.307C130.994 91.5757 130.921 91.8963 130.921 92.269V92.581C130.921 92.9623 131.003 93.3003 131.168 93.595C131.341 93.881 131.579 94.102 131.883 94.258C132.195 94.4053 132.559 94.479 132.975 94.479C133.347 94.479 133.672 94.4227 133.95 94.31C134.236 94.1973 134.496 94.0283 134.73 93.803L135.809 94.973C135.488 95.337 135.085 95.6187 134.6 95.818C134.114 96.0087 133.555 96.104 132.923 96.104ZM141.904 88.902C142.458 88.902 142.952 89.0147 143.386 89.24C143.828 89.4567 144.174 89.7947 144.426 90.254C144.677 90.7047 144.803 91.2853 144.803 91.996V96H142.775V92.308C142.775 91.7447 142.649 91.3287 142.398 91.06C142.155 90.7913 141.808 90.657 141.358 90.657C141.037 90.657 140.747 90.7263 140.487 90.865C140.235 90.995 140.036 91.1987 139.889 91.476C139.75 91.7533 139.681 92.1087 139.681 92.542V96H137.653V86.354H139.681V90.943L139.226 90.358C139.477 89.89 139.837 89.5303 140.305 89.279C140.773 89.0277 141.306 88.902 141.904 88.902ZM150.931 96V94.635L150.801 94.336V91.892C150.801 91.4587 150.667 91.1207 150.398 90.878C150.138 90.6353 149.735 90.514 149.189 90.514C148.816 90.514 148.448 90.5747 148.084 90.696C147.729 90.8087 147.425 90.9647 147.174 91.164L146.446 89.747C146.827 89.4783 147.287 89.2703 147.824 89.123C148.361 88.9757 148.907 88.902 149.462 88.902C150.528 88.902 151.356 89.1533 151.945 89.656C152.534 90.1587 152.829 90.943 152.829 92.009V96H150.931ZM148.799 96.104C148.253 96.104 147.785 96.013 147.395 95.831C147.005 95.6403 146.706 95.3847 146.498 95.064C146.29 94.7433 146.186 94.3837 146.186 93.985C146.186 93.569 146.286 93.205 146.485 92.893C146.693 92.581 147.018 92.3383 147.46 92.165C147.902 91.983 148.478 91.892 149.189 91.892H151.048V93.075H149.41C148.933 93.075 148.604 93.153 148.422 93.309C148.249 93.465 148.162 93.66 148.162 93.894C148.162 94.154 148.262 94.362 148.461 94.518C148.669 94.6653 148.951 94.739 149.306 94.739C149.644 94.739 149.947 94.661 150.216 94.505C150.485 94.3403 150.68 94.102 150.801 93.79L151.113 94.726C150.966 95.1767 150.697 95.519 150.307 95.753C149.917 95.987 149.414 96.104 148.799 96.104ZM156.436 96L153.498 89.006H155.591L158.035 95.025H156.995L159.53 89.006H161.48L158.529 96H156.436ZM162.307 96V89.006H164.335V96H162.307ZM163.321 88.031C162.948 88.031 162.645 87.9227 162.411 87.706C162.177 87.4893 162.06 87.2207 162.06 86.9C162.06 86.5793 162.177 86.3107 162.411 86.094C162.645 85.8773 162.948 85.769 163.321 85.769C163.694 85.769 163.997 85.873 164.231 86.081C164.465 86.2803 164.582 86.5403 164.582 86.861C164.582 87.199 164.465 87.4807 164.231 87.706C164.006 87.9227 163.702 88.031 163.321 88.031ZM169.545 96.104C168.8 96.104 168.137 95.948 167.556 95.636C166.984 95.324 166.529 94.8993 166.191 94.362C165.862 93.816 165.697 93.1963 165.697 92.503C165.697 91.801 165.862 91.1813 166.191 90.644C166.529 90.098 166.984 89.6733 167.556 89.37C168.137 89.058 168.8 88.902 169.545 88.902C170.282 88.902 170.941 89.058 171.521 89.37C172.102 89.6733 172.557 90.0937 172.886 90.631C173.216 91.1683 173.38 91.7923 173.38 92.503C173.38 93.1963 173.216 93.816 172.886 94.362C172.557 94.8993 172.102 95.324 171.521 95.636C170.941 95.948 170.282 96.104 169.545 96.104ZM169.545 94.44C169.883 94.44 170.187 94.362 170.455 94.206C170.724 94.05 170.936 93.829 171.092 93.543C171.248 93.2483 171.326 92.9017 171.326 92.503C171.326 92.0957 171.248 91.749 171.092 91.463C170.936 91.177 170.724 90.956 170.455 90.8C170.187 90.644 169.883 90.566 169.545 90.566C169.207 90.566 168.904 90.644 168.635 90.8C168.367 90.956 168.15 91.177 167.985 91.463C167.829 91.749 167.751 92.0957 167.751 92.503C167.751 92.9017 167.829 93.2483 167.985 93.543C168.15 93.829 168.367 94.05 168.635 94.206C168.904 94.362 169.207 94.44 169.545 94.44ZM174.736 96V89.006H176.673V90.982L176.4 90.41C176.608 89.916 176.941 89.5433 177.401 89.292C177.86 89.032 178.419 88.902 179.078 88.902V90.774C178.991 90.7653 178.913 90.761 178.844 90.761C178.774 90.7523 178.701 90.748 178.623 90.748C178.068 90.748 177.617 90.9083 177.271 91.229C176.933 91.541 176.764 92.0307 176.764 92.698V96H174.736ZM30.936 115V108.006H32.964V115H30.936ZM31.95 107.031C31.5773 107.031 31.274 106.923 31.04 106.706C30.806 106.489 30.689 106.221 30.689 105.9C30.689 105.579 30.806 105.311 31.04 105.094C31.274 104.877 31.5773 104.769 31.95 104.769C32.3227 104.769 32.626 104.873 32.86 105.081C33.094 105.28 33.211 105.54 33.211 105.861C33.211 106.199 33.094 106.481 32.86 106.706C32.6347 106.923 32.3313 107.031 31.95 107.031ZM39.0972 107.902C39.6518 107.902 40.1458 108.015 40.5792 108.24C41.0212 108.457 41.3678 108.795 41.6192 109.254C41.8705 109.705 41.9962 110.285 41.9962 110.996V115H39.9682V111.308C39.9682 110.745 39.8425 110.329 39.5912 110.06C39.3485 109.791 39.0018 109.657 38.5512 109.657C38.2305 109.657 37.9402 109.726 37.6802 109.865C37.4288 109.995 37.2295 110.199 37.0822 110.476C36.9435 110.753 36.8742 111.109 36.8742 111.542V115H34.8462V108.006H36.7832V109.943L36.4192 109.358C36.6705 108.89 37.0302 108.53 37.4982 108.279C37.9662 108.028 38.4992 107.902 39.0972 107.902ZM47.6591 115V105.9H49.7651V113.284H54.3281V115H47.6591ZM59.7026 115V113.635L59.5726 113.336V110.892C59.5726 110.459 59.4382 110.121 59.1696 109.878C58.9096 109.635 58.5066 109.514 57.9606 109.514C57.5879 109.514 57.2196 109.575 56.8556 109.696C56.5002 109.809 56.1969 109.965 55.9456 110.164L55.2176 108.747C55.5989 108.478 56.0582 108.27 56.5956 108.123C57.1329 107.976 57.6789 107.902 58.2336 107.902C59.2996 107.902 60.1272 108.153 60.7166 108.656C61.3059 109.159 61.6006 109.943 61.6006 111.009V115H59.7026ZM57.5706 115.104C57.0246 115.104 56.5566 115.013 56.1666 114.831C55.7766 114.64 55.4776 114.385 55.2696 114.064C55.0616 113.743 54.9576 113.384 54.9576 112.985C54.9576 112.569 55.0572 112.205 55.2566 111.893C55.4646 111.581 55.7896 111.338 56.2316 111.165C56.6736 110.983 57.2499 110.892 57.9606 110.892H59.8196V112.075H58.1816C57.7049 112.075 57.3756 112.153 57.1936 112.309C57.0202 112.465 56.9336 112.66 56.9336 112.894C56.9336 113.154 57.0332 113.362 57.2326 113.518C57.4406 113.665 57.7222 113.739 58.0776 113.739C58.4156 113.739 58.7189 113.661 58.9876 113.505C59.2562 113.34 59.4512 113.102 59.5726 112.79L59.8846 113.726C59.7372 114.177 59.4686 114.519 59.0786 114.753C58.6886 114.987 58.1859 115.104 57.5706 115.104ZM66.7758 117.626C66.1171 117.626 65.4801 117.544 64.8648 117.379C64.2581 117.223 63.7511 116.985 63.3438 116.664L64.1498 115.208C64.4444 115.451 64.8171 115.641 65.2678 115.78C65.7271 115.927 66.1778 116.001 66.6198 116.001C67.3391 116.001 67.8591 115.841 68.1798 115.52C68.5091 115.199 68.6738 114.723 68.6738 114.09V113.037L68.8038 111.282L68.7778 109.514V108.006H70.7018V113.83C70.7018 115.13 70.3638 116.088 69.6878 116.703C69.0118 117.318 68.0411 117.626 66.7758 117.626ZM66.4638 114.662C65.8138 114.662 65.2244 114.523 64.6958 114.246C64.1758 113.96 63.7554 113.566 63.4348 113.063C63.1228 112.552 62.9668 111.958 62.9668 111.282C62.9668 110.597 63.1228 110.004 63.4348 109.501C63.7554 108.99 64.1758 108.595 64.6958 108.318C65.2244 108.041 65.8138 107.902 66.4638 107.902C67.0531 107.902 67.5731 108.023 68.0238 108.266C68.4744 108.5 68.8254 108.868 69.0768 109.371C69.3281 109.865 69.4538 110.502 69.4538 111.282C69.4538 112.053 69.3281 112.69 69.0768 113.193C68.8254 113.687 68.4744 114.055 68.0238 114.298C67.5731 114.541 67.0531 114.662 66.4638 114.662ZM66.8668 112.998C67.2221 112.998 67.5384 112.929 67.8158 112.79C68.0931 112.643 68.3098 112.439 68.4658 112.179C68.6218 111.919 68.6998 111.62 68.6998 111.282C68.6998 110.935 68.6218 110.636 68.4658 110.385C68.3098 110.125 68.0931 109.926 67.8158 109.787C67.5384 109.64 67.2221 109.566 66.8668 109.566C66.5114 109.566 66.1951 109.64 65.9178 109.787C65.6404 109.926 65.4194 110.125 65.2548 110.385C65.0988 110.636 65.0208 110.935 65.0208 111.282C65.0208 111.62 65.0988 111.919 65.2548 112.179C65.4194 112.439 65.6404 112.643 65.9178 112.79C66.1951 112.929 66.5114 112.998 66.8668 112.998ZM75.9173 115.104C75.172 115.104 74.509 114.948 73.9283 114.636C73.3563 114.324 72.9013 113.899 72.5633 113.362C72.234 112.816 72.0693 112.196 72.0693 111.503C72.0693 110.801 72.234 110.181 72.5633 109.644C72.9013 109.098 73.3563 108.673 73.9283 108.37C74.509 108.058 75.172 107.902 75.9173 107.902C76.654 107.902 77.3127 108.058 77.8933 108.37C78.474 108.673 78.929 109.094 79.2583 109.631C79.5877 110.168 79.7523 110.792 79.7523 111.503C79.7523 112.196 79.5877 112.816 79.2583 113.362C78.929 113.899 78.474 114.324 77.8933 114.636C77.3127 114.948 76.654 115.104 75.9173 115.104ZM75.9173 113.44C76.2553 113.44 76.5587 113.362 76.8273 113.206C77.096 113.05 77.3083 112.829 77.4643 112.543C77.6203 112.248 77.6983 111.902 77.6983 111.503C77.6983 111.096 77.6203 110.749 77.4643 110.463C77.3083 110.177 77.096 109.956 76.8273 109.8C76.5587 109.644 76.2553 109.566 75.9173 109.566C75.5793 109.566 75.276 109.644 75.0073 109.8C74.7387 109.956 74.522 110.177 74.3573 110.463C74.2013 110.749 74.1233 111.096 74.1233 111.503C74.1233 111.902 74.2013 112.248 74.3573 112.543C74.522 112.829 74.7387 113.05 75.0073 113.206C75.276 113.362 75.5793 113.44 75.9173 113.44ZM83.4609 115.104C82.8629 115.104 82.2865 115.035 81.7319 114.896C81.1859 114.749 80.7525 114.567 80.4319 114.35L81.1079 112.894C81.4285 113.093 81.8055 113.258 82.2389 113.388C82.6809 113.509 83.1142 113.57 83.5389 113.57C84.0069 113.57 84.3362 113.514 84.5269 113.401C84.7262 113.288 84.8259 113.132 84.8259 112.933C84.8259 112.768 84.7479 112.647 84.5919 112.569C84.4445 112.482 84.2452 112.417 83.9939 112.374C83.7425 112.331 83.4652 112.287 83.1619 112.244C82.8672 112.201 82.5682 112.144 82.2649 112.075C81.9615 111.997 81.6842 111.884 81.4329 111.737C81.1815 111.59 80.9779 111.39 80.8219 111.139C80.6745 110.888 80.6009 110.563 80.6009 110.164C80.6009 109.722 80.7265 109.332 80.9779 108.994C81.2379 108.656 81.6105 108.392 82.0959 108.201C82.5812 108.002 83.1619 107.902 83.8379 107.902C84.3145 107.902 84.7999 107.954 85.2939 108.058C85.7879 108.162 86.1995 108.314 86.5289 108.513L85.8529 109.956C85.5149 109.757 85.1725 109.622 84.8259 109.553C84.4879 109.475 84.1585 109.436 83.8379 109.436C83.3872 109.436 83.0579 109.497 82.8499 109.618C82.6419 109.739 82.5379 109.895 82.5379 110.086C82.5379 110.259 82.6115 110.389 82.7589 110.476C82.9149 110.563 83.1185 110.632 83.3699 110.684C83.6212 110.736 83.8942 110.784 84.1889 110.827C84.4922 110.862 84.7955 110.918 85.0989 110.996C85.4022 111.074 85.6752 111.187 85.9179 111.334C86.1692 111.473 86.3729 111.668 86.5289 111.919C86.6849 112.162 86.7629 112.482 86.7629 112.881C86.7629 113.314 86.6329 113.7 86.3729 114.038C86.1129 114.367 85.7359 114.627 85.2419 114.818C84.7565 115.009 84.1629 115.104 83.4609 115.104Z" fill="white"/>
<g clip-path="url(#clip1_215_16)">
<rect x="185" y="57.8946" width="286.79" height="286.79" rx="20" transform="rotate(-15.76 185 57.8946)" fill="#87C1EB"/>
<rect x="266.957" y="105.837" width="9.42857" height="135.626" transform="rotate(-105.76 266.957 105.837)" fill="#0D0D0D"/>
<rect x="304.818" y="76.0943" width="28.7033" height="28.7033" transform="rotate(-15.76 304.818 76.0943)" fill="#0D0D0D" stroke="white" stroke-width="2"/>
<path d="M313.877 88.6099L313.225 86.3002L313.995 86.0829L313.777 85.3129L319.937 83.5746L320.154 84.3446L320.924 84.1273L322.662 90.2867L321.122 90.7213L320.253 87.6416L314.864 89.1626L314.647 88.3926L313.877 88.6099ZM320.036 86.8716L319.384 84.5619L314.765 85.8656L315.416 88.1754L320.036 86.8716ZM321.691 83.9109L321.474 83.1409L329.173 80.9681L331.128 87.8974L329.589 88.332L327.85 82.1726L321.691 83.9109Z" fill="#E05C54"/>
<rect x="216" y="69.4747" width="41.8242" height="88.2418" transform="rotate(-15.76 216 69.4747)" fill="#0D0D0D"/>
<rect x="218.954" y="70.1484" width="36.5055" height="85.3407" transform="rotate(-15.76 218.954 70.1484)" fill="#D9D9D9"/>
<rect x="223.327" y="73.1846" width="29.7363" height="77.1209" transform="rotate(-15.76 223.327 73.1846)" fill="#0D0D0D"/>
<rect x="225.678" y="75.2842" width="26.3516" height="71.8022" transform="rotate(-15.76 225.678 75.2842)" fill="#302F2F"/>
<circle cx="242.086" cy="84.4696" r="9.42857" transform="rotate(-15.76 242.086 84.4696)" fill="#E05C54"/>
<circle cx="248.193" cy="106.108" r="9.42857" transform="rotate(-15.76 248.193 106.108)" fill="#D9D9D9"/>
<circle cx="254.3" cy="127.746" r="9.42857" transform="rotate(-15.76 254.3 127.746)" fill="#D9D9D9"/>
</g>
</g>
<defs>
<clipPath id="clip0_215_16">
<rect width="369" height="155" rx="15" fill="white"/>
</clipPath>
<clipPath id="clip1_215_16">
<rect x="185" y="57.8946" width="286.79" height="286.79" rx="20" transform="rotate(-15.76 185 57.8946)" fill="white"/>
</clipPath>
</defs>
</svg>
