<svg width="45" height="45" viewBox="0 0 45 45" fill="none" xmlns="http://www.w3.org/2000/svg">
<circle cx="22.5" cy="22.5" r="22.5" fill="#188CD8"/>
<path d="M32.7499 15.9602C32.0327 16.2695 31.2522 16.4922 30.4483 16.5789C31.283 16.0831 31.908 15.2997 32.2061 14.3758C31.4229 14.8417 30.5649 15.1684 29.6702 15.3414C29.2963 14.9416 28.844 14.6231 28.3415 14.4058C27.8391 14.1885 27.2973 14.0769 26.7499 14.0781C24.5351 14.0781 22.7538 15.8734 22.7538 18.0766C22.7538 18.3859 22.7913 18.6953 22.8522 18.993C19.5358 18.8195 16.578 17.2352 14.6116 14.8094C14.2533 15.4214 14.0656 16.1182 14.0679 16.8274C14.0679 18.2149 14.7733 19.4383 15.8491 20.1578C15.2151 20.1329 14.596 19.9586 14.0421 19.6492V19.6984C14.0421 21.6414 15.4155 23.2516 17.246 23.6219C16.9023 23.7112 16.5487 23.7568 16.1937 23.7578C15.9335 23.7578 15.6874 23.732 15.439 23.6969C15.9452 25.2813 17.4194 26.432 19.1749 26.4695C17.8015 27.5453 16.0812 28.1781 14.2132 28.1781C13.878 28.1781 13.5687 28.1664 13.2476 28.1289C15.0194 29.2656 17.1218 29.9219 19.3858 29.9219C26.7358 29.9219 30.7577 23.8328 30.7577 18.5477C30.7577 18.3742 30.7577 18.2008 30.746 18.0274C31.5241 17.4578 32.2062 16.7524 32.7499 15.9602Z" fill="white"/>
</svg>
